<svg width="210.82755332854856" height="36.2355549003745" viewBox="-0.5772536350866502 -4.2213536350866505 620.5208129882812 106.65074669259162"
  xmlns="http://www.w3.org/2000/svg"
  xmlns:xlink="http://www.w3.org/1999/xlink" style="position: absolute; display: block; left: -0.196127px; top: -1.43424px; transform: scale(1, 1); transform-origin: 0px 0px;">
  <defs>
    <filter id="shadow-00013.1427598355787245.44341971120916046" x="-927.6384596468431" y="-154.5327003276783" width="2482.083251953125" height="426.6029867703665" filterUnits="userSpaceOnUse">
      <feColorMatrix values="0 0 0 0 0   0 0 0 0 0   0 0 0 0 0  0 0 0 1 0" type="matrix" in="SourceAlpha" result="matrix" color-interpolation-filters="sRGB"></feColorMatrix>
      <feOffset dx="3.142759835578724" dy="5.44341971120916" in="matrix" result="offset"></feOffset>
      <feGaussianBlur stdDeviation="0" in="offset" result="blur"></feGaussianBlur>
      <feMerge>
        <feMergeNode in="blur"></feMergeNode>
        <feMergeNode in="SourceGraphic"></feMergeNode>
      </feMerge>
    </filter>
    <mask id="mask-ele1694491651124_2230_4">
      <path d=" M 40.3818 23.9831 L 43.9028 10.3788 L 61.7826 10.3788 L 64.4737 -0.0187 L 80.1185 -0.0187 L 77.4275 10.3788 L 95.696 10.3788 L 92.1749 23.9831 L 86.4417 23.9831 C 84.8428 27.1574 82.7149 30.6232 80.0581 34.3806 C 77.4013 38.1379 74.2178 41.9276 70.5078 45.7498 C 72.3491 48.1467 74.3379 50.3493 76.4742 52.3575 C 78.6921 54.301 80.9758 56.1149 83.3255 57.7992 L 71.8066 69.2656 C 69.4881 67.7109 67.058 65.9617 64.5163 64.0183 C 62.0561 62.01 59.7037 59.7103 57.4592 57.119 C 54.4107 59.3864 51.1281 61.5566 47.6116 63.6296 C 44.0951 65.7026 40.4022 67.5813 36.5328 69.2656 L 31.3951 56.8275 C 37.8192 53.7827 44.1278 50.0578 50.321 45.6526 C 49.084 42.6726 48.1168 39.4012 47.4194 35.8381 C 46.7221 32.2751 46.3844 28.3234 46.4065 23.9831 L 40.3818 23.9831 M 2.4594 73.6384 L 12.9506 65.7674 L 15.189 57.119 L 10.6219 57.119 L 14.3189 42.8346 L 32.7818 42.8346 L 28.5314 59.2568 C 27.9949 61.3298 27.8962 63.3381 28.2354 65.2815 C 28.5913 67.1602 29.5817 68.715 31.2066 69.9458 C 32.8482 71.1119 35.321 71.695 38.6249 71.695 L 82.2555 71.695 L 78.6842 85.4935 L 30.5836 85.4935 C 26.891 85.4935 23.9324 84.9105 21.7077 83.7444 C 19.483 82.5783 17.8867 80.8616 16.9188 78.5942 L 8.2155 84.8133 L 2.4594 73.6384 M 21.3656 17.8612 L 25.2136 2.9937 L 42.7047 2.9937 L 38.8567 17.8612 L 21.3656 17.8612 M 16.2098 37.7816 L 20.0578 22.9141 L 37.5489 22.9141 L 33.7009 37.7816 L 16.2098 37.7816 M 61.3711 23.9831 C 61.631 25.7322 61.9641 27.4489 62.3703 29.1332 C 62.7933 30.7528 63.2895 32.3399 63.8588 33.8947 C 65.3793 32.2751 66.8026 30.6556 68.1287 29.036 C 69.4716 27.3517 70.6525 25.6674 71.6715 23.9831 L 61.3711 23.9831 Z M 98.9817 50.9971 L 102.0501 39.142 L 170.1683 39.142 L 167.1 50.9971 L 142.0293 50.9971 L 140.6461 56.3416 L 157.3598 56.3416 L 154.4424 67.6137 L 137.7287 67.6137 L 136.3705 72.861 L 162.2185 72.861 L 158.8484 85.8822 L 125.9068 85.8822 C 123.9633 85.8822 121.6563 85.785 118.9858 85.5907 C 116.332 85.3315 113.7225 84.6513 111.1571 83.55 C 108.6565 82.4488 106.5263 80.6672 104.7665 78.2055 L 99.3786 85.8822 L 89.252 79.9546 L 108.9585 51.8717 L 120.0706 56.2445 L 114.0676 64.7957 C 114.7497 66.4152 115.6369 67.7433 116.729 68.7798 C 117.886 69.8163 119.0692 70.626 120.2787 71.2091 L 125.5099 50.9971 L 98.9817 50.9971 M 111.1866 36.1297 L 120.0646 1.8276 L 171.3719 1.8276 L 162.4939 36.1297 L 111.1866 36.1297 M 153.1526 15.529 L 154.0077 12.2251 L 132.0467 12.2251 L 131.1915 15.529 L 153.1526 15.529 M 128.5005 25.9265 L 150.4615 25.9265 L 151.3167 22.6226 L 129.3556 22.6226 L 128.5005 25.9265 Z M 198.8734 87.0483 L 213.6114 30.1049 L 230.0336 30.1049 L 215.2956 87.0483 L 198.8734 87.0483 M 261.1975 30.5908 L 248.9264 41.96 L 225.7019 17.181 L 187.7257 42.6403 L 182.196 30.5908 L 230.0815 -0.1158 L 261.1975 30.5908 Z M 274.3947 13.3912 L 281.877 13.3912 L 288.4675 -1.1847 L 300.7628 1.2446 L 295.384 13.3912 L 310.0571 13.3912 C 308.2052 19.5455 306.1912 25.6998 304.0154 31.8541 C 301.921 37.9436 299.5279 43.9359 296.8361 49.831 C 294.1442 55.7262 290.9928 61.3946 287.3818 66.8363 L 294.5726 75.096 L 283.7259 84.7161 L 278.3391 78.4971 C 276.7851 80.2462 275.1423 81.9629 273.4107 83.6472 C 271.6959 85.2668 269.8839 86.8863 267.9748 88.5059 L 259.5493 79.7603 C 261.588 78.1408 263.4815 76.4564 265.2298 74.7073 C 267.0597 72.8934 268.7768 71.0147 270.3811 69.0713 L 261.5589 58.4794 L 275.9049 26.7039 L 270.9491 26.7039 L 274.3947 13.3912 M 300.8236 49.4424 L 304.5207 35.1579 L 316.4729 35.1579 L 318.1329 28.7445 L 329.478 14.946 L 312.1812 14.946 L 315.5765 1.8276 L 354.3485 1.8276 L 334.4579 28.7445 L 332.798 35.1579 L 345.9163 35.1579 L 342.2193 49.4424 L 329.1009 49.4424 L 319.7199 85.6878 L 299.9938 85.6878 L 304.5266 81.3151 L 312.7759 49.4424 L 300.8236 49.4424 M 276.9934 54.7869 L 279.0135 57.119 C 281.9385 52.3251 284.5252 47.3369 286.7735 42.1544 C 289.0866 36.9718 291.1645 31.8217 293.0074 26.7039 L 289.412 26.7039 L 276.9934 54.7869 Z M 357.9782 14.4601 L 360.5184 4.6456 L 387.5325 4.6456 L 388.9157 -0.6989 L 405.4351 -0.6989 L 404.0519 4.6456 L 431.1631 4.6456 L 428.6229 14.4601 L 401.5117 14.4601 L 400.7069 17.5696 L 422.2793 17.5696 L 416.8971 38.3646 L 395.3247 38.3646 L 394.4696 41.6685 L 419.3459 41.6685 L 416.4033 53.0378 L 420.8733 53.0378 L 418.4086 62.5607 L 413.9386 62.5607 L 410.996 73.9299 L 386.1198 73.9299 L 383.0766 85.6878 L 363.1562 85.6878 L 367.5129 81.9953 L 369.6004 73.9299 L 344.8213 73.9299 L 347.0345 65.3787 L 371.8136 65.3787 L 372.543 62.5607 L 343.1967 62.5607 L 345.6615 53.0378 L 375.0077 53.0378 L 375.737 50.2197 L 350.7636 50.2197 L 352.9768 41.6685 L 377.9502 41.6685 L 378.8054 38.3646 L 357.3301 38.3646 L 362.7123 17.5696 L 384.1875 17.5696 L 384.9923 14.4601 L 357.9782 14.4601 M 388.333 65.3787 L 398.5361 65.3787 L 399.2655 62.5607 L 389.0623 62.5607 L 388.333 65.3787 M 402.4596 50.2197 L 392.2564 50.2197 L 391.5271 53.0378 L 401.7302 53.0378 L 402.4596 50.2197 M 405.7313 26.3152 L 398.4434 26.3152 L 397.5883 29.6191 L 404.8762 29.6191 L 405.7313 26.3152 M 374.636 26.3152 L 373.7809 29.6191 L 381.0689 29.6191 L 381.924 26.3152 L 374.636 26.3152 Z M 441.186 85.6878 L 424.7638 85.6878 L 455.8988 4.0626 L 472.321 4.0626 L 441.186 85.6878 M 484.3067 71.8893 L 492.1777 71.8893 L 500.3482 65.4759 L 495.117 85.6878 L 464.3132 85.6878 L 485.4393 4.0626 L 501.8615 4.0626 L 484.3067 71.8893 Z M 527.1589 85.785 L 548.8132 2.1191 L 572.5234 2.1191 L 558.6278 35.1579 C 559.2391 39.304 559.398 43.3205 559.1046 47.2074 C 558.8927 51.0295 558.3508 54.6249 557.479 57.9936 C 556.4562 61.9453 555.1057 65.4111 553.4275 68.3911 C 551.7493 71.371 549.9148 73.7032 547.9241 75.3875 C 545.9334 77.0719 543.9987 77.914 542.12 77.914 L 539.2048 77.914 L 537.1677 85.785 L 527.1589 85.785 M 508.9269 70.626 L 525.35 7.1721 L 545.7563 7.1721 L 529.3332 70.626 L 508.9269 70.626 M 569.6003 16.7923 L 573.4231 2.022 L 603.9354 2.022 L 600.1125 16.7923 L 597.1002 16.7923 L 579.2435 85.785 L 565.445 85.785 L 569.2038 81.0236 L 585.8281 16.7923 L 569.6003 16.7923 M 568.0901 19.999 L 555.7413 67.7109 L 570.9975 67.7109 L 583.3462 19.999 L 568.0901 19.999 M 533.2199 21.0679 L 531.0821 21.0679 L 521.8519 56.7303 L 523.9898 56.7303 L 533.2199 21.0679 M 567.7176 56.7303 L 564.8995 56.7303 L 571.4386 31.4654 L 574.2566 31.4654 L 567.7176 56.7303 M 548.6351 55.3699 C 549.2555 52.973 549.6681 50.2521 549.8731 47.2074 C 550.1429 44.1626 550.0156 41.1503 549.4913 38.1703 L 542.9774 63.3381 L 543.6576 63.3381 C 544.6293 63.3381 545.5263 62.6255 546.3487 61.2003 C 547.2526 59.7103 548.0147 57.7668 548.6351 55.3699 M 558.2447 15.2375 L 555.4267 15.2375 L 550.4218 34.5749 L 558.2447 15.2375 Z" stroke-linecap="round" stroke-linejoin="round" fill="#ffffff"></path>
    </mask>
    <linearGradient id="linear-gradient-ele1694491651124_2230_4" x1="0" y1="0" x2="0%" y2="100%">
      <stop offset="0" stop-color="rgb(255, 249, 138)"></stop>
      <stop offset="1" stop-color="rgb(255, 249, 138)"></stop>
    </linearGradient>
  </defs>
  <rect width="620.5208129882812" height="106.65074669259162" x="0" y="0" opacity="0"></rect>
  <path d=" M 40.3818 23.9831 L 43.9028 10.3788 L 61.7826 10.3788 L 64.4737 -0.0187 L 80.1185 -0.0187 L 77.4275 10.3788 L 95.696 10.3788 L 92.1749 23.9831 L 86.4417 23.9831 C 84.8428 27.1574 82.7149 30.6232 80.0581 34.3806 C 77.4013 38.1379 74.2178 41.9276 70.5078 45.7498 C 72.3491 48.1467 74.3379 50.3493 76.4742 52.3575 C 78.6921 54.301 80.9758 56.1149 83.3255 57.7992 L 71.8066 69.2656 C 69.4881 67.7109 67.058 65.9617 64.5163 64.0183 C 62.0561 62.01 59.7037 59.7103 57.4592 57.119 C 54.4107 59.3864 51.1281 61.5566 47.6116 63.6296 C 44.0951 65.7026 40.4022 67.5813 36.5328 69.2656 L 31.3951 56.8275 C 37.8192 53.7827 44.1278 50.0578 50.321 45.6526 C 49.084 42.6726 48.1168 39.4012 47.4194 35.8381 C 46.7221 32.2751 46.3844 28.3234 46.4065 23.9831 L 40.3818 23.9831 M 2.4594 73.6384 L 12.9506 65.7674 L 15.189 57.119 L 10.6219 57.119 L 14.3189 42.8346 L 32.7818 42.8346 L 28.5314 59.2568 C 27.9949 61.3298 27.8962 63.3381 28.2354 65.2815 C 28.5913 67.1602 29.5817 68.715 31.2066 69.9458 C 32.8482 71.1119 35.321 71.695 38.6249 71.695 L 82.2555 71.695 L 78.6842 85.4935 L 30.5836 85.4935 C 26.891 85.4935 23.9324 84.9105 21.7077 83.7444 C 19.483 82.5783 17.8867 80.8616 16.9188 78.5942 L 8.2155 84.8133 L 2.4594 73.6384 M 21.3656 17.8612 L 25.2136 2.9937 L 42.7047 2.9937 L 38.8567 17.8612 L 21.3656 17.8612 M 16.2098 37.7816 L 20.0578 22.9141 L 37.5489 22.9141 L 33.7009 37.7816 L 16.2098 37.7816 M 61.3711 23.9831 C 61.631 25.7322 61.9641 27.4489 62.3703 29.1332 C 62.7933 30.7528 63.2895 32.3399 63.8588 33.8947 C 65.3793 32.2751 66.8026 30.6556 68.1287 29.036 C 69.4716 27.3517 70.6525 25.6674 71.6715 23.9831 L 61.3711 23.9831 Z M 98.9817 50.9971 L 102.0501 39.142 L 170.1683 39.142 L 167.1 50.9971 L 142.0293 50.9971 L 140.6461 56.3416 L 157.3598 56.3416 L 154.4424 67.6137 L 137.7287 67.6137 L 136.3705 72.861 L 162.2185 72.861 L 158.8484 85.8822 L 125.9068 85.8822 C 123.9633 85.8822 121.6563 85.785 118.9858 85.5907 C 116.332 85.3315 113.7225 84.6513 111.1571 83.55 C 108.6565 82.4488 106.5263 80.6672 104.7665 78.2055 L 99.3786 85.8822 L 89.252 79.9546 L 108.9585 51.8717 L 120.0706 56.2445 L 114.0676 64.7957 C 114.7497 66.4152 115.6369 67.7433 116.729 68.7798 C 117.886 69.8163 119.0692 70.626 120.2787 71.2091 L 125.5099 50.9971 L 98.9817 50.9971 M 111.1866 36.1297 L 120.0646 1.8276 L 171.3719 1.8276 L 162.4939 36.1297 L 111.1866 36.1297 M 153.1526 15.529 L 154.0077 12.2251 L 132.0467 12.2251 L 131.1915 15.529 L 153.1526 15.529 M 128.5005 25.9265 L 150.4615 25.9265 L 151.3167 22.6226 L 129.3556 22.6226 L 128.5005 25.9265 Z M 198.8734 87.0483 L 213.6114 30.1049 L 230.0336 30.1049 L 215.2956 87.0483 L 198.8734 87.0483 M 261.1975 30.5908 L 248.9264 41.96 L 225.7019 17.181 L 187.7257 42.6403 L 182.196 30.5908 L 230.0815 -0.1158 L 261.1975 30.5908 Z M 274.3947 13.3912 L 281.877 13.3912 L 288.4675 -1.1847 L 300.7628 1.2446 L 295.384 13.3912 L 310.0571 13.3912 C 308.2052 19.5455 306.1912 25.6998 304.0154 31.8541 C 301.921 37.9436 299.5279 43.9359 296.8361 49.831 C 294.1442 55.7262 290.9928 61.3946 287.3818 66.8363 L 294.5726 75.096 L 283.7259 84.7161 L 278.3391 78.4971 C 276.7851 80.2462 275.1423 81.9629 273.4107 83.6472 C 271.6959 85.2668 269.8839 86.8863 267.9748 88.5059 L 259.5493 79.7603 C 261.588 78.1408 263.4815 76.4564 265.2298 74.7073 C 267.0597 72.8934 268.7768 71.0147 270.3811 69.0713 L 261.5589 58.4794 L 275.9049 26.7039 L 270.9491 26.7039 L 274.3947 13.3912 M 300.8236 49.4424 L 304.5207 35.1579 L 316.4729 35.1579 L 318.1329 28.7445 L 329.478 14.946 L 312.1812 14.946 L 315.5765 1.8276 L 354.3485 1.8276 L 334.4579 28.7445 L 332.798 35.1579 L 345.9163 35.1579 L 342.2193 49.4424 L 329.1009 49.4424 L 319.7199 85.6878 L 299.9938 85.6878 L 304.5266 81.3151 L 312.7759 49.4424 L 300.8236 49.4424 M 276.9934 54.7869 L 279.0135 57.119 C 281.9385 52.3251 284.5252 47.3369 286.7735 42.1544 C 289.0866 36.9718 291.1645 31.8217 293.0074 26.7039 L 289.412 26.7039 L 276.9934 54.7869 Z M 357.9782 14.4601 L 360.5184 4.6456 L 387.5325 4.6456 L 388.9157 -0.6989 L 405.4351 -0.6989 L 404.0519 4.6456 L 431.1631 4.6456 L 428.6229 14.4601 L 401.5117 14.4601 L 400.7069 17.5696 L 422.2793 17.5696 L 416.8971 38.3646 L 395.3247 38.3646 L 394.4696 41.6685 L 419.3459 41.6685 L 416.4033 53.0378 L 420.8733 53.0378 L 418.4086 62.5607 L 413.9386 62.5607 L 410.996 73.9299 L 386.1198 73.9299 L 383.0766 85.6878 L 363.1562 85.6878 L 367.5129 81.9953 L 369.6004 73.9299 L 344.8213 73.9299 L 347.0345 65.3787 L 371.8136 65.3787 L 372.543 62.5607 L 343.1967 62.5607 L 345.6615 53.0378 L 375.0077 53.0378 L 375.737 50.2197 L 350.7636 50.2197 L 352.9768 41.6685 L 377.9502 41.6685 L 378.8054 38.3646 L 357.3301 38.3646 L 362.7123 17.5696 L 384.1875 17.5696 L 384.9923 14.4601 L 357.9782 14.4601 M 388.333 65.3787 L 398.5361 65.3787 L 399.2655 62.5607 L 389.0623 62.5607 L 388.333 65.3787 M 402.4596 50.2197 L 392.2564 50.2197 L 391.5271 53.0378 L 401.7302 53.0378 L 402.4596 50.2197 M 405.7313 26.3152 L 398.4434 26.3152 L 397.5883 29.6191 L 404.8762 29.6191 L 405.7313 26.3152 M 374.636 26.3152 L 373.7809 29.6191 L 381.0689 29.6191 L 381.924 26.3152 L 374.636 26.3152 Z M 441.186 85.6878 L 424.7638 85.6878 L 455.8988 4.0626 L 472.321 4.0626 L 441.186 85.6878 M 484.3067 71.8893 L 492.1777 71.8893 L 500.3482 65.4759 L 495.117 85.6878 L 464.3132 85.6878 L 485.4393 4.0626 L 501.8615 4.0626 L 484.3067 71.8893 Z M 527.1589 85.785 L 548.8132 2.1191 L 572.5234 2.1191 L 558.6278 35.1579 C 559.2391 39.304 559.398 43.3205 559.1046 47.2074 C 558.8927 51.0295 558.3508 54.6249 557.479 57.9936 C 556.4562 61.9453 555.1057 65.4111 553.4275 68.3911 C 551.7493 71.371 549.9148 73.7032 547.9241 75.3875 C 545.9334 77.0719 543.9987 77.914 542.12 77.914 L 539.2048 77.914 L 537.1677 85.785 L 527.1589 85.785 M 508.9269 70.626 L 525.35 7.1721 L 545.7563 7.1721 L 529.3332 70.626 L 508.9269 70.626 M 569.6003 16.7923 L 573.4231 2.022 L 603.9354 2.022 L 600.1125 16.7923 L 597.1002 16.7923 L 579.2435 85.785 L 565.445 85.785 L 569.2038 81.0236 L 585.8281 16.7923 L 569.6003 16.7923 M 568.0901 19.999 L 555.7413 67.7109 L 570.9975 67.7109 L 583.3462 19.999 L 568.0901 19.999 M 533.2199 21.0679 L 531.0821 21.0679 L 521.8519 56.7303 L 523.9898 56.7303 L 533.2199 21.0679 M 567.7176 56.7303 L 564.8995 56.7303 L 571.4386 31.4654 L 574.2566 31.4654 L 567.7176 56.7303 M 548.6351 55.3699 C 549.2555 52.973 549.6681 50.2521 549.8731 47.2074 C 550.1429 44.1626 550.0156 41.1503 549.4913 38.1703 L 542.9774 63.3381 L 543.6576 63.3381 C 544.6293 63.3381 545.5263 62.6255 546.3487 61.2003 C 547.2526 59.7103 548.0147 57.7668 548.6351 55.3699 M 558.2447 15.2375 L 555.4267 15.2375 L 550.4218 34.5749 L 558.2447 15.2375 Z" stroke-linecap="round" stroke-linejoin="round" stroke="#000000" stroke-width="6.0733072701733" fill="#000000"></path>
  <g filter="url(#shadow-00013.1427598355787245.44341971120916046)">
    <path d=" M 40.3818 23.9831 L 43.9028 10.3788 L 61.7826 10.3788 L 64.4737 -0.0187 L 80.1185 -0.0187 L 77.4275 10.3788 L 95.696 10.3788 L 92.1749 23.9831 L 86.4417 23.9831 C 84.8428 27.1574 82.7149 30.6232 80.0581 34.3806 C 77.4013 38.1379 74.2178 41.9276 70.5078 45.7498 C 72.3491 48.1467 74.3379 50.3493 76.4742 52.3575 C 78.6921 54.301 80.9758 56.1149 83.3255 57.7992 L 71.8066 69.2656 C 69.4881 67.7109 67.058 65.9617 64.5163 64.0183 C 62.0561 62.01 59.7037 59.7103 57.4592 57.119 C 54.4107 59.3864 51.1281 61.5566 47.6116 63.6296 C 44.0951 65.7026 40.4022 67.5813 36.5328 69.2656 L 31.3951 56.8275 C 37.8192 53.7827 44.1278 50.0578 50.321 45.6526 C 49.084 42.6726 48.1168 39.4012 47.4194 35.8381 C 46.7221 32.2751 46.3844 28.3234 46.4065 23.9831 L 40.3818 23.9831 M 2.4594 73.6384 L 12.9506 65.7674 L 15.189 57.119 L 10.6219 57.119 L 14.3189 42.8346 L 32.7818 42.8346 L 28.5314 59.2568 C 27.9949 61.3298 27.8962 63.3381 28.2354 65.2815 C 28.5913 67.1602 29.5817 68.715 31.2066 69.9458 C 32.8482 71.1119 35.321 71.695 38.6249 71.695 L 82.2555 71.695 L 78.6842 85.4935 L 30.5836 85.4935 C 26.891 85.4935 23.9324 84.9105 21.7077 83.7444 C 19.483 82.5783 17.8867 80.8616 16.9188 78.5942 L 8.2155 84.8133 L 2.4594 73.6384 M 21.3656 17.8612 L 25.2136 2.9937 L 42.7047 2.9937 L 38.8567 17.8612 L 21.3656 17.8612 M 16.2098 37.7816 L 20.0578 22.9141 L 37.5489 22.9141 L 33.7009 37.7816 L 16.2098 37.7816 M 61.3711 23.9831 C 61.631 25.7322 61.9641 27.4489 62.3703 29.1332 C 62.7933 30.7528 63.2895 32.3399 63.8588 33.8947 C 65.3793 32.2751 66.8026 30.6556 68.1287 29.036 C 69.4716 27.3517 70.6525 25.6674 71.6715 23.9831 L 61.3711 23.9831 Z M 98.9817 50.9971 L 102.0501 39.142 L 170.1683 39.142 L 167.1 50.9971 L 142.0293 50.9971 L 140.6461 56.3416 L 157.3598 56.3416 L 154.4424 67.6137 L 137.7287 67.6137 L 136.3705 72.861 L 162.2185 72.861 L 158.8484 85.8822 L 125.9068 85.8822 C 123.9633 85.8822 121.6563 85.785 118.9858 85.5907 C 116.332 85.3315 113.7225 84.6513 111.1571 83.55 C 108.6565 82.4488 106.5263 80.6672 104.7665 78.2055 L 99.3786 85.8822 L 89.252 79.9546 L 108.9585 51.8717 L 120.0706 56.2445 L 114.0676 64.7957 C 114.7497 66.4152 115.6369 67.7433 116.729 68.7798 C 117.886 69.8163 119.0692 70.626 120.2787 71.2091 L 125.5099 50.9971 L 98.9817 50.9971 M 111.1866 36.1297 L 120.0646 1.8276 L 171.3719 1.8276 L 162.4939 36.1297 L 111.1866 36.1297 M 153.1526 15.529 L 154.0077 12.2251 L 132.0467 12.2251 L 131.1915 15.529 L 153.1526 15.529 M 128.5005 25.9265 L 150.4615 25.9265 L 151.3167 22.6226 L 129.3556 22.6226 L 128.5005 25.9265 Z M 198.8734 87.0483 L 213.6114 30.1049 L 230.0336 30.1049 L 215.2956 87.0483 L 198.8734 87.0483 M 261.1975 30.5908 L 248.9264 41.96 L 225.7019 17.181 L 187.7257 42.6403 L 182.196 30.5908 L 230.0815 -0.1158 L 261.1975 30.5908 Z M 274.3947 13.3912 L 281.877 13.3912 L 288.4675 -1.1847 L 300.7628 1.2446 L 295.384 13.3912 L 310.0571 13.3912 C 308.2052 19.5455 306.1912 25.6998 304.0154 31.8541 C 301.921 37.9436 299.5279 43.9359 296.8361 49.831 C 294.1442 55.7262 290.9928 61.3946 287.3818 66.8363 L 294.5726 75.096 L 283.7259 84.7161 L 278.3391 78.4971 C 276.7851 80.2462 275.1423 81.9629 273.4107 83.6472 C 271.6959 85.2668 269.8839 86.8863 267.9748 88.5059 L 259.5493 79.7603 C 261.588 78.1408 263.4815 76.4564 265.2298 74.7073 C 267.0597 72.8934 268.7768 71.0147 270.3811 69.0713 L 261.5589 58.4794 L 275.9049 26.7039 L 270.9491 26.7039 L 274.3947 13.3912 M 300.8236 49.4424 L 304.5207 35.1579 L 316.4729 35.1579 L 318.1329 28.7445 L 329.478 14.946 L 312.1812 14.946 L 315.5765 1.8276 L 354.3485 1.8276 L 334.4579 28.7445 L 332.798 35.1579 L 345.9163 35.1579 L 342.2193 49.4424 L 329.1009 49.4424 L 319.7199 85.6878 L 299.9938 85.6878 L 304.5266 81.3151 L 312.7759 49.4424 L 300.8236 49.4424 M 276.9934 54.7869 L 279.0135 57.119 C 281.9385 52.3251 284.5252 47.3369 286.7735 42.1544 C 289.0866 36.9718 291.1645 31.8217 293.0074 26.7039 L 289.412 26.7039 L 276.9934 54.7869 Z M 357.9782 14.4601 L 360.5184 4.6456 L 387.5325 4.6456 L 388.9157 -0.6989 L 405.4351 -0.6989 L 404.0519 4.6456 L 431.1631 4.6456 L 428.6229 14.4601 L 401.5117 14.4601 L 400.7069 17.5696 L 422.2793 17.5696 L 416.8971 38.3646 L 395.3247 38.3646 L 394.4696 41.6685 L 419.3459 41.6685 L 416.4033 53.0378 L 420.8733 53.0378 L 418.4086 62.5607 L 413.9386 62.5607 L 410.996 73.9299 L 386.1198 73.9299 L 383.0766 85.6878 L 363.1562 85.6878 L 367.5129 81.9953 L 369.6004 73.9299 L 344.8213 73.9299 L 347.0345 65.3787 L 371.8136 65.3787 L 372.543 62.5607 L 343.1967 62.5607 L 345.6615 53.0378 L 375.0077 53.0378 L 375.737 50.2197 L 350.7636 50.2197 L 352.9768 41.6685 L 377.9502 41.6685 L 378.8054 38.3646 L 357.3301 38.3646 L 362.7123 17.5696 L 384.1875 17.5696 L 384.9923 14.4601 L 357.9782 14.4601 M 388.333 65.3787 L 398.5361 65.3787 L 399.2655 62.5607 L 389.0623 62.5607 L 388.333 65.3787 M 402.4596 50.2197 L 392.2564 50.2197 L 391.5271 53.0378 L 401.7302 53.0378 L 402.4596 50.2197 M 405.7313 26.3152 L 398.4434 26.3152 L 397.5883 29.6191 L 404.8762 29.6191 L 405.7313 26.3152 M 374.636 26.3152 L 373.7809 29.6191 L 381.0689 29.6191 L 381.924 26.3152 L 374.636 26.3152 Z M 441.186 85.6878 L 424.7638 85.6878 L 455.8988 4.0626 L 472.321 4.0626 L 441.186 85.6878 M 484.3067 71.8893 L 492.1777 71.8893 L 500.3482 65.4759 L 495.117 85.6878 L 464.3132 85.6878 L 485.4393 4.0626 L 501.8615 4.0626 L 484.3067 71.8893 Z M 527.1589 85.785 L 548.8132 2.1191 L 572.5234 2.1191 L 558.6278 35.1579 C 559.2391 39.304 559.398 43.3205 559.1046 47.2074 C 558.8927 51.0295 558.3508 54.6249 557.479 57.9936 C 556.4562 61.9453 555.1057 65.4111 553.4275 68.3911 C 551.7493 71.371 549.9148 73.7032 547.9241 75.3875 C 545.9334 77.0719 543.9987 77.914 542.12 77.914 L 539.2048 77.914 L 537.1677 85.785 L 527.1589 85.785 M 508.9269 70.626 L 525.35 7.1721 L 545.7563 7.1721 L 529.3332 70.626 L 508.9269 70.626 M 569.6003 16.7923 L 573.4231 2.022 L 603.9354 2.022 L 600.1125 16.7923 L 597.1002 16.7923 L 579.2435 85.785 L 565.445 85.785 L 569.2038 81.0236 L 585.8281 16.7923 L 569.6003 16.7923 M 568.0901 19.999 L 555.7413 67.7109 L 570.9975 67.7109 L 583.3462 19.999 L 568.0901 19.999 M 533.2199 21.0679 L 531.0821 21.0679 L 521.8519 56.7303 L 523.9898 56.7303 L 533.2199 21.0679 M 567.7176 56.7303 L 564.8995 56.7303 L 571.4386 31.4654 L 574.2566 31.4654 L 567.7176 56.7303 M 548.6351 55.3699 C 549.2555 52.973 549.6681 50.2521 549.8731 47.2074 C 550.1429 44.1626 550.0156 41.1503 549.4913 38.1703 L 542.9774 63.3381 L 543.6576 63.3381 C 544.6293 63.3381 545.5263 62.6255 546.3487 61.2003 C 547.2526 59.7103 548.0147 57.7668 548.6351 55.3699 M 558.2447 15.2375 L 555.4267 15.2375 L 550.4218 34.5749 L 558.2447 15.2375 Z" stroke-linecap="round" stroke-linejoin="round" stroke-width="6.0733072701733" stroke="#ffffff" fill="#ffffff"></path>
  </g>
  <path d=" M 40.3818 23.9831 L 43.9028 10.3788 L 61.7826 10.3788 L 64.4737 -0.0187 L 80.1185 -0.0187 L 77.4275 10.3788 L 95.696 10.3788 L 92.1749 23.9831 L 86.4417 23.9831 C 84.8428 27.1574 82.7149 30.6232 80.0581 34.3806 C 77.4013 38.1379 74.2178 41.9276 70.5078 45.7498 C 72.3491 48.1467 74.3379 50.3493 76.4742 52.3575 C 78.6921 54.301 80.9758 56.1149 83.3255 57.7992 L 71.8066 69.2656 C 69.4881 67.7109 67.058 65.9617 64.5163 64.0183 C 62.0561 62.01 59.7037 59.7103 57.4592 57.119 C 54.4107 59.3864 51.1281 61.5566 47.6116 63.6296 C 44.0951 65.7026 40.4022 67.5813 36.5328 69.2656 L 31.3951 56.8275 C 37.8192 53.7827 44.1278 50.0578 50.321 45.6526 C 49.084 42.6726 48.1168 39.4012 47.4194 35.8381 C 46.7221 32.2751 46.3844 28.3234 46.4065 23.9831 L 40.3818 23.9831 M 2.4594 73.6384 L 12.9506 65.7674 L 15.189 57.119 L 10.6219 57.119 L 14.3189 42.8346 L 32.7818 42.8346 L 28.5314 59.2568 C 27.9949 61.3298 27.8962 63.3381 28.2354 65.2815 C 28.5913 67.1602 29.5817 68.715 31.2066 69.9458 C 32.8482 71.1119 35.321 71.695 38.6249 71.695 L 82.2555 71.695 L 78.6842 85.4935 L 30.5836 85.4935 C 26.891 85.4935 23.9324 84.9105 21.7077 83.7444 C 19.483 82.5783 17.8867 80.8616 16.9188 78.5942 L 8.2155 84.8133 L 2.4594 73.6384 M 21.3656 17.8612 L 25.2136 2.9937 L 42.7047 2.9937 L 38.8567 17.8612 L 21.3656 17.8612 M 16.2098 37.7816 L 20.0578 22.9141 L 37.5489 22.9141 L 33.7009 37.7816 L 16.2098 37.7816 M 61.3711 23.9831 C 61.631 25.7322 61.9641 27.4489 62.3703 29.1332 C 62.7933 30.7528 63.2895 32.3399 63.8588 33.8947 C 65.3793 32.2751 66.8026 30.6556 68.1287 29.036 C 69.4716 27.3517 70.6525 25.6674 71.6715 23.9831 L 61.3711 23.9831 Z M 98.9817 50.9971 L 102.0501 39.142 L 170.1683 39.142 L 167.1 50.9971 L 142.0293 50.9971 L 140.6461 56.3416 L 157.3598 56.3416 L 154.4424 67.6137 L 137.7287 67.6137 L 136.3705 72.861 L 162.2185 72.861 L 158.8484 85.8822 L 125.9068 85.8822 C 123.9633 85.8822 121.6563 85.785 118.9858 85.5907 C 116.332 85.3315 113.7225 84.6513 111.1571 83.55 C 108.6565 82.4488 106.5263 80.6672 104.7665 78.2055 L 99.3786 85.8822 L 89.252 79.9546 L 108.9585 51.8717 L 120.0706 56.2445 L 114.0676 64.7957 C 114.7497 66.4152 115.6369 67.7433 116.729 68.7798 C 117.886 69.8163 119.0692 70.626 120.2787 71.2091 L 125.5099 50.9971 L 98.9817 50.9971 M 111.1866 36.1297 L 120.0646 1.8276 L 171.3719 1.8276 L 162.4939 36.1297 L 111.1866 36.1297 M 153.1526 15.529 L 154.0077 12.2251 L 132.0467 12.2251 L 131.1915 15.529 L 153.1526 15.529 M 128.5005 25.9265 L 150.4615 25.9265 L 151.3167 22.6226 L 129.3556 22.6226 L 128.5005 25.9265 Z M 198.8734 87.0483 L 213.6114 30.1049 L 230.0336 30.1049 L 215.2956 87.0483 L 198.8734 87.0483 M 261.1975 30.5908 L 248.9264 41.96 L 225.7019 17.181 L 187.7257 42.6403 L 182.196 30.5908 L 230.0815 -0.1158 L 261.1975 30.5908 Z M 274.3947 13.3912 L 281.877 13.3912 L 288.4675 -1.1847 L 300.7628 1.2446 L 295.384 13.3912 L 310.0571 13.3912 C 308.2052 19.5455 306.1912 25.6998 304.0154 31.8541 C 301.921 37.9436 299.5279 43.9359 296.8361 49.831 C 294.1442 55.7262 290.9928 61.3946 287.3818 66.8363 L 294.5726 75.096 L 283.7259 84.7161 L 278.3391 78.4971 C 276.7851 80.2462 275.1423 81.9629 273.4107 83.6472 C 271.6959 85.2668 269.8839 86.8863 267.9748 88.5059 L 259.5493 79.7603 C 261.588 78.1408 263.4815 76.4564 265.2298 74.7073 C 267.0597 72.8934 268.7768 71.0147 270.3811 69.0713 L 261.5589 58.4794 L 275.9049 26.7039 L 270.9491 26.7039 L 274.3947 13.3912 M 300.8236 49.4424 L 304.5207 35.1579 L 316.4729 35.1579 L 318.1329 28.7445 L 329.478 14.946 L 312.1812 14.946 L 315.5765 1.8276 L 354.3485 1.8276 L 334.4579 28.7445 L 332.798 35.1579 L 345.9163 35.1579 L 342.2193 49.4424 L 329.1009 49.4424 L 319.7199 85.6878 L 299.9938 85.6878 L 304.5266 81.3151 L 312.7759 49.4424 L 300.8236 49.4424 M 276.9934 54.7869 L 279.0135 57.119 C 281.9385 52.3251 284.5252 47.3369 286.7735 42.1544 C 289.0866 36.9718 291.1645 31.8217 293.0074 26.7039 L 289.412 26.7039 L 276.9934 54.7869 Z M 357.9782 14.4601 L 360.5184 4.6456 L 387.5325 4.6456 L 388.9157 -0.6989 L 405.4351 -0.6989 L 404.0519 4.6456 L 431.1631 4.6456 L 428.6229 14.4601 L 401.5117 14.4601 L 400.7069 17.5696 L 422.2793 17.5696 L 416.8971 38.3646 L 395.3247 38.3646 L 394.4696 41.6685 L 419.3459 41.6685 L 416.4033 53.0378 L 420.8733 53.0378 L 418.4086 62.5607 L 413.9386 62.5607 L 410.996 73.9299 L 386.1198 73.9299 L 383.0766 85.6878 L 363.1562 85.6878 L 367.5129 81.9953 L 369.6004 73.9299 L 344.8213 73.9299 L 347.0345 65.3787 L 371.8136 65.3787 L 372.543 62.5607 L 343.1967 62.5607 L 345.6615 53.0378 L 375.0077 53.0378 L 375.737 50.2197 L 350.7636 50.2197 L 352.9768 41.6685 L 377.9502 41.6685 L 378.8054 38.3646 L 357.3301 38.3646 L 362.7123 17.5696 L 384.1875 17.5696 L 384.9923 14.4601 L 357.9782 14.4601 M 388.333 65.3787 L 398.5361 65.3787 L 399.2655 62.5607 L 389.0623 62.5607 L 388.333 65.3787 M 402.4596 50.2197 L 392.2564 50.2197 L 391.5271 53.0378 L 401.7302 53.0378 L 402.4596 50.2197 M 405.7313 26.3152 L 398.4434 26.3152 L 397.5883 29.6191 L 404.8762 29.6191 L 405.7313 26.3152 M 374.636 26.3152 L 373.7809 29.6191 L 381.0689 29.6191 L 381.924 26.3152 L 374.636 26.3152 Z M 441.186 85.6878 L 424.7638 85.6878 L 455.8988 4.0626 L 472.321 4.0626 L 441.186 85.6878 M 484.3067 71.8893 L 492.1777 71.8893 L 500.3482 65.4759 L 495.117 85.6878 L 464.3132 85.6878 L 485.4393 4.0626 L 501.8615 4.0626 L 484.3067 71.8893 Z M 527.1589 85.785 L 548.8132 2.1191 L 572.5234 2.1191 L 558.6278 35.1579 C 559.2391 39.304 559.398 43.3205 559.1046 47.2074 C 558.8927 51.0295 558.3508 54.6249 557.479 57.9936 C 556.4562 61.9453 555.1057 65.4111 553.4275 68.3911 C 551.7493 71.371 549.9148 73.7032 547.9241 75.3875 C 545.9334 77.0719 543.9987 77.914 542.12 77.914 L 539.2048 77.914 L 537.1677 85.785 L 527.1589 85.785 M 508.9269 70.626 L 525.35 7.1721 L 545.7563 7.1721 L 529.3332 70.626 L 508.9269 70.626 M 569.6003 16.7923 L 573.4231 2.022 L 603.9354 2.022 L 600.1125 16.7923 L 597.1002 16.7923 L 579.2435 85.785 L 565.445 85.785 L 569.2038 81.0236 L 585.8281 16.7923 L 569.6003 16.7923 M 568.0901 19.999 L 555.7413 67.7109 L 570.9975 67.7109 L 583.3462 19.999 L 568.0901 19.999 M 533.2199 21.0679 L 531.0821 21.0679 L 521.8519 56.7303 L 523.9898 56.7303 L 533.2199 21.0679 M 567.7176 56.7303 L 564.8995 56.7303 L 571.4386 31.4654 L 574.2566 31.4654 L 567.7176 56.7303 M 548.6351 55.3699 C 549.2555 52.973 549.6681 50.2521 549.8731 47.2074 C 550.1429 44.1626 550.0156 41.1503 549.4913 38.1703 L 542.9774 63.3381 L 543.6576 63.3381 C 544.6293 63.3381 545.5263 62.6255 546.3487 61.2003 C 547.2526 59.7103 548.0147 57.7668 548.6351 55.3699 M 558.2447 15.2375 L 555.4267 15.2375 L 550.4218 34.5749 L 558.2447 15.2375 Z" stroke-linecap="round" stroke-linejoin="round" stroke="#000000" stroke-width="6.0733072701733" fill="#000000"></path>
  <g mask="url(#mask-ele1694491651124_2230_4)">
    <rect width="601.476" height="89.6906" x="2.4594" y="-1.1847" fill="url(#linear-gradient-ele1694491651124_2230_4)"></rect>
  </g>
</svg>