<svg width="199.00568494681852" height="34.203688107961064" viewBox="-0.5298774169255758 -3.984677416925576 585.7259521484375 100.67042953761589"
  xmlns="http://www.w3.org/2000/svg"
  xmlns:xlink="http://www.w3.org/1999/xlink" style="position: absolute; display: block; left: -0.180031px; top: -1.35383px; transform: scale(1, 1); transform-origin: 0px 0px;">
  <defs>
    <filter id="shadow-00012.96653385075601335.13818735188236306" x="-875.6223943719002" y="-145.8674569545415" width="2342.90380859375" height="402.68171815046355" filterUnits="userSpaceOnUse">
      <feColorMatrix values="0 0 0 0 0   0 0 0 0 0   0 0 0 0 0  0 0 0 1 0" type="matrix" in="SourceAlpha" result="matrix" color-interpolation-filters="sRGB"></feColorMatrix>
      <feOffset dx="2.9665338507560133" dy="5.138187351882363" in="matrix" result="offset"></feOffset>
      <feGaussianBlur stdDeviation="0" in="offset" result="blur"></feGaussianBlur>
      <feMerge>
        <feMergeNode in="blur"></feMergeNode>
        <feMergeNode in="SourceGraphic"></feMergeNode>
      </feMerge>
    </filter>
    <mask id="mask-ele1694491651124_2230_4">
      <path d=" M 38.1324 22.6382 L 41.456 9.7969 L 58.3332 9.7969 L 60.8734 -0.0176 L 75.641 -0.0176 L 73.1008 9.7969 L 90.3449 9.7969 L 87.0213 22.6382 L 81.6096 22.6382 C 80.1003 25.6346 78.0917 28.906 75.5839 32.4527 C 73.0761 35.9994 70.0711 39.5766 66.5691 43.1844 C 68.3072 45.447 70.1845 47.526 72.201 49.4217 C 74.2945 51.2561 76.4502 52.9683 78.6681 54.5582 L 67.7951 65.3817 C 65.6066 63.9141 63.3128 62.263 60.9136 60.4286 C 58.5913 58.5329 56.3709 56.3621 54.2522 53.9161 C 51.3746 56.0564 48.2762 58.1049 44.9568 60.0617 C 41.6375 62.0184 38.1516 63.7918 34.4992 65.3817 L 29.6497 53.641 C 35.7135 50.767 41.6684 47.2509 47.5142 43.0927 C 46.3466 40.2798 45.4337 37.1918 44.7754 33.8286 C 44.1172 30.4654 43.7984 26.7352 43.8193 22.6382 L 38.1324 22.6382 M 2.3365 69.5092 L 12.2394 62.0796 L 14.3523 53.9161 L 10.0412 53.9161 L 13.531 40.4327 L 30.9586 40.4327 L 26.9465 55.9341 C 26.4401 57.8909 26.3469 59.7865 26.6671 61.621 C 27.003 63.3943 27.9379 64.8619 29.4717 66.0237 C 31.0213 67.1244 33.3554 67.6748 36.474 67.6748 L 77.6581 67.6748 L 74.287 80.6996 L 28.8836 80.6996 C 25.3981 80.6996 22.6054 80.1492 20.5054 79.0485 C 18.4055 77.9479 16.8987 76.3274 15.985 74.1872 L 7.7698 80.0575 L 2.3365 69.5092 M 20.1825 16.8596 L 23.8147 2.8258 L 40.325 2.8258 L 36.6928 16.8596 L 20.1825 16.8596 M 15.3158 35.6631 L 18.948 21.6293 L 35.4584 21.6293 L 31.8261 35.6631 L 15.3158 35.6631 M 57.9448 22.6382 C 58.1901 24.2893 58.5045 25.9097 58.888 27.4996 C 59.2872 29.0283 59.7556 30.5265 60.293 31.9941 C 61.7282 30.4654 63.0717 28.9366 64.3234 27.4079 C 65.591 25.818 66.7057 24.2281 67.6675 22.6382 L 57.9448 22.6382 Z M 93.4464 48.1375 L 96.3427 36.9472 L 160.6413 36.9472 L 157.745 48.1375 L 134.0802 48.1375 L 132.7745 53.1824 L 148.551 53.1824 L 145.7972 63.8223 L 130.0207 63.8223 L 128.7387 68.7754 L 153.1373 68.7754 L 149.9562 81.0665 L 118.8617 81.0665 C 117.0272 81.0665 114.8496 80.9747 112.3288 80.7913 C 109.8238 80.5467 107.3606 79.9046 104.9391 78.8651 C 102.5787 77.8256 100.568 76.1439 98.9068 73.8203 L 93.821 81.0665 L 84.2623 75.4713 L 102.8638 48.963 L 113.3527 53.0906 L 107.6864 61.1623 C 108.3303 62.6911 109.1677 63.9446 110.1986 64.923 C 111.2906 65.9014 112.4075 66.6658 113.5492 67.2161 L 118.4871 48.1375 L 93.4464 48.1375 M 104.9669 34.1037 L 113.3471 1.7251 L 161.7774 1.7251 L 153.3972 34.1037 L 104.9669 34.1037 M 144.5798 14.6582 L 145.3869 11.5396 L 124.6573 11.5396 L 123.8501 14.6582 L 144.5798 14.6582 M 121.3099 24.4727 L 142.0396 24.4727 L 142.8467 21.3541 L 122.1171 21.3541 L 121.3099 24.4727 Z M 187.7368 82.1672 L 201.6484 28.4169 L 217.1498 28.4169 L 203.2382 82.1672 L 187.7368 82.1672 M 246.5662 28.8755 L 234.9831 39.6072 L 213.061 16.2175 L 177.2142 40.2493 L 171.9945 28.8755 L 217.195 -0.1093 L 246.5662 28.8755 Z M 259.0233 12.6403 L 266.0861 12.6403 L 272.3071 -1.1183 L 283.9129 1.1748 L 278.8357 12.6403 L 292.6861 12.6403 C 290.938 18.4495 289.037 24.2587 286.9831 30.0679 C 285.0062 35.8159 282.7473 41.4722 280.2064 47.0368 C 277.6655 52.6014 274.6907 57.952 271.2822 63.0886 L 278.0698 70.8851 L 267.8313 79.9658 L 262.7465 74.0954 C 261.2797 75.7465 259.729 77.3669 258.0945 78.9568 C 256.4759 80.4856 254.7655 82.0143 252.9634 83.543 L 245.0103 75.2879 C 246.9347 73.7591 248.7221 72.1692 250.3724 70.5182 C 252.0997 68.806 253.7205 67.0327 255.2348 65.1982 L 246.9073 55.2003 L 260.4489 25.2065 L 255.771 25.2065 L 259.0233 12.6403 M 283.9703 46.6699 L 287.4601 33.1865 L 298.7421 33.1865 L 300.309 27.1327 L 311.018 14.1079 L 294.6911 14.1079 L 297.896 1.7251 L 334.4939 1.7251 L 315.7186 27.1327 L 314.1518 33.1865 L 326.5345 33.1865 L 323.0447 46.6699 L 310.662 46.6699 L 301.807 80.883 L 283.187 80.883 L 287.4656 76.7554 L 295.2523 46.6699 L 283.9703 46.6699 M 261.4763 51.7148 L 263.3831 53.9161 C 266.1442 49.3911 268.5858 44.6826 270.708 39.7906 C 272.8914 34.8987 274.8528 30.0373 276.5923 25.2065 L 273.1985 25.2065 L 261.4763 51.7148 Z M 337.9201 13.6493 L 340.3178 4.3851 L 365.8171 4.3851 L 367.1228 -0.6597 L 382.7159 -0.6597 L 381.4102 4.3851 L 407.0012 4.3851 L 404.6035 13.6493 L 379.0125 13.6493 L 378.2528 16.5844 L 398.6155 16.5844 L 393.5352 36.2134 L 373.1724 36.2134 L 372.3653 39.332 L 395.8466 39.332 L 393.0691 50.0637 L 397.2884 50.0637 L 394.9619 59.0527 L 390.7425 59.0527 L 387.965 69.7844 L 364.4836 69.7844 L 361.6111 80.883 L 342.8076 80.883 L 346.9201 77.3975 L 348.8905 69.7844 L 325.5009 69.7844 L 327.59 61.7127 L 350.9796 61.7127 L 351.6681 59.0527 L 323.9674 59.0527 L 326.2939 50.0637 L 353.9946 50.0637 L 354.6831 47.4037 L 331.11 47.4037 L 333.1991 39.332 L 356.7722 39.332 L 357.5793 36.2134 L 337.3083 36.2134 L 342.3887 16.5844 L 362.6597 16.5844 L 363.4194 13.6493 L 337.9201 13.6493 M 366.5727 61.7127 L 376.2038 61.7127 L 376.8922 59.0527 L 367.2612 59.0527 L 366.5727 61.7127 M 379.9072 47.4037 L 370.2762 47.4037 L 369.5877 50.0637 L 379.2187 50.0637 L 379.9072 47.4037 M 382.9955 24.8396 L 376.1162 24.8396 L 375.309 27.9582 L 382.1883 27.9582 L 382.9955 24.8396 M 353.6438 24.8396 L 352.8366 27.9582 L 359.7159 27.9582 L 360.5231 24.8396 L 353.6438 24.8396 Z M 416.4621 80.883 L 400.9607 80.883 L 430.3498 3.8348 L 445.8512 3.8348 L 416.4621 80.883 M 457.1648 67.8582 L 464.5945 67.8582 L 472.3068 61.8044 L 467.3689 80.883 L 438.2924 80.883 L 458.2339 3.8348 L 473.7353 3.8348 L 457.1648 67.8582 Z M 497.6141 80.9747 L 518.0542 2.0003 L 540.4349 2.0003 L 527.3185 33.1865 C 527.8955 37.1001 528.0455 40.8913 527.7685 44.5603 C 527.5685 48.1681 527.0571 51.5619 526.2341 54.7417 C 525.2686 58.4718 523.9939 61.7433 522.4098 64.5561 C 520.8256 67.369 519.094 69.5704 517.215 71.1603 C 515.3359 72.7502 513.5097 73.5451 511.7364 73.5451 L 508.9846 73.5451 L 507.0617 80.9747 L 497.6141 80.9747 M 480.4045 66.6658 L 495.9066 6.77 L 515.1687 6.77 L 499.6665 66.6658 L 480.4045 66.6658 M 537.6757 15.8507 L 541.2841 1.9086 L 570.0855 1.9086 L 566.477 15.8507 L 563.6336 15.8507 L 546.7782 80.9747 L 533.7534 80.9747 L 537.3015 76.4803 L 552.9936 15.8507 L 537.6757 15.8507 M 536.2502 18.8775 L 524.5939 63.9141 L 538.9945 63.9141 L 550.6509 18.8775 L 536.2502 18.8775 M 503.3353 19.8865 L 501.3173 19.8865 L 492.6048 53.5492 L 494.6227 53.5492 L 503.3353 19.8865 M 535.8985 53.5492 L 533.2385 53.5492 L 539.4109 29.701 L 542.0709 29.701 L 535.8985 53.5492 M 517.8861 52.2651 C 518.4717 50.0026 518.8612 47.4343 519.0547 44.5603 C 519.3094 41.6863 519.1892 38.8428 518.6943 36.0299 L 512.5456 59.7865 L 513.1877 59.7865 C 514.1049 59.7865 514.9517 59.1138 515.7279 57.7686 C 516.5811 56.3621 517.3005 54.5276 517.8861 52.2651 M 526.9569 14.3831 L 524.2969 14.3831 L 519.5726 32.6362 L 526.9569 14.3831 Z" stroke-linecap="round" stroke-linejoin="round" fill="#ffffff"></path>
    </mask>
    <linearGradient id="linear-gradient-ele1694491651124_2230_4" x1="0" y1="0" x2="0%" y2="100%">
      <stop offset="0" stop-color="rgb(255, 249, 138)"></stop>
      <stop offset="1" stop-color="rgb(255, 249, 138)"></stop>
    </linearGradient>
  </defs>
  <rect width="585.7259521484375" height="100.67042953761589" x="0" y="0" opacity="0"></rect>
  <path d=" M 38.1324 22.6382 L 41.456 9.7969 L 58.3332 9.7969 L 60.8734 -0.0176 L 75.641 -0.0176 L 73.1008 9.7969 L 90.3449 9.7969 L 87.0213 22.6382 L 81.6096 22.6382 C 80.1003 25.6346 78.0917 28.906 75.5839 32.4527 C 73.0761 35.9994 70.0711 39.5766 66.5691 43.1844 C 68.3072 45.447 70.1845 47.526 72.201 49.4217 C 74.2945 51.2561 76.4502 52.9683 78.6681 54.5582 L 67.7951 65.3817 C 65.6066 63.9141 63.3128 62.263 60.9136 60.4286 C 58.5913 58.5329 56.3709 56.3621 54.2522 53.9161 C 51.3746 56.0564 48.2762 58.1049 44.9568 60.0617 C 41.6375 62.0184 38.1516 63.7918 34.4992 65.3817 L 29.6497 53.641 C 35.7135 50.767 41.6684 47.2509 47.5142 43.0927 C 46.3466 40.2798 45.4337 37.1918 44.7754 33.8286 C 44.1172 30.4654 43.7984 26.7352 43.8193 22.6382 L 38.1324 22.6382 M 2.3365 69.5092 L 12.2394 62.0796 L 14.3523 53.9161 L 10.0412 53.9161 L 13.531 40.4327 L 30.9586 40.4327 L 26.9465 55.9341 C 26.4401 57.8909 26.3469 59.7865 26.6671 61.621 C 27.003 63.3943 27.9379 64.8619 29.4717 66.0237 C 31.0213 67.1244 33.3554 67.6748 36.474 67.6748 L 77.6581 67.6748 L 74.287 80.6996 L 28.8836 80.6996 C 25.3981 80.6996 22.6054 80.1492 20.5054 79.0485 C 18.4055 77.9479 16.8987 76.3274 15.985 74.1872 L 7.7698 80.0575 L 2.3365 69.5092 M 20.1825 16.8596 L 23.8147 2.8258 L 40.325 2.8258 L 36.6928 16.8596 L 20.1825 16.8596 M 15.3158 35.6631 L 18.948 21.6293 L 35.4584 21.6293 L 31.8261 35.6631 L 15.3158 35.6631 M 57.9448 22.6382 C 58.1901 24.2893 58.5045 25.9097 58.888 27.4996 C 59.2872 29.0283 59.7556 30.5265 60.293 31.9941 C 61.7282 30.4654 63.0717 28.9366 64.3234 27.4079 C 65.591 25.818 66.7057 24.2281 67.6675 22.6382 L 57.9448 22.6382 Z M 93.4464 48.1375 L 96.3427 36.9472 L 160.6413 36.9472 L 157.745 48.1375 L 134.0802 48.1375 L 132.7745 53.1824 L 148.551 53.1824 L 145.7972 63.8223 L 130.0207 63.8223 L 128.7387 68.7754 L 153.1373 68.7754 L 149.9562 81.0665 L 118.8617 81.0665 C 117.0272 81.0665 114.8496 80.9747 112.3288 80.7913 C 109.8238 80.5467 107.3606 79.9046 104.9391 78.8651 C 102.5787 77.8256 100.568 76.1439 98.9068 73.8203 L 93.821 81.0665 L 84.2623 75.4713 L 102.8638 48.963 L 113.3527 53.0906 L 107.6864 61.1623 C 108.3303 62.6911 109.1677 63.9446 110.1986 64.923 C 111.2906 65.9014 112.4075 66.6658 113.5492 67.2161 L 118.4871 48.1375 L 93.4464 48.1375 M 104.9669 34.1037 L 113.3471 1.7251 L 161.7774 1.7251 L 153.3972 34.1037 L 104.9669 34.1037 M 144.5798 14.6582 L 145.3869 11.5396 L 124.6573 11.5396 L 123.8501 14.6582 L 144.5798 14.6582 M 121.3099 24.4727 L 142.0396 24.4727 L 142.8467 21.3541 L 122.1171 21.3541 L 121.3099 24.4727 Z M 187.7368 82.1672 L 201.6484 28.4169 L 217.1498 28.4169 L 203.2382 82.1672 L 187.7368 82.1672 M 246.5662 28.8755 L 234.9831 39.6072 L 213.061 16.2175 L 177.2142 40.2493 L 171.9945 28.8755 L 217.195 -0.1093 L 246.5662 28.8755 Z M 259.0233 12.6403 L 266.0861 12.6403 L 272.3071 -1.1183 L 283.9129 1.1748 L 278.8357 12.6403 L 292.6861 12.6403 C 290.938 18.4495 289.037 24.2587 286.9831 30.0679 C 285.0062 35.8159 282.7473 41.4722 280.2064 47.0368 C 277.6655 52.6014 274.6907 57.952 271.2822 63.0886 L 278.0698 70.8851 L 267.8313 79.9658 L 262.7465 74.0954 C 261.2797 75.7465 259.729 77.3669 258.0945 78.9568 C 256.4759 80.4856 254.7655 82.0143 252.9634 83.543 L 245.0103 75.2879 C 246.9347 73.7591 248.7221 72.1692 250.3724 70.5182 C 252.0997 68.806 253.7205 67.0327 255.2348 65.1982 L 246.9073 55.2003 L 260.4489 25.2065 L 255.771 25.2065 L 259.0233 12.6403 M 283.9703 46.6699 L 287.4601 33.1865 L 298.7421 33.1865 L 300.309 27.1327 L 311.018 14.1079 L 294.6911 14.1079 L 297.896 1.7251 L 334.4939 1.7251 L 315.7186 27.1327 L 314.1518 33.1865 L 326.5345 33.1865 L 323.0447 46.6699 L 310.662 46.6699 L 301.807 80.883 L 283.187 80.883 L 287.4656 76.7554 L 295.2523 46.6699 L 283.9703 46.6699 M 261.4763 51.7148 L 263.3831 53.9161 C 266.1442 49.3911 268.5858 44.6826 270.708 39.7906 C 272.8914 34.8987 274.8528 30.0373 276.5923 25.2065 L 273.1985 25.2065 L 261.4763 51.7148 Z M 337.9201 13.6493 L 340.3178 4.3851 L 365.8171 4.3851 L 367.1228 -0.6597 L 382.7159 -0.6597 L 381.4102 4.3851 L 407.0012 4.3851 L 404.6035 13.6493 L 379.0125 13.6493 L 378.2528 16.5844 L 398.6155 16.5844 L 393.5352 36.2134 L 373.1724 36.2134 L 372.3653 39.332 L 395.8466 39.332 L 393.0691 50.0637 L 397.2884 50.0637 L 394.9619 59.0527 L 390.7425 59.0527 L 387.965 69.7844 L 364.4836 69.7844 L 361.6111 80.883 L 342.8076 80.883 L 346.9201 77.3975 L 348.8905 69.7844 L 325.5009 69.7844 L 327.59 61.7127 L 350.9796 61.7127 L 351.6681 59.0527 L 323.9674 59.0527 L 326.2939 50.0637 L 353.9946 50.0637 L 354.6831 47.4037 L 331.11 47.4037 L 333.1991 39.332 L 356.7722 39.332 L 357.5793 36.2134 L 337.3083 36.2134 L 342.3887 16.5844 L 362.6597 16.5844 L 363.4194 13.6493 L 337.9201 13.6493 M 366.5727 61.7127 L 376.2038 61.7127 L 376.8922 59.0527 L 367.2612 59.0527 L 366.5727 61.7127 M 379.9072 47.4037 L 370.2762 47.4037 L 369.5877 50.0637 L 379.2187 50.0637 L 379.9072 47.4037 M 382.9955 24.8396 L 376.1162 24.8396 L 375.309 27.9582 L 382.1883 27.9582 L 382.9955 24.8396 M 353.6438 24.8396 L 352.8366 27.9582 L 359.7159 27.9582 L 360.5231 24.8396 L 353.6438 24.8396 Z M 416.4621 80.883 L 400.9607 80.883 L 430.3498 3.8348 L 445.8512 3.8348 L 416.4621 80.883 M 457.1648 67.8582 L 464.5945 67.8582 L 472.3068 61.8044 L 467.3689 80.883 L 438.2924 80.883 L 458.2339 3.8348 L 473.7353 3.8348 L 457.1648 67.8582 Z M 497.6141 80.9747 L 518.0542 2.0003 L 540.4349 2.0003 L 527.3185 33.1865 C 527.8955 37.1001 528.0455 40.8913 527.7685 44.5603 C 527.5685 48.1681 527.0571 51.5619 526.2341 54.7417 C 525.2686 58.4718 523.9939 61.7433 522.4098 64.5561 C 520.8256 67.369 519.094 69.5704 517.215 71.1603 C 515.3359 72.7502 513.5097 73.5451 511.7364 73.5451 L 508.9846 73.5451 L 507.0617 80.9747 L 497.6141 80.9747 M 480.4045 66.6658 L 495.9066 6.77 L 515.1687 6.77 L 499.6665 66.6658 L 480.4045 66.6658 M 537.6757 15.8507 L 541.2841 1.9086 L 570.0855 1.9086 L 566.477 15.8507 L 563.6336 15.8507 L 546.7782 80.9747 L 533.7534 80.9747 L 537.3015 76.4803 L 552.9936 15.8507 L 537.6757 15.8507 M 536.2502 18.8775 L 524.5939 63.9141 L 538.9945 63.9141 L 550.6509 18.8775 L 536.2502 18.8775 M 503.3353 19.8865 L 501.3173 19.8865 L 492.6048 53.5492 L 494.6227 53.5492 L 503.3353 19.8865 M 535.8985 53.5492 L 533.2385 53.5492 L 539.4109 29.701 L 542.0709 29.701 L 535.8985 53.5492 M 517.8861 52.2651 C 518.4717 50.0026 518.8612 47.4343 519.0547 44.5603 C 519.3094 41.6863 519.1892 38.8428 518.6943 36.0299 L 512.5456 59.7865 L 513.1877 59.7865 C 514.1049 59.7865 514.9517 59.1138 515.7279 57.7686 C 516.5811 56.3621 517.3005 54.5276 517.8861 52.2651 M 526.9569 14.3831 L 524.2969 14.3831 L 519.5726 32.6362 L 526.9569 14.3831 Z" stroke-linecap="round" stroke-linejoin="round" stroke="#000000" stroke-width="5.732754833851152" fill="#000000"></path>
  <g filter="url(#shadow-00012.96653385075601335.13818735188236306)">
    <path d=" M 38.1324 22.6382 L 41.456 9.7969 L 58.3332 9.7969 L 60.8734 -0.0176 L 75.641 -0.0176 L 73.1008 9.7969 L 90.3449 9.7969 L 87.0213 22.6382 L 81.6096 22.6382 C 80.1003 25.6346 78.0917 28.906 75.5839 32.4527 C 73.0761 35.9994 70.0711 39.5766 66.5691 43.1844 C 68.3072 45.447 70.1845 47.526 72.201 49.4217 C 74.2945 51.2561 76.4502 52.9683 78.6681 54.5582 L 67.7951 65.3817 C 65.6066 63.9141 63.3128 62.263 60.9136 60.4286 C 58.5913 58.5329 56.3709 56.3621 54.2522 53.9161 C 51.3746 56.0564 48.2762 58.1049 44.9568 60.0617 C 41.6375 62.0184 38.1516 63.7918 34.4992 65.3817 L 29.6497 53.641 C 35.7135 50.767 41.6684 47.2509 47.5142 43.0927 C 46.3466 40.2798 45.4337 37.1918 44.7754 33.8286 C 44.1172 30.4654 43.7984 26.7352 43.8193 22.6382 L 38.1324 22.6382 M 2.3365 69.5092 L 12.2394 62.0796 L 14.3523 53.9161 L 10.0412 53.9161 L 13.531 40.4327 L 30.9586 40.4327 L 26.9465 55.9341 C 26.4401 57.8909 26.3469 59.7865 26.6671 61.621 C 27.003 63.3943 27.9379 64.8619 29.4717 66.0237 C 31.0213 67.1244 33.3554 67.6748 36.474 67.6748 L 77.6581 67.6748 L 74.287 80.6996 L 28.8836 80.6996 C 25.3981 80.6996 22.6054 80.1492 20.5054 79.0485 C 18.4055 77.9479 16.8987 76.3274 15.985 74.1872 L 7.7698 80.0575 L 2.3365 69.5092 M 20.1825 16.8596 L 23.8147 2.8258 L 40.325 2.8258 L 36.6928 16.8596 L 20.1825 16.8596 M 15.3158 35.6631 L 18.948 21.6293 L 35.4584 21.6293 L 31.8261 35.6631 L 15.3158 35.6631 M 57.9448 22.6382 C 58.1901 24.2893 58.5045 25.9097 58.888 27.4996 C 59.2872 29.0283 59.7556 30.5265 60.293 31.9941 C 61.7282 30.4654 63.0717 28.9366 64.3234 27.4079 C 65.591 25.818 66.7057 24.2281 67.6675 22.6382 L 57.9448 22.6382 Z M 93.4464 48.1375 L 96.3427 36.9472 L 160.6413 36.9472 L 157.745 48.1375 L 134.0802 48.1375 L 132.7745 53.1824 L 148.551 53.1824 L 145.7972 63.8223 L 130.0207 63.8223 L 128.7387 68.7754 L 153.1373 68.7754 L 149.9562 81.0665 L 118.8617 81.0665 C 117.0272 81.0665 114.8496 80.9747 112.3288 80.7913 C 109.8238 80.5467 107.3606 79.9046 104.9391 78.8651 C 102.5787 77.8256 100.568 76.1439 98.9068 73.8203 L 93.821 81.0665 L 84.2623 75.4713 L 102.8638 48.963 L 113.3527 53.0906 L 107.6864 61.1623 C 108.3303 62.6911 109.1677 63.9446 110.1986 64.923 C 111.2906 65.9014 112.4075 66.6658 113.5492 67.2161 L 118.4871 48.1375 L 93.4464 48.1375 M 104.9669 34.1037 L 113.3471 1.7251 L 161.7774 1.7251 L 153.3972 34.1037 L 104.9669 34.1037 M 144.5798 14.6582 L 145.3869 11.5396 L 124.6573 11.5396 L 123.8501 14.6582 L 144.5798 14.6582 M 121.3099 24.4727 L 142.0396 24.4727 L 142.8467 21.3541 L 122.1171 21.3541 L 121.3099 24.4727 Z M 187.7368 82.1672 L 201.6484 28.4169 L 217.1498 28.4169 L 203.2382 82.1672 L 187.7368 82.1672 M 246.5662 28.8755 L 234.9831 39.6072 L 213.061 16.2175 L 177.2142 40.2493 L 171.9945 28.8755 L 217.195 -0.1093 L 246.5662 28.8755 Z M 259.0233 12.6403 L 266.0861 12.6403 L 272.3071 -1.1183 L 283.9129 1.1748 L 278.8357 12.6403 L 292.6861 12.6403 C 290.938 18.4495 289.037 24.2587 286.9831 30.0679 C 285.0062 35.8159 282.7473 41.4722 280.2064 47.0368 C 277.6655 52.6014 274.6907 57.952 271.2822 63.0886 L 278.0698 70.8851 L 267.8313 79.9658 L 262.7465 74.0954 C 261.2797 75.7465 259.729 77.3669 258.0945 78.9568 C 256.4759 80.4856 254.7655 82.0143 252.9634 83.543 L 245.0103 75.2879 C 246.9347 73.7591 248.7221 72.1692 250.3724 70.5182 C 252.0997 68.806 253.7205 67.0327 255.2348 65.1982 L 246.9073 55.2003 L 260.4489 25.2065 L 255.771 25.2065 L 259.0233 12.6403 M 283.9703 46.6699 L 287.4601 33.1865 L 298.7421 33.1865 L 300.309 27.1327 L 311.018 14.1079 L 294.6911 14.1079 L 297.896 1.7251 L 334.4939 1.7251 L 315.7186 27.1327 L 314.1518 33.1865 L 326.5345 33.1865 L 323.0447 46.6699 L 310.662 46.6699 L 301.807 80.883 L 283.187 80.883 L 287.4656 76.7554 L 295.2523 46.6699 L 283.9703 46.6699 M 261.4763 51.7148 L 263.3831 53.9161 C 266.1442 49.3911 268.5858 44.6826 270.708 39.7906 C 272.8914 34.8987 274.8528 30.0373 276.5923 25.2065 L 273.1985 25.2065 L 261.4763 51.7148 Z M 337.9201 13.6493 L 340.3178 4.3851 L 365.8171 4.3851 L 367.1228 -0.6597 L 382.7159 -0.6597 L 381.4102 4.3851 L 407.0012 4.3851 L 404.6035 13.6493 L 379.0125 13.6493 L 378.2528 16.5844 L 398.6155 16.5844 L 393.5352 36.2134 L 373.1724 36.2134 L 372.3653 39.332 L 395.8466 39.332 L 393.0691 50.0637 L 397.2884 50.0637 L 394.9619 59.0527 L 390.7425 59.0527 L 387.965 69.7844 L 364.4836 69.7844 L 361.6111 80.883 L 342.8076 80.883 L 346.9201 77.3975 L 348.8905 69.7844 L 325.5009 69.7844 L 327.59 61.7127 L 350.9796 61.7127 L 351.6681 59.0527 L 323.9674 59.0527 L 326.2939 50.0637 L 353.9946 50.0637 L 354.6831 47.4037 L 331.11 47.4037 L 333.1991 39.332 L 356.7722 39.332 L 357.5793 36.2134 L 337.3083 36.2134 L 342.3887 16.5844 L 362.6597 16.5844 L 363.4194 13.6493 L 337.9201 13.6493 M 366.5727 61.7127 L 376.2038 61.7127 L 376.8922 59.0527 L 367.2612 59.0527 L 366.5727 61.7127 M 379.9072 47.4037 L 370.2762 47.4037 L 369.5877 50.0637 L 379.2187 50.0637 L 379.9072 47.4037 M 382.9955 24.8396 L 376.1162 24.8396 L 375.309 27.9582 L 382.1883 27.9582 L 382.9955 24.8396 M 353.6438 24.8396 L 352.8366 27.9582 L 359.7159 27.9582 L 360.5231 24.8396 L 353.6438 24.8396 Z M 416.4621 80.883 L 400.9607 80.883 L 430.3498 3.8348 L 445.8512 3.8348 L 416.4621 80.883 M 457.1648 67.8582 L 464.5945 67.8582 L 472.3068 61.8044 L 467.3689 80.883 L 438.2924 80.883 L 458.2339 3.8348 L 473.7353 3.8348 L 457.1648 67.8582 Z M 497.6141 80.9747 L 518.0542 2.0003 L 540.4349 2.0003 L 527.3185 33.1865 C 527.8955 37.1001 528.0455 40.8913 527.7685 44.5603 C 527.5685 48.1681 527.0571 51.5619 526.2341 54.7417 C 525.2686 58.4718 523.9939 61.7433 522.4098 64.5561 C 520.8256 67.369 519.094 69.5704 517.215 71.1603 C 515.3359 72.7502 513.5097 73.5451 511.7364 73.5451 L 508.9846 73.5451 L 507.0617 80.9747 L 497.6141 80.9747 M 480.4045 66.6658 L 495.9066 6.77 L 515.1687 6.77 L 499.6665 66.6658 L 480.4045 66.6658 M 537.6757 15.8507 L 541.2841 1.9086 L 570.0855 1.9086 L 566.477 15.8507 L 563.6336 15.8507 L 546.7782 80.9747 L 533.7534 80.9747 L 537.3015 76.4803 L 552.9936 15.8507 L 537.6757 15.8507 M 536.2502 18.8775 L 524.5939 63.9141 L 538.9945 63.9141 L 550.6509 18.8775 L 536.2502 18.8775 M 503.3353 19.8865 L 501.3173 19.8865 L 492.6048 53.5492 L 494.6227 53.5492 L 503.3353 19.8865 M 535.8985 53.5492 L 533.2385 53.5492 L 539.4109 29.701 L 542.0709 29.701 L 535.8985 53.5492 M 517.8861 52.2651 C 518.4717 50.0026 518.8612 47.4343 519.0547 44.5603 C 519.3094 41.6863 519.1892 38.8428 518.6943 36.0299 L 512.5456 59.7865 L 513.1877 59.7865 C 514.1049 59.7865 514.9517 59.1138 515.7279 57.7686 C 516.5811 56.3621 517.3005 54.5276 517.8861 52.2651 M 526.9569 14.3831 L 524.2969 14.3831 L 519.5726 32.6362 L 526.9569 14.3831 Z" stroke-linecap="round" stroke-linejoin="round" stroke-width="5.732754833851152" stroke="#ffffff" fill="#ffffff"></path>
  </g>
  <path d=" M 38.1324 22.6382 L 41.456 9.7969 L 58.3332 9.7969 L 60.8734 -0.0176 L 75.641 -0.0176 L 73.1008 9.7969 L 90.3449 9.7969 L 87.0213 22.6382 L 81.6096 22.6382 C 80.1003 25.6346 78.0917 28.906 75.5839 32.4527 C 73.0761 35.9994 70.0711 39.5766 66.5691 43.1844 C 68.3072 45.447 70.1845 47.526 72.201 49.4217 C 74.2945 51.2561 76.4502 52.9683 78.6681 54.5582 L 67.7951 65.3817 C 65.6066 63.9141 63.3128 62.263 60.9136 60.4286 C 58.5913 58.5329 56.3709 56.3621 54.2522 53.9161 C 51.3746 56.0564 48.2762 58.1049 44.9568 60.0617 C 41.6375 62.0184 38.1516 63.7918 34.4992 65.3817 L 29.6497 53.641 C 35.7135 50.767 41.6684 47.2509 47.5142 43.0927 C 46.3466 40.2798 45.4337 37.1918 44.7754 33.8286 C 44.1172 30.4654 43.7984 26.7352 43.8193 22.6382 L 38.1324 22.6382 M 2.3365 69.5092 L 12.2394 62.0796 L 14.3523 53.9161 L 10.0412 53.9161 L 13.531 40.4327 L 30.9586 40.4327 L 26.9465 55.9341 C 26.4401 57.8909 26.3469 59.7865 26.6671 61.621 C 27.003 63.3943 27.9379 64.8619 29.4717 66.0237 C 31.0213 67.1244 33.3554 67.6748 36.474 67.6748 L 77.6581 67.6748 L 74.287 80.6996 L 28.8836 80.6996 C 25.3981 80.6996 22.6054 80.1492 20.5054 79.0485 C 18.4055 77.9479 16.8987 76.3274 15.985 74.1872 L 7.7698 80.0575 L 2.3365 69.5092 M 20.1825 16.8596 L 23.8147 2.8258 L 40.325 2.8258 L 36.6928 16.8596 L 20.1825 16.8596 M 15.3158 35.6631 L 18.948 21.6293 L 35.4584 21.6293 L 31.8261 35.6631 L 15.3158 35.6631 M 57.9448 22.6382 C 58.1901 24.2893 58.5045 25.9097 58.888 27.4996 C 59.2872 29.0283 59.7556 30.5265 60.293 31.9941 C 61.7282 30.4654 63.0717 28.9366 64.3234 27.4079 C 65.591 25.818 66.7057 24.2281 67.6675 22.6382 L 57.9448 22.6382 Z M 93.4464 48.1375 L 96.3427 36.9472 L 160.6413 36.9472 L 157.745 48.1375 L 134.0802 48.1375 L 132.7745 53.1824 L 148.551 53.1824 L 145.7972 63.8223 L 130.0207 63.8223 L 128.7387 68.7754 L 153.1373 68.7754 L 149.9562 81.0665 L 118.8617 81.0665 C 117.0272 81.0665 114.8496 80.9747 112.3288 80.7913 C 109.8238 80.5467 107.3606 79.9046 104.9391 78.8651 C 102.5787 77.8256 100.568 76.1439 98.9068 73.8203 L 93.821 81.0665 L 84.2623 75.4713 L 102.8638 48.963 L 113.3527 53.0906 L 107.6864 61.1623 C 108.3303 62.6911 109.1677 63.9446 110.1986 64.923 C 111.2906 65.9014 112.4075 66.6658 113.5492 67.2161 L 118.4871 48.1375 L 93.4464 48.1375 M 104.9669 34.1037 L 113.3471 1.7251 L 161.7774 1.7251 L 153.3972 34.1037 L 104.9669 34.1037 M 144.5798 14.6582 L 145.3869 11.5396 L 124.6573 11.5396 L 123.8501 14.6582 L 144.5798 14.6582 M 121.3099 24.4727 L 142.0396 24.4727 L 142.8467 21.3541 L 122.1171 21.3541 L 121.3099 24.4727 Z M 187.7368 82.1672 L 201.6484 28.4169 L 217.1498 28.4169 L 203.2382 82.1672 L 187.7368 82.1672 M 246.5662 28.8755 L 234.9831 39.6072 L 213.061 16.2175 L 177.2142 40.2493 L 171.9945 28.8755 L 217.195 -0.1093 L 246.5662 28.8755 Z M 259.0233 12.6403 L 266.0861 12.6403 L 272.3071 -1.1183 L 283.9129 1.1748 L 278.8357 12.6403 L 292.6861 12.6403 C 290.938 18.4495 289.037 24.2587 286.9831 30.0679 C 285.0062 35.8159 282.7473 41.4722 280.2064 47.0368 C 277.6655 52.6014 274.6907 57.952 271.2822 63.0886 L 278.0698 70.8851 L 267.8313 79.9658 L 262.7465 74.0954 C 261.2797 75.7465 259.729 77.3669 258.0945 78.9568 C 256.4759 80.4856 254.7655 82.0143 252.9634 83.543 L 245.0103 75.2879 C 246.9347 73.7591 248.7221 72.1692 250.3724 70.5182 C 252.0997 68.806 253.7205 67.0327 255.2348 65.1982 L 246.9073 55.2003 L 260.4489 25.2065 L 255.771 25.2065 L 259.0233 12.6403 M 283.9703 46.6699 L 287.4601 33.1865 L 298.7421 33.1865 L 300.309 27.1327 L 311.018 14.1079 L 294.6911 14.1079 L 297.896 1.7251 L 334.4939 1.7251 L 315.7186 27.1327 L 314.1518 33.1865 L 326.5345 33.1865 L 323.0447 46.6699 L 310.662 46.6699 L 301.807 80.883 L 283.187 80.883 L 287.4656 76.7554 L 295.2523 46.6699 L 283.9703 46.6699 M 261.4763 51.7148 L 263.3831 53.9161 C 266.1442 49.3911 268.5858 44.6826 270.708 39.7906 C 272.8914 34.8987 274.8528 30.0373 276.5923 25.2065 L 273.1985 25.2065 L 261.4763 51.7148 Z M 337.9201 13.6493 L 340.3178 4.3851 L 365.8171 4.3851 L 367.1228 -0.6597 L 382.7159 -0.6597 L 381.4102 4.3851 L 407.0012 4.3851 L 404.6035 13.6493 L 379.0125 13.6493 L 378.2528 16.5844 L 398.6155 16.5844 L 393.5352 36.2134 L 373.1724 36.2134 L 372.3653 39.332 L 395.8466 39.332 L 393.0691 50.0637 L 397.2884 50.0637 L 394.9619 59.0527 L 390.7425 59.0527 L 387.965 69.7844 L 364.4836 69.7844 L 361.6111 80.883 L 342.8076 80.883 L 346.9201 77.3975 L 348.8905 69.7844 L 325.5009 69.7844 L 327.59 61.7127 L 350.9796 61.7127 L 351.6681 59.0527 L 323.9674 59.0527 L 326.2939 50.0637 L 353.9946 50.0637 L 354.6831 47.4037 L 331.11 47.4037 L 333.1991 39.332 L 356.7722 39.332 L 357.5793 36.2134 L 337.3083 36.2134 L 342.3887 16.5844 L 362.6597 16.5844 L 363.4194 13.6493 L 337.9201 13.6493 M 366.5727 61.7127 L 376.2038 61.7127 L 376.8922 59.0527 L 367.2612 59.0527 L 366.5727 61.7127 M 379.9072 47.4037 L 370.2762 47.4037 L 369.5877 50.0637 L 379.2187 50.0637 L 379.9072 47.4037 M 382.9955 24.8396 L 376.1162 24.8396 L 375.309 27.9582 L 382.1883 27.9582 L 382.9955 24.8396 M 353.6438 24.8396 L 352.8366 27.9582 L 359.7159 27.9582 L 360.5231 24.8396 L 353.6438 24.8396 Z M 416.4621 80.883 L 400.9607 80.883 L 430.3498 3.8348 L 445.8512 3.8348 L 416.4621 80.883 M 457.1648 67.8582 L 464.5945 67.8582 L 472.3068 61.8044 L 467.3689 80.883 L 438.2924 80.883 L 458.2339 3.8348 L 473.7353 3.8348 L 457.1648 67.8582 Z M 497.6141 80.9747 L 518.0542 2.0003 L 540.4349 2.0003 L 527.3185 33.1865 C 527.8955 37.1001 528.0455 40.8913 527.7685 44.5603 C 527.5685 48.1681 527.0571 51.5619 526.2341 54.7417 C 525.2686 58.4718 523.9939 61.7433 522.4098 64.5561 C 520.8256 67.369 519.094 69.5704 517.215 71.1603 C 515.3359 72.7502 513.5097 73.5451 511.7364 73.5451 L 508.9846 73.5451 L 507.0617 80.9747 L 497.6141 80.9747 M 480.4045 66.6658 L 495.9066 6.77 L 515.1687 6.77 L 499.6665 66.6658 L 480.4045 66.6658 M 537.6757 15.8507 L 541.2841 1.9086 L 570.0855 1.9086 L 566.477 15.8507 L 563.6336 15.8507 L 546.7782 80.9747 L 533.7534 80.9747 L 537.3015 76.4803 L 552.9936 15.8507 L 537.6757 15.8507 M 536.2502 18.8775 L 524.5939 63.9141 L 538.9945 63.9141 L 550.6509 18.8775 L 536.2502 18.8775 M 503.3353 19.8865 L 501.3173 19.8865 L 492.6048 53.5492 L 494.6227 53.5492 L 503.3353 19.8865 M 535.8985 53.5492 L 533.2385 53.5492 L 539.4109 29.701 L 542.0709 29.701 L 535.8985 53.5492 M 517.8861 52.2651 C 518.4717 50.0026 518.8612 47.4343 519.0547 44.5603 C 519.3094 41.6863 519.1892 38.8428 518.6943 36.0299 L 512.5456 59.7865 L 513.1877 59.7865 C 514.1049 59.7865 514.9517 59.1138 515.7279 57.7686 C 516.5811 56.3621 517.3005 54.5276 517.8861 52.2651 M 526.9569 14.3831 L 524.2969 14.3831 L 519.5726 32.6362 L 526.9569 14.3831 Z" stroke-linecap="round" stroke-linejoin="round" stroke="#000000" stroke-width="5.732754833851152" fill="#000000"></path>
  <g mask="url(#mask-ele1694491651124_2230_4)">
    <rect width="567.749" height="84.66130000000001" x="2.3365" y="-1.1183" fill="url(#linear-gradient-ele1694491651124_2230_4)"></rect>
  </g>
</svg>