<svg width="122.58425770954914" height="33.95957303334431" viewBox="0 -3.7278255764214245 360.7976379394531 99.95193481445312"
  xmlns="http://www.w3.org/2000/svg"
  xmlns:xlink="http://www.w3.org/1999/xlink" style="position: absolute; display: block; left: 0px; top: -1.26656px; transform: scale(1, 1); transform-origin: 0px 0px;">
  <defs>
    <filter id="shadow-0121811.87193299035944043.2422830476668913073" x="-539.3245239188202" y="-146.6856191740128" width="1443.1905517578125" height="399.8077392578125" filterUnits="userSpaceOnUse">
      <feColorMatrix values="0 0 0 0 0   0 0 0 0 0.4745098039215686   0 0 0 0 0.03137254901960784  0 0 0 1 0" type="matrix" in="SourceAlpha" result="matrix" color-interpolation-filters="sRGB"></feColorMatrix>
      <feOffset dx="1.8719329903594404" dy="3.2422830476668913" in="matrix" result="offset"></feOffset>
      <feGaussianBlur stdDeviation="0" in="offset" result="blur"></feGaussianBlur>
      <feMerge>
        <feMergeNode in="blur"></feMergeNode>
        <feMergeNode in="SourceGraphic"></feMergeNode>
      </feMerge>
    </filter>
    <mask id="mask-ele1702047986936_7130_3">
      <path d=" M 46.2779 85.5121 L 64.5748 14.8183 L 61.2024 15.1093 C 58.8835 23.3197 56.023 33.3726 52.621 45.2681 C 49.2189 57.1635 44.824 70.7721 39.4362 86.0939 L 25.8233 84.7363 C 28.6169 77.6896 31.0576 71.257 33.1453 65.4386 C 35.2331 59.6201 37.0995 54.1573 38.7446 49.05 C 40.4065 43.8781 41.9535 38.9001 43.3856 34.1161 C 44.8177 29.3321 46.202 24.4834 47.5383 19.57 C 48.9392 14.6567 50.4395 9.4848 52.0389 4.0543 L 95.9771 0.2723 L 94.8043 12.297 L 91.4319 12.5879 C 90.8349 16.1436 90.1603 20.2489 89.4081 24.9036 C 88.7373 29.4937 88.0151 34.407 87.2417 39.6436 C 86.4849 44.8155 85.7521 50.0198 85.0433 55.2563 C 84.3344 60.4929 83.7165 65.5032 83.1894 70.2872 C 82.727 75.0713 82.3662 79.3381 82.1068 83.0878 L 68.1905 85.9 C 68.5761 80.6634 69.1686 74.8773 69.9679 68.5417 C 70.784 62.1415 71.6982 55.6119 72.7105 48.9531 C 73.7874 42.2942 74.8537 35.9263 75.9094 29.8492 C 76.9818 23.7076 77.9587 18.3094 78.8402 13.6547 L 77.1666 13.7516 L 58.5936 85.5121 L 46.2779 85.5121 M 18.8992 28.6856 L 22.4381 15.0123 L 26.317 15.0123 L 30.383 -0.6974 L 45.22 -0.6974 L 41.154 15.0123 L 46.2936 15.0123 L 42.7547 28.6856 L 37.6151 28.6856 L 34.4526 40.9042 L 38.9488 39.6436 L 35.184 54.1896 L 30.6879 55.4503 L 22.9324 85.4151 L 4.3134 85.4151 L 9.1998 81.1483 L 14.7215 59.8141 L 9.3023 61.2687 L 13.0671 46.7227 L 18.4862 45.2681 L 22.7781 28.6856 L 18.8992 28.6856 Z M 135.3315 59.9111 L 145.29 16.5639 L 158.7693 16.5639 L 149.1988 59.9111 L 135.3315 59.9111 M 108.0957 83.0878 L 129.3041 1.1451 L 144.9168 1.1451 L 127.7494 67.475 L 153.8353 67.475 L 158.8151 63.5961 L 153.7703 83.0878 L 108.0957 83.0878 M 92.5217 64.9537 L 108.246 16.5639 L 121.4345 16.5639 L 106.4859 64.9537 L 92.5217 64.9537 M 176.5155 16.5639 L 168.3026 59.9111 L 154.3384 59.9111 L 163.2301 16.5639 L 176.5155 16.5639 Z M 228.8994 0.7572 L 243.1648 -0.4065 C 242.8636 0.7572 242.6031 1.8885 242.3833 2.9876 C 242.1635 4.0866 241.9844 5.1533 241.846 6.1877 L 265.5075 6.1877 L 262.1945 18.9882 L 259.7702 18.9882 L 261.6709 28.8795 L 248.9263 33.5342 C 250.7996 35.5384 252.9505 37.2192 255.3791 38.5769 L 260.2928 39.4496 L 242.7155 47.7894 L 254.2554 47.7894 L 250.7667 61.2687 L 242.6209 61.2687 L 239.7345 72.4207 L 245.6499 72.4207 L 250.1883 69.1236 L 246.298 84.1545 L 222.3455 84.1545 L 228.2688 61.2687 L 223.711 61.2687 C 222.4987 64.9537 221.0433 68.7033 219.345 72.5176 C 217.7113 76.3319 215.6946 80.5018 213.295 85.0272 L 199.0787 83.3787 C 201.0858 79.3704 202.8979 75.4915 204.5149 71.7419 C 206.2132 67.9276 207.634 64.4365 208.7771 61.2687 L 203.0556 61.2687 L 206.5444 47.7894 L 242.7155 47.7894 C 238.5004 45.5913 235.074 42.8437 232.4363 39.5466 L 211.5436 47.2075 L 209.3759 34.601 L 227.2487 28.4916 C 226.9224 27.0047 226.6691 25.4854 226.4889 23.9339 C 226.3733 22.3823 226.3151 20.7337 226.3143 18.9882 L 214.6775 18.9882 L 217.9905 6.1877 L 227.6878 6.1877 C 227.8574 5.2826 228.027 4.3775 228.1966 3.4724 C 228.4309 2.5673 228.6652 1.6623 228.8994 0.7572 M 183.9483 28.6856 L 187.3868 15.4002 L 193.3022 15.4002 L 197.2176 0.2723 L 212.1515 0.2723 L 208.2361 15.4002 L 212.8908 15.4002 L 209.4523 28.6856 L 204.7976 28.6856 L 201.5348 41.2921 L 207.5357 39.8375 L 203.6705 54.7715 L 197.6696 56.2261 L 190.0898 85.5121 L 171.7618 85.5121 L 176.3104 81.0513 L 181.7317 60.105 L 174.4918 61.8505 L 178.357 46.9166 L 185.5969 45.1711 L 189.8637 28.6856 L 183.9483 28.6856 M 241.8301 18.9882 C 241.9959 20.3458 242.3149 21.7358 242.7873 23.1581 L 254.7276 18.9882 L 241.8301 18.9882 Z M 269.3389 85.803 L 254.7781 84.7363 L 259.9005 70.1903 C 260.2808 69.2205 260.844 67.669 261.5901 65.5355 C 262.3529 63.3375 263.1253 60.9778 263.9072 58.4565 C 264.7537 55.9352 265.5177 53.6078 266.1991 51.4744 C 266.8806 49.3409 267.3468 47.7894 267.5978 46.8196 L 279.2436 1.8239 L 312.9904 1.8239 L 291.3303 85.5121 L 274.2629 85.5121 L 278.0859 80.8574 L 283.0053 61.8505 L 277.6717 61.8505 C 276.7727 64.8244 275.8175 67.7659 274.8059 70.6751 C 273.859 73.5843 272.9885 76.0733 272.1945 78.1421 L 269.3389 85.803 M 313.0543 16.5639 L 316.8693 1.8239 L 350.3252 1.8239 L 346.5102 16.5639 L 337.3947 16.5639 L 332.9523 33.7282 L 344.783 33.7282 L 341.0684 48.0803 L 329.2377 48.0803 L 319.5496 85.5121 L 303.8399 85.5121 L 313.5279 48.0803 L 302.9578 48.0803 L 306.6724 33.7282 L 317.2425 33.7282 L 321.685 16.5639 L 313.0543 16.5639 M 284.008 38.8678 L 281.6236 48.0803 L 286.5693 48.0803 L 288.9536 38.8678 L 284.008 38.8678 M 289.8058 16.4669 L 287.4465 25.5824 L 292.3922 25.5824 L 294.7514 16.4669 L 289.8058 16.4669 Z" stroke-linecap="round" stroke-linejoin="round" fill="#ffffff"></path>
    </mask>
    <linearGradient id="linear-gradient-ele1702047986936_7130_3" x1="0" y1="0" x2="0%" y2="100%">
      <stop offset="0" stop-color="rgb(255, 0, 0)"></stop>
      <stop offset="1" stop-color="rgb(255, 0, 0)"></stop>
    </linearGradient>
  </defs>
  <rect width="360.7976379394531" height="99.95193481445312" x="0" y="0" opacity="0"></rect>
  <path d=" M 46.2779 85.5121 L 64.5748 14.8183 L 61.2024 15.1093 C 58.8835 23.3197 56.023 33.3726 52.621 45.2681 C 49.2189 57.1635 44.824 70.7721 39.4362 86.0939 L 25.8233 84.7363 C 28.6169 77.6896 31.0576 71.257 33.1453 65.4386 C 35.2331 59.6201 37.0995 54.1573 38.7446 49.05 C 40.4065 43.8781 41.9535 38.9001 43.3856 34.1161 C 44.8177 29.3321 46.202 24.4834 47.5383 19.57 C 48.9392 14.6567 50.4395 9.4848 52.0389 4.0543 L 95.9771 0.2723 L 94.8043 12.297 L 91.4319 12.5879 C 90.8349 16.1436 90.1603 20.2489 89.4081 24.9036 C 88.7373 29.4937 88.0151 34.407 87.2417 39.6436 C 86.4849 44.8155 85.7521 50.0198 85.0433 55.2563 C 84.3344 60.4929 83.7165 65.5032 83.1894 70.2872 C 82.727 75.0713 82.3662 79.3381 82.1068 83.0878 L 68.1905 85.9 C 68.5761 80.6634 69.1686 74.8773 69.9679 68.5417 C 70.784 62.1415 71.6982 55.6119 72.7105 48.9531 C 73.7874 42.2942 74.8537 35.9263 75.9094 29.8492 C 76.9818 23.7076 77.9587 18.3094 78.8402 13.6547 L 77.1666 13.7516 L 58.5936 85.5121 L 46.2779 85.5121 M 18.8992 28.6856 L 22.4381 15.0123 L 26.317 15.0123 L 30.383 -0.6974 L 45.22 -0.6974 L 41.154 15.0123 L 46.2936 15.0123 L 42.7547 28.6856 L 37.6151 28.6856 L 34.4526 40.9042 L 38.9488 39.6436 L 35.184 54.1896 L 30.6879 55.4503 L 22.9324 85.4151 L 4.3134 85.4151 L 9.1998 81.1483 L 14.7215 59.8141 L 9.3023 61.2687 L 13.0671 46.7227 L 18.4862 45.2681 L 22.7781 28.6856 L 18.8992 28.6856 Z M 135.3315 59.9111 L 145.29 16.5639 L 158.7693 16.5639 L 149.1988 59.9111 L 135.3315 59.9111 M 108.0957 83.0878 L 129.3041 1.1451 L 144.9168 1.1451 L 127.7494 67.475 L 153.8353 67.475 L 158.8151 63.5961 L 153.7703 83.0878 L 108.0957 83.0878 M 92.5217 64.9537 L 108.246 16.5639 L 121.4345 16.5639 L 106.4859 64.9537 L 92.5217 64.9537 M 176.5155 16.5639 L 168.3026 59.9111 L 154.3384 59.9111 L 163.2301 16.5639 L 176.5155 16.5639 Z M 228.8994 0.7572 L 243.1648 -0.4065 C 242.8636 0.7572 242.6031 1.8885 242.3833 2.9876 C 242.1635 4.0866 241.9844 5.1533 241.846 6.1877 L 265.5075 6.1877 L 262.1945 18.9882 L 259.7702 18.9882 L 261.6709 28.8795 L 248.9263 33.5342 C 250.7996 35.5384 252.9505 37.2192 255.3791 38.5769 L 260.2928 39.4496 L 242.7155 47.7894 L 254.2554 47.7894 L 250.7667 61.2687 L 242.6209 61.2687 L 239.7345 72.4207 L 245.6499 72.4207 L 250.1883 69.1236 L 246.298 84.1545 L 222.3455 84.1545 L 228.2688 61.2687 L 223.711 61.2687 C 222.4987 64.9537 221.0433 68.7033 219.345 72.5176 C 217.7113 76.3319 215.6946 80.5018 213.295 85.0272 L 199.0787 83.3787 C 201.0858 79.3704 202.8979 75.4915 204.5149 71.7419 C 206.2132 67.9276 207.634 64.4365 208.7771 61.2687 L 203.0556 61.2687 L 206.5444 47.7894 L 242.7155 47.7894 C 238.5004 45.5913 235.074 42.8437 232.4363 39.5466 L 211.5436 47.2075 L 209.3759 34.601 L 227.2487 28.4916 C 226.9224 27.0047 226.6691 25.4854 226.4889 23.9339 C 226.3733 22.3823 226.3151 20.7337 226.3143 18.9882 L 214.6775 18.9882 L 217.9905 6.1877 L 227.6878 6.1877 C 227.8574 5.2826 228.027 4.3775 228.1966 3.4724 C 228.4309 2.5673 228.6652 1.6623 228.8994 0.7572 M 183.9483 28.6856 L 187.3868 15.4002 L 193.3022 15.4002 L 197.2176 0.2723 L 212.1515 0.2723 L 208.2361 15.4002 L 212.8908 15.4002 L 209.4523 28.6856 L 204.7976 28.6856 L 201.5348 41.2921 L 207.5357 39.8375 L 203.6705 54.7715 L 197.6696 56.2261 L 190.0898 85.5121 L 171.7618 85.5121 L 176.3104 81.0513 L 181.7317 60.105 L 174.4918 61.8505 L 178.357 46.9166 L 185.5969 45.1711 L 189.8637 28.6856 L 183.9483 28.6856 M 241.8301 18.9882 C 241.9959 20.3458 242.3149 21.7358 242.7873 23.1581 L 254.7276 18.9882 L 241.8301 18.9882 Z M 269.3389 85.803 L 254.7781 84.7363 L 259.9005 70.1903 C 260.2808 69.2205 260.844 67.669 261.5901 65.5355 C 262.3529 63.3375 263.1253 60.9778 263.9072 58.4565 C 264.7537 55.9352 265.5177 53.6078 266.1991 51.4744 C 266.8806 49.3409 267.3468 47.7894 267.5978 46.8196 L 279.2436 1.8239 L 312.9904 1.8239 L 291.3303 85.5121 L 274.2629 85.5121 L 278.0859 80.8574 L 283.0053 61.8505 L 277.6717 61.8505 C 276.7727 64.8244 275.8175 67.7659 274.8059 70.6751 C 273.859 73.5843 272.9885 76.0733 272.1945 78.1421 L 269.3389 85.803 M 313.0543 16.5639 L 316.8693 1.8239 L 350.3252 1.8239 L 346.5102 16.5639 L 337.3947 16.5639 L 332.9523 33.7282 L 344.783 33.7282 L 341.0684 48.0803 L 329.2377 48.0803 L 319.5496 85.5121 L 303.8399 85.5121 L 313.5279 48.0803 L 302.9578 48.0803 L 306.6724 33.7282 L 317.2425 33.7282 L 321.685 16.5639 L 313.0543 16.5639 M 284.008 38.8678 L 281.6236 48.0803 L 286.5693 48.0803 L 288.9536 38.8678 L 284.008 38.8678 M 289.8058 16.4669 L 287.4465 25.5824 L 292.3922 25.5824 L 294.7514 16.4669 L 289.8058 16.4669 Z" stroke-linecap="round" stroke-linejoin="round" stroke="#007908" stroke-width="6.060851152842849" fill="#007908"></path>
  <g filter="url(#shadow-0121811.87193299035944043.2422830476668913073)">
    <path d=" M 46.2779 85.5121 L 64.5748 14.8183 L 61.2024 15.1093 C 58.8835 23.3197 56.023 33.3726 52.621 45.2681 C 49.2189 57.1635 44.824 70.7721 39.4362 86.0939 L 25.8233 84.7363 C 28.6169 77.6896 31.0576 71.257 33.1453 65.4386 C 35.2331 59.6201 37.0995 54.1573 38.7446 49.05 C 40.4065 43.8781 41.9535 38.9001 43.3856 34.1161 C 44.8177 29.3321 46.202 24.4834 47.5383 19.57 C 48.9392 14.6567 50.4395 9.4848 52.0389 4.0543 L 95.9771 0.2723 L 94.8043 12.297 L 91.4319 12.5879 C 90.8349 16.1436 90.1603 20.2489 89.4081 24.9036 C 88.7373 29.4937 88.0151 34.407 87.2417 39.6436 C 86.4849 44.8155 85.7521 50.0198 85.0433 55.2563 C 84.3344 60.4929 83.7165 65.5032 83.1894 70.2872 C 82.727 75.0713 82.3662 79.3381 82.1068 83.0878 L 68.1905 85.9 C 68.5761 80.6634 69.1686 74.8773 69.9679 68.5417 C 70.784 62.1415 71.6982 55.6119 72.7105 48.9531 C 73.7874 42.2942 74.8537 35.9263 75.9094 29.8492 C 76.9818 23.7076 77.9587 18.3094 78.8402 13.6547 L 77.1666 13.7516 L 58.5936 85.5121 L 46.2779 85.5121 M 18.8992 28.6856 L 22.4381 15.0123 L 26.317 15.0123 L 30.383 -0.6974 L 45.22 -0.6974 L 41.154 15.0123 L 46.2936 15.0123 L 42.7547 28.6856 L 37.6151 28.6856 L 34.4526 40.9042 L 38.9488 39.6436 L 35.184 54.1896 L 30.6879 55.4503 L 22.9324 85.4151 L 4.3134 85.4151 L 9.1998 81.1483 L 14.7215 59.8141 L 9.3023 61.2687 L 13.0671 46.7227 L 18.4862 45.2681 L 22.7781 28.6856 L 18.8992 28.6856 Z M 135.3315 59.9111 L 145.29 16.5639 L 158.7693 16.5639 L 149.1988 59.9111 L 135.3315 59.9111 M 108.0957 83.0878 L 129.3041 1.1451 L 144.9168 1.1451 L 127.7494 67.475 L 153.8353 67.475 L 158.8151 63.5961 L 153.7703 83.0878 L 108.0957 83.0878 M 92.5217 64.9537 L 108.246 16.5639 L 121.4345 16.5639 L 106.4859 64.9537 L 92.5217 64.9537 M 176.5155 16.5639 L 168.3026 59.9111 L 154.3384 59.9111 L 163.2301 16.5639 L 176.5155 16.5639 Z M 228.8994 0.7572 L 243.1648 -0.4065 C 242.8636 0.7572 242.6031 1.8885 242.3833 2.9876 C 242.1635 4.0866 241.9844 5.1533 241.846 6.1877 L 265.5075 6.1877 L 262.1945 18.9882 L 259.7702 18.9882 L 261.6709 28.8795 L 248.9263 33.5342 C 250.7996 35.5384 252.9505 37.2192 255.3791 38.5769 L 260.2928 39.4496 L 242.7155 47.7894 L 254.2554 47.7894 L 250.7667 61.2687 L 242.6209 61.2687 L 239.7345 72.4207 L 245.6499 72.4207 L 250.1883 69.1236 L 246.298 84.1545 L 222.3455 84.1545 L 228.2688 61.2687 L 223.711 61.2687 C 222.4987 64.9537 221.0433 68.7033 219.345 72.5176 C 217.7113 76.3319 215.6946 80.5018 213.295 85.0272 L 199.0787 83.3787 C 201.0858 79.3704 202.8979 75.4915 204.5149 71.7419 C 206.2132 67.9276 207.634 64.4365 208.7771 61.2687 L 203.0556 61.2687 L 206.5444 47.7894 L 242.7155 47.7894 C 238.5004 45.5913 235.074 42.8437 232.4363 39.5466 L 211.5436 47.2075 L 209.3759 34.601 L 227.2487 28.4916 C 226.9224 27.0047 226.6691 25.4854 226.4889 23.9339 C 226.3733 22.3823 226.3151 20.7337 226.3143 18.9882 L 214.6775 18.9882 L 217.9905 6.1877 L 227.6878 6.1877 C 227.8574 5.2826 228.027 4.3775 228.1966 3.4724 C 228.4309 2.5673 228.6652 1.6623 228.8994 0.7572 M 183.9483 28.6856 L 187.3868 15.4002 L 193.3022 15.4002 L 197.2176 0.2723 L 212.1515 0.2723 L 208.2361 15.4002 L 212.8908 15.4002 L 209.4523 28.6856 L 204.7976 28.6856 L 201.5348 41.2921 L 207.5357 39.8375 L 203.6705 54.7715 L 197.6696 56.2261 L 190.0898 85.5121 L 171.7618 85.5121 L 176.3104 81.0513 L 181.7317 60.105 L 174.4918 61.8505 L 178.357 46.9166 L 185.5969 45.1711 L 189.8637 28.6856 L 183.9483 28.6856 M 241.8301 18.9882 C 241.9959 20.3458 242.3149 21.7358 242.7873 23.1581 L 254.7276 18.9882 L 241.8301 18.9882 Z M 269.3389 85.803 L 254.7781 84.7363 L 259.9005 70.1903 C 260.2808 69.2205 260.844 67.669 261.5901 65.5355 C 262.3529 63.3375 263.1253 60.9778 263.9072 58.4565 C 264.7537 55.9352 265.5177 53.6078 266.1991 51.4744 C 266.8806 49.3409 267.3468 47.7894 267.5978 46.8196 L 279.2436 1.8239 L 312.9904 1.8239 L 291.3303 85.5121 L 274.2629 85.5121 L 278.0859 80.8574 L 283.0053 61.8505 L 277.6717 61.8505 C 276.7727 64.8244 275.8175 67.7659 274.8059 70.6751 C 273.859 73.5843 272.9885 76.0733 272.1945 78.1421 L 269.3389 85.803 M 313.0543 16.5639 L 316.8693 1.8239 L 350.3252 1.8239 L 346.5102 16.5639 L 337.3947 16.5639 L 332.9523 33.7282 L 344.783 33.7282 L 341.0684 48.0803 L 329.2377 48.0803 L 319.5496 85.5121 L 303.8399 85.5121 L 313.5279 48.0803 L 302.9578 48.0803 L 306.6724 33.7282 L 317.2425 33.7282 L 321.685 16.5639 L 313.0543 16.5639 M 284.008 38.8678 L 281.6236 48.0803 L 286.5693 48.0803 L 288.9536 38.8678 L 284.008 38.8678 M 289.8058 16.4669 L 287.4465 25.5824 L 292.3922 25.5824 L 294.7514 16.4669 L 289.8058 16.4669 Z" stroke-linecap="round" stroke-linejoin="round" stroke-width="6.060851152842849" stroke="#ffffff" fill="#ffffff"></path>
  </g>
  <path d=" M 46.2779 85.5121 L 64.5748 14.8183 L 61.2024 15.1093 C 58.8835 23.3197 56.023 33.3726 52.621 45.2681 C 49.2189 57.1635 44.824 70.7721 39.4362 86.0939 L 25.8233 84.7363 C 28.6169 77.6896 31.0576 71.257 33.1453 65.4386 C 35.2331 59.6201 37.0995 54.1573 38.7446 49.05 C 40.4065 43.8781 41.9535 38.9001 43.3856 34.1161 C 44.8177 29.3321 46.202 24.4834 47.5383 19.57 C 48.9392 14.6567 50.4395 9.4848 52.0389 4.0543 L 95.9771 0.2723 L 94.8043 12.297 L 91.4319 12.5879 C 90.8349 16.1436 90.1603 20.2489 89.4081 24.9036 C 88.7373 29.4937 88.0151 34.407 87.2417 39.6436 C 86.4849 44.8155 85.7521 50.0198 85.0433 55.2563 C 84.3344 60.4929 83.7165 65.5032 83.1894 70.2872 C 82.727 75.0713 82.3662 79.3381 82.1068 83.0878 L 68.1905 85.9 C 68.5761 80.6634 69.1686 74.8773 69.9679 68.5417 C 70.784 62.1415 71.6982 55.6119 72.7105 48.9531 C 73.7874 42.2942 74.8537 35.9263 75.9094 29.8492 C 76.9818 23.7076 77.9587 18.3094 78.8402 13.6547 L 77.1666 13.7516 L 58.5936 85.5121 L 46.2779 85.5121 M 18.8992 28.6856 L 22.4381 15.0123 L 26.317 15.0123 L 30.383 -0.6974 L 45.22 -0.6974 L 41.154 15.0123 L 46.2936 15.0123 L 42.7547 28.6856 L 37.6151 28.6856 L 34.4526 40.9042 L 38.9488 39.6436 L 35.184 54.1896 L 30.6879 55.4503 L 22.9324 85.4151 L 4.3134 85.4151 L 9.1998 81.1483 L 14.7215 59.8141 L 9.3023 61.2687 L 13.0671 46.7227 L 18.4862 45.2681 L 22.7781 28.6856 L 18.8992 28.6856 Z M 135.3315 59.9111 L 145.29 16.5639 L 158.7693 16.5639 L 149.1988 59.9111 L 135.3315 59.9111 M 108.0957 83.0878 L 129.3041 1.1451 L 144.9168 1.1451 L 127.7494 67.475 L 153.8353 67.475 L 158.8151 63.5961 L 153.7703 83.0878 L 108.0957 83.0878 M 92.5217 64.9537 L 108.246 16.5639 L 121.4345 16.5639 L 106.4859 64.9537 L 92.5217 64.9537 M 176.5155 16.5639 L 168.3026 59.9111 L 154.3384 59.9111 L 163.2301 16.5639 L 176.5155 16.5639 Z M 228.8994 0.7572 L 243.1648 -0.4065 C 242.8636 0.7572 242.6031 1.8885 242.3833 2.9876 C 242.1635 4.0866 241.9844 5.1533 241.846 6.1877 L 265.5075 6.1877 L 262.1945 18.9882 L 259.7702 18.9882 L 261.6709 28.8795 L 248.9263 33.5342 C 250.7996 35.5384 252.9505 37.2192 255.3791 38.5769 L 260.2928 39.4496 L 242.7155 47.7894 L 254.2554 47.7894 L 250.7667 61.2687 L 242.6209 61.2687 L 239.7345 72.4207 L 245.6499 72.4207 L 250.1883 69.1236 L 246.298 84.1545 L 222.3455 84.1545 L 228.2688 61.2687 L 223.711 61.2687 C 222.4987 64.9537 221.0433 68.7033 219.345 72.5176 C 217.7113 76.3319 215.6946 80.5018 213.295 85.0272 L 199.0787 83.3787 C 201.0858 79.3704 202.8979 75.4915 204.5149 71.7419 C 206.2132 67.9276 207.634 64.4365 208.7771 61.2687 L 203.0556 61.2687 L 206.5444 47.7894 L 242.7155 47.7894 C 238.5004 45.5913 235.074 42.8437 232.4363 39.5466 L 211.5436 47.2075 L 209.3759 34.601 L 227.2487 28.4916 C 226.9224 27.0047 226.6691 25.4854 226.4889 23.9339 C 226.3733 22.3823 226.3151 20.7337 226.3143 18.9882 L 214.6775 18.9882 L 217.9905 6.1877 L 227.6878 6.1877 C 227.8574 5.2826 228.027 4.3775 228.1966 3.4724 C 228.4309 2.5673 228.6652 1.6623 228.8994 0.7572 M 183.9483 28.6856 L 187.3868 15.4002 L 193.3022 15.4002 L 197.2176 0.2723 L 212.1515 0.2723 L 208.2361 15.4002 L 212.8908 15.4002 L 209.4523 28.6856 L 204.7976 28.6856 L 201.5348 41.2921 L 207.5357 39.8375 L 203.6705 54.7715 L 197.6696 56.2261 L 190.0898 85.5121 L 171.7618 85.5121 L 176.3104 81.0513 L 181.7317 60.105 L 174.4918 61.8505 L 178.357 46.9166 L 185.5969 45.1711 L 189.8637 28.6856 L 183.9483 28.6856 M 241.8301 18.9882 C 241.9959 20.3458 242.3149 21.7358 242.7873 23.1581 L 254.7276 18.9882 L 241.8301 18.9882 Z M 269.3389 85.803 L 254.7781 84.7363 L 259.9005 70.1903 C 260.2808 69.2205 260.844 67.669 261.5901 65.5355 C 262.3529 63.3375 263.1253 60.9778 263.9072 58.4565 C 264.7537 55.9352 265.5177 53.6078 266.1991 51.4744 C 266.8806 49.3409 267.3468 47.7894 267.5978 46.8196 L 279.2436 1.8239 L 312.9904 1.8239 L 291.3303 85.5121 L 274.2629 85.5121 L 278.0859 80.8574 L 283.0053 61.8505 L 277.6717 61.8505 C 276.7727 64.8244 275.8175 67.7659 274.8059 70.6751 C 273.859 73.5843 272.9885 76.0733 272.1945 78.1421 L 269.3389 85.803 M 313.0543 16.5639 L 316.8693 1.8239 L 350.3252 1.8239 L 346.5102 16.5639 L 337.3947 16.5639 L 332.9523 33.7282 L 344.783 33.7282 L 341.0684 48.0803 L 329.2377 48.0803 L 319.5496 85.5121 L 303.8399 85.5121 L 313.5279 48.0803 L 302.9578 48.0803 L 306.6724 33.7282 L 317.2425 33.7282 L 321.685 16.5639 L 313.0543 16.5639 M 284.008 38.8678 L 281.6236 48.0803 L 286.5693 48.0803 L 288.9536 38.8678 L 284.008 38.8678 M 289.8058 16.4669 L 287.4465 25.5824 L 292.3922 25.5824 L 294.7514 16.4669 L 289.8058 16.4669 Z" stroke-linecap="round" stroke-linejoin="round" stroke="#007908" stroke-width="6.060851152842849" fill="#007908"></path>
  <g mask="url(#mask-ele1702047986936_7130_3)">
    <rect width="346.0118" height="86.7913" x="4.3134" y="-0.6974" fill="url(#linear-gradient-ele1702047986936_7130_3)"></rect>
  </g>
</svg>