<svg width="174.19715782073607" height="33.95957303334431" viewBox="0 0 512.7079467773438 99.95193481445312"
  xmlns="http://www.w3.org/2000/svg"
  xmlns:xlink="http://www.w3.org/1999/xlink" style="position: absolute; display: block; left: 0px; top: 0px; transform: scale(1, 1); transform-origin: 0px 0px;">
  <defs>
    <filter id="shadow-25252512.61179932212350654.523769125091865047" x="-766.4501208438921" y="-145.40413309658783" width="2050.831787109375" height="399.8077392578125" filterUnits="userSpaceOnUse">
      <feColorMatrix values="0 0 0 0 0.09803921568627451   0 0 0 0 0.09803921568627451   0 0 0 0 0.09803921568627451  0 0 0 1 0" type="matrix" in="SourceAlpha" result="matrix" color-interpolation-filters="sRGB"></feColorMatrix>
      <feOffset dx="2.6117993221235065" dy="4.523769125091865" in="matrix" result="offset"></feOffset>
      <feGaussianBlur stdDeviation="0" in="offset" result="blur"></feGaussianBlur>
      <feMerge>
        <feMergeNode in="blur"></feMergeNode>
        <feMergeNode in="SourceGraphic"></feMergeNode>
      </feMerge>
    </filter>
    <mask id="mask-ele1702047698250_1788_2">
      <path d=" M 26.1587 79.6937 L 32.7551 60.202 L 25.2882 60.202 L 18.6918 79.6937 L 7.6368 79.6937 L 14.2332 60.202 L 8.5117 60.202 L 11.0969 50.2137 L 17.6911 50.2137 L 21.9989 37.3162 L 14.435 37.3162 L 16.9951 27.4249 L 25.3348 27.4249 L 32.0282 7.9332 L 43.0832 7.9332 L 36.3898 27.4249 L 43.8567 27.4249 L 50.5501 7.9332 L 61.6051 7.9332 L 54.9117 27.4249 L 60.8271 27.4249 L 58.2671 37.3162 L 51.5759 37.3162 L 47.268 50.2137 L 54.929 50.2137 L 52.3438 60.202 L 43.8101 60.202 L 37.2137 79.6937 L 26.1587 79.6937 M 33.0539 37.3162 L 28.7461 50.2137 L 36.213 50.2137 L 40.5209 37.3162 L 33.0539 37.3162 Z M 67.0497 80.5664 C 62.7828 80.5664 58.4308 80.1462 53.9936 79.3058 L 57.2062 66.8932 L 57.5941 66.8932 C 60.0416 67.9276 63.3342 68.4447 67.4717 68.4447 C 72.0618 68.4447 75.519 67.7013 77.8433 66.2144 C 80.1844 64.6628 81.7983 62.1738 82.6851 58.7474 C 83.6054 55.1917 83.3206 52.6704 81.8306 51.1834 C 80.3406 49.6965 77.042 48.9531 71.9347 48.9531 L 68.7346 48.9531 L 71.7213 37.4132 L 74.8245 37.4132 C 77.863 37.4132 80.2573 37.1546 82.0074 36.6374 C 83.8221 36.1202 85.22 35.2151 86.2012 33.9221 C 87.199 32.5645 88.0075 30.6897 88.6266 28.2977 C 89.4632 25.0652 89.3138 22.7702 88.1782 21.4125 C 87.0427 20.0549 84.7617 19.3761 81.3353 19.3761 C 79.8484 19.3761 78.1664 19.5054 76.2893 19.764 C 74.4289 19.9579 72.2034 20.3135 69.6129 20.8307 L 69.128 20.8307 L 72.1467 8.4181 C 76.358 7.3837 80.9527 6.8665 85.9307 6.8665 C 94.529 6.8665 100.4558 8.3211 103.7111 11.2303 C 106.9831 14.0749 107.8243 18.568 106.2347 24.7096 C 103.7081 34.4717 98.1042 40.387 89.423 42.4558 L 89.3226 42.8437 C 93.6138 43.7488 96.5945 45.7206 98.2647 48.7591 C 99.9517 51.733 100.2012 55.5149 99.0132 60.105 C 97.34 66.5699 93.7158 71.5802 88.1408 75.1359 C 82.5825 78.627 75.5521 80.4372 67.0497 80.5664 Z M 119.412 80.9543 C 117.0846 80.9543 114.5477 80.8897 111.8013 80.7604 C 109.1362 80.5664 105.8821 80.2755 102.0389 79.8876 L 120.6118 8.1272 C 124.9144 7.7393 128.5047 7.4807 131.3828 7.3514 C 134.2775 7.1574 136.9209 7.0604 139.3129 7.0604 C 147.9759 7.0604 154.5754 8.2888 159.1115 10.7454 C 163.729 13.1375 166.4987 17.0487 167.4205 22.4793 C 168.3591 27.8451 167.6738 34.9888 165.3648 43.9104 C 163.039 52.8966 159.9773 60.105 156.1797 65.5355 C 152.3822 70.9661 147.5149 74.9097 141.5779 77.3663 C 135.6575 79.7583 128.2689 80.9543 119.412 80.9543 M 128.6221 67.475 C 132.1132 67.475 134.9958 66.8285 137.2699 65.5355 C 139.6254 64.1779 141.6345 61.7859 143.2971 58.3595 C 145.0243 54.9331 146.6995 50.0844 148.3225 43.8134 C 149.9121 37.6718 150.6894 32.9201 150.6544 29.5583 C 150.7008 26.1319 149.7683 23.7399 147.8569 22.3823 C 146.0103 21.0247 143.0505 20.3458 138.9776 20.3458 C 136.7149 20.3458 134.9598 20.5075 133.7125 20.8307 L 121.7655 66.9901 C 123.3962 67.1841 124.7204 67.3134 125.738 67.378 C 126.7557 67.4427 127.717 67.475 128.6221 67.475 Z M 199.7415 79.6937 L 194.9612 55.4503 L 191.761 55.4503 C 191.5671 55.4503 191.1145 55.4503 190.4034 55.4503 C 189.7569 55.4503 189.0781 55.4503 188.367 55.4503 C 187.7372 55.3856 187.3253 55.3533 187.1314 55.3533 L 180.8316 79.6937 L 164.1522 79.6937 L 182.5997 8.4181 C 185.5134 7.9009 188.547 7.5453 191.7003 7.3514 C 194.9351 7.0928 198.201 6.9635 201.4981 6.9635 C 212.8763 6.9635 220.5848 8.9029 224.6235 12.7819 C 228.6622 16.6608 229.5604 22.9318 227.3183 31.5948 C 224.6578 41.874 219.0209 48.7914 210.4073 52.3471 L 217.0028 79.6937 L 199.7415 79.6937 M 195.2931 42.5528 C 199.8832 42.5528 203.2518 41.777 205.3989 40.2254 C 207.5627 38.6092 209.1801 35.7323 210.2509 31.5948 C 211.3385 27.3926 211.1781 24.5157 209.7695 22.9641 C 208.4422 21.3479 205.3866 20.5398 200.6026 20.5398 C 200.15 20.5398 199.4305 20.5721 198.4441 20.6368 C 197.5222 20.7014 196.7214 20.7984 196.0414 20.9277 L 190.4946 42.3588 C 191.189 42.4235 191.9804 42.4881 192.8688 42.5528 C 193.8385 42.5528 194.6466 42.5528 195.2931 42.5528 Z M 222.8212 79.6937 L 241.3942 7.9332 L 285.5172 7.9332 L 281.9281 21.8004 L 254.4846 21.8004 L 250.6194 36.7344 L 275.0567 36.7344 L 271.4425 50.6986 L 247.0052 50.6986 L 243.0898 65.8265 L 271.4061 65.8265 L 267.817 79.6937 L 222.8212 79.6937 Z M 275.7688 79.6937 L 294.3418 7.9332 L 308.209 7.9332 L 321.5493 42.9407 L 323.3485 50.6016 L 324.2213 50.6016 L 335.2646 7.9332 L 350.0046 7.9332 L 331.4317 79.6937 L 317.5644 79.6937 L 304.1055 44.3953 L 302.4751 36.8313 L 301.5054 36.8313 L 290.4118 79.6937 L 275.7688 79.6937 Z M 360.4165 80.8574 C 357.1194 80.8574 353.7683 80.5664 350.3632 79.9846 C 347.0395 79.3381 343.6294 78.4007 340.133 77.1724 L 343.8693 63.1112 C 345.2368 63.8223 346.8713 64.5012 348.7728 65.1476 C 350.7556 65.7295 352.7958 66.2144 354.8935 66.6022 C 357.0726 66.9255 359.0672 67.0871 360.8774 67.0871 C 367.7948 67.0871 371.9396 64.4365 373.3116 59.1353 C 373.7801 57.3251 373.6311 55.9028 372.8644 54.8684 C 372.0977 53.8341 370.9253 52.9936 369.3471 52.3471 C 367.7856 51.636 365.9656 50.9248 363.8869 50.2137 C 361.9854 49.5672 360.1821 48.7914 358.4769 47.8863 C 356.7884 46.9166 355.3775 45.6236 354.2443 44.0074 C 353.1277 42.3265 352.4599 40.1608 352.2409 37.5102 C 352.0218 34.8596 352.431 31.5301 353.4684 27.5219 C 355.1249 21.1216 358.5551 16.1113 363.7589 12.491 C 368.9628 8.8706 375.3467 7.0604 382.9106 7.0604 C 388.4705 7.0604 394.0223 7.9655 399.5662 9.7757 L 395.9086 23.1581 C 394.4262 22.6409 392.7332 22.1883 390.8295 21.8004 C 388.9904 21.4125 387.1909 21.1216 385.4309 20.9277 C 383.6876 20.6691 382.1695 20.5398 380.8765 20.5398 C 374.9288 20.5398 371.3526 22.8671 370.1479 27.5219 C 369.6292 29.526 369.8011 31.1099 370.6636 32.2736 C 371.6074 33.3726 372.9727 34.3424 374.7593 35.1828 C 376.5626 35.9586 378.5348 36.8313 380.6758 37.8011 C 383.0587 38.8355 385.14 40.1608 386.9198 41.777 C 388.7809 43.3286 390.0473 45.4297 390.7189 48.0803 C 391.3905 50.7309 391.1658 54.222 390.0447 58.5534 C 388.2711 65.4062 384.7321 70.8368 379.4279 74.845 C 374.1236 78.8532 367.7865 80.8574 360.4165 80.8574 Z M 391.6523 79.6937 L 410.2253 7.9332 L 426.9047 7.9332 L 419.6261 36.0556 L 441.4452 36.0556 L 448.7238 7.9332 L 465.4033 7.9332 L 446.8303 79.6937 L 430.1508 79.6937 L 437.831 50.0198 L 416.0119 50.0198 L 408.3317 79.6937 L 391.6523 79.6937 Z M 457.3034 79.6937 L 475.8764 7.9332 L 492.5559 7.9332 L 473.9829 79.6937 L 457.3034 79.6937 Z" stroke-linecap="round" stroke-linejoin="round" fill="#ffffff"></path>
    </mask>
    <linearGradient id="linear-gradient-ele1702047698250_1788_2" x1="0" y1="0" x2="0%" y2="100%">
      <stop offset="0" stop-color="rgb(255, 255, 255)"></stop>
      <stop offset="1" stop-color="rgb(255, 255, 255)"></stop>
    </linearGradient>
  </defs>
  <rect width="512.7079467773438" height="99.95193481445312" x="0" y="0" opacity="0"></rect>
  <path d=" M 26.1587 79.6937 L 32.7551 60.202 L 25.2882 60.202 L 18.6918 79.6937 L 7.6368 79.6937 L 14.2332 60.202 L 8.5117 60.202 L 11.0969 50.2137 L 17.6911 50.2137 L 21.9989 37.3162 L 14.435 37.3162 L 16.9951 27.4249 L 25.3348 27.4249 L 32.0282 7.9332 L 43.0832 7.9332 L 36.3898 27.4249 L 43.8567 27.4249 L 50.5501 7.9332 L 61.6051 7.9332 L 54.9117 27.4249 L 60.8271 27.4249 L 58.2671 37.3162 L 51.5759 37.3162 L 47.268 50.2137 L 54.929 50.2137 L 52.3438 60.202 L 43.8101 60.202 L 37.2137 79.6937 L 26.1587 79.6937 M 33.0539 37.3162 L 28.7461 50.2137 L 36.213 50.2137 L 40.5209 37.3162 L 33.0539 37.3162 Z M 67.0497 80.5664 C 62.7828 80.5664 58.4308 80.1462 53.9936 79.3058 L 57.2062 66.8932 L 57.5941 66.8932 C 60.0416 67.9276 63.3342 68.4447 67.4717 68.4447 C 72.0618 68.4447 75.519 67.7013 77.8433 66.2144 C 80.1844 64.6628 81.7983 62.1738 82.6851 58.7474 C 83.6054 55.1917 83.3206 52.6704 81.8306 51.1834 C 80.3406 49.6965 77.042 48.9531 71.9347 48.9531 L 68.7346 48.9531 L 71.7213 37.4132 L 74.8245 37.4132 C 77.863 37.4132 80.2573 37.1546 82.0074 36.6374 C 83.8221 36.1202 85.22 35.2151 86.2012 33.9221 C 87.199 32.5645 88.0075 30.6897 88.6266 28.2977 C 89.4632 25.0652 89.3138 22.7702 88.1782 21.4125 C 87.0427 20.0549 84.7617 19.3761 81.3353 19.3761 C 79.8484 19.3761 78.1664 19.5054 76.2893 19.764 C 74.4289 19.9579 72.2034 20.3135 69.6129 20.8307 L 69.128 20.8307 L 72.1467 8.4181 C 76.358 7.3837 80.9527 6.8665 85.9307 6.8665 C 94.529 6.8665 100.4558 8.3211 103.7111 11.2303 C 106.9831 14.0749 107.8243 18.568 106.2347 24.7096 C 103.7081 34.4717 98.1042 40.387 89.423 42.4558 L 89.3226 42.8437 C 93.6138 43.7488 96.5945 45.7206 98.2647 48.7591 C 99.9517 51.733 100.2012 55.5149 99.0132 60.105 C 97.34 66.5699 93.7158 71.5802 88.1408 75.1359 C 82.5825 78.627 75.5521 80.4372 67.0497 80.5664 Z M 119.412 80.9543 C 117.0846 80.9543 114.5477 80.8897 111.8013 80.7604 C 109.1362 80.5664 105.8821 80.2755 102.0389 79.8876 L 120.6118 8.1272 C 124.9144 7.7393 128.5047 7.4807 131.3828 7.3514 C 134.2775 7.1574 136.9209 7.0604 139.3129 7.0604 C 147.9759 7.0604 154.5754 8.2888 159.1115 10.7454 C 163.729 13.1375 166.4987 17.0487 167.4205 22.4793 C 168.3591 27.8451 167.6738 34.9888 165.3648 43.9104 C 163.039 52.8966 159.9773 60.105 156.1797 65.5355 C 152.3822 70.9661 147.5149 74.9097 141.5779 77.3663 C 135.6575 79.7583 128.2689 80.9543 119.412 80.9543 M 128.6221 67.475 C 132.1132 67.475 134.9958 66.8285 137.2699 65.5355 C 139.6254 64.1779 141.6345 61.7859 143.2971 58.3595 C 145.0243 54.9331 146.6995 50.0844 148.3225 43.8134 C 149.9121 37.6718 150.6894 32.9201 150.6544 29.5583 C 150.7008 26.1319 149.7683 23.7399 147.8569 22.3823 C 146.0103 21.0247 143.0505 20.3458 138.9776 20.3458 C 136.7149 20.3458 134.9598 20.5075 133.7125 20.8307 L 121.7655 66.9901 C 123.3962 67.1841 124.7204 67.3134 125.738 67.378 C 126.7557 67.4427 127.717 67.475 128.6221 67.475 Z M 199.7415 79.6937 L 194.9612 55.4503 L 191.761 55.4503 C 191.5671 55.4503 191.1145 55.4503 190.4034 55.4503 C 189.7569 55.4503 189.0781 55.4503 188.367 55.4503 C 187.7372 55.3856 187.3253 55.3533 187.1314 55.3533 L 180.8316 79.6937 L 164.1522 79.6937 L 182.5997 8.4181 C 185.5134 7.9009 188.547 7.5453 191.7003 7.3514 C 194.9351 7.0928 198.201 6.9635 201.4981 6.9635 C 212.8763 6.9635 220.5848 8.9029 224.6235 12.7819 C 228.6622 16.6608 229.5604 22.9318 227.3183 31.5948 C 224.6578 41.874 219.0209 48.7914 210.4073 52.3471 L 217.0028 79.6937 L 199.7415 79.6937 M 195.2931 42.5528 C 199.8832 42.5528 203.2518 41.777 205.3989 40.2254 C 207.5627 38.6092 209.1801 35.7323 210.2509 31.5948 C 211.3385 27.3926 211.1781 24.5157 209.7695 22.9641 C 208.4422 21.3479 205.3866 20.5398 200.6026 20.5398 C 200.15 20.5398 199.4305 20.5721 198.4441 20.6368 C 197.5222 20.7014 196.7214 20.7984 196.0414 20.9277 L 190.4946 42.3588 C 191.189 42.4235 191.9804 42.4881 192.8688 42.5528 C 193.8385 42.5528 194.6466 42.5528 195.2931 42.5528 Z M 222.8212 79.6937 L 241.3942 7.9332 L 285.5172 7.9332 L 281.9281 21.8004 L 254.4846 21.8004 L 250.6194 36.7344 L 275.0567 36.7344 L 271.4425 50.6986 L 247.0052 50.6986 L 243.0898 65.8265 L 271.4061 65.8265 L 267.817 79.6937 L 222.8212 79.6937 Z M 275.7688 79.6937 L 294.3418 7.9332 L 308.209 7.9332 L 321.5493 42.9407 L 323.3485 50.6016 L 324.2213 50.6016 L 335.2646 7.9332 L 350.0046 7.9332 L 331.4317 79.6937 L 317.5644 79.6937 L 304.1055 44.3953 L 302.4751 36.8313 L 301.5054 36.8313 L 290.4118 79.6937 L 275.7688 79.6937 Z M 360.4165 80.8574 C 357.1194 80.8574 353.7683 80.5664 350.3632 79.9846 C 347.0395 79.3381 343.6294 78.4007 340.133 77.1724 L 343.8693 63.1112 C 345.2368 63.8223 346.8713 64.5012 348.7728 65.1476 C 350.7556 65.7295 352.7958 66.2144 354.8935 66.6022 C 357.0726 66.9255 359.0672 67.0871 360.8774 67.0871 C 367.7948 67.0871 371.9396 64.4365 373.3116 59.1353 C 373.7801 57.3251 373.6311 55.9028 372.8644 54.8684 C 372.0977 53.8341 370.9253 52.9936 369.3471 52.3471 C 367.7856 51.636 365.9656 50.9248 363.8869 50.2137 C 361.9854 49.5672 360.1821 48.7914 358.4769 47.8863 C 356.7884 46.9166 355.3775 45.6236 354.2443 44.0074 C 353.1277 42.3265 352.4599 40.1608 352.2409 37.5102 C 352.0218 34.8596 352.431 31.5301 353.4684 27.5219 C 355.1249 21.1216 358.5551 16.1113 363.7589 12.491 C 368.9628 8.8706 375.3467 7.0604 382.9106 7.0604 C 388.4705 7.0604 394.0223 7.9655 399.5662 9.7757 L 395.9086 23.1581 C 394.4262 22.6409 392.7332 22.1883 390.8295 21.8004 C 388.9904 21.4125 387.1909 21.1216 385.4309 20.9277 C 383.6876 20.6691 382.1695 20.5398 380.8765 20.5398 C 374.9288 20.5398 371.3526 22.8671 370.1479 27.5219 C 369.6292 29.526 369.8011 31.1099 370.6636 32.2736 C 371.6074 33.3726 372.9727 34.3424 374.7593 35.1828 C 376.5626 35.9586 378.5348 36.8313 380.6758 37.8011 C 383.0587 38.8355 385.14 40.1608 386.9198 41.777 C 388.7809 43.3286 390.0473 45.4297 390.7189 48.0803 C 391.3905 50.7309 391.1658 54.222 390.0447 58.5534 C 388.2711 65.4062 384.7321 70.8368 379.4279 74.845 C 374.1236 78.8532 367.7865 80.8574 360.4165 80.8574 Z M 391.6523 79.6937 L 410.2253 7.9332 L 426.9047 7.9332 L 419.6261 36.0556 L 441.4452 36.0556 L 448.7238 7.9332 L 465.4033 7.9332 L 446.8303 79.6937 L 430.1508 79.6937 L 437.831 50.0198 L 416.0119 50.0198 L 408.3317 79.6937 L 391.6523 79.6937 Z M 457.3034 79.6937 L 475.8764 7.9332 L 492.5559 7.9332 L 473.9829 79.6937 L 457.3034 79.6937 Z" stroke-linecap="round" stroke-linejoin="round" stroke="#191919" stroke-width="6.060851152842849" fill="#191919"></path>
  <g filter="url(#shadow-25252512.61179932212350654.523769125091865047)">
    <path d=" M 26.1587 79.6937 L 32.7551 60.202 L 25.2882 60.202 L 18.6918 79.6937 L 7.6368 79.6937 L 14.2332 60.202 L 8.5117 60.202 L 11.0969 50.2137 L 17.6911 50.2137 L 21.9989 37.3162 L 14.435 37.3162 L 16.9951 27.4249 L 25.3348 27.4249 L 32.0282 7.9332 L 43.0832 7.9332 L 36.3898 27.4249 L 43.8567 27.4249 L 50.5501 7.9332 L 61.6051 7.9332 L 54.9117 27.4249 L 60.8271 27.4249 L 58.2671 37.3162 L 51.5759 37.3162 L 47.268 50.2137 L 54.929 50.2137 L 52.3438 60.202 L 43.8101 60.202 L 37.2137 79.6937 L 26.1587 79.6937 M 33.0539 37.3162 L 28.7461 50.2137 L 36.213 50.2137 L 40.5209 37.3162 L 33.0539 37.3162 Z M 67.0497 80.5664 C 62.7828 80.5664 58.4308 80.1462 53.9936 79.3058 L 57.2062 66.8932 L 57.5941 66.8932 C 60.0416 67.9276 63.3342 68.4447 67.4717 68.4447 C 72.0618 68.4447 75.519 67.7013 77.8433 66.2144 C 80.1844 64.6628 81.7983 62.1738 82.6851 58.7474 C 83.6054 55.1917 83.3206 52.6704 81.8306 51.1834 C 80.3406 49.6965 77.042 48.9531 71.9347 48.9531 L 68.7346 48.9531 L 71.7213 37.4132 L 74.8245 37.4132 C 77.863 37.4132 80.2573 37.1546 82.0074 36.6374 C 83.8221 36.1202 85.22 35.2151 86.2012 33.9221 C 87.199 32.5645 88.0075 30.6897 88.6266 28.2977 C 89.4632 25.0652 89.3138 22.7702 88.1782 21.4125 C 87.0427 20.0549 84.7617 19.3761 81.3353 19.3761 C 79.8484 19.3761 78.1664 19.5054 76.2893 19.764 C 74.4289 19.9579 72.2034 20.3135 69.6129 20.8307 L 69.128 20.8307 L 72.1467 8.4181 C 76.358 7.3837 80.9527 6.8665 85.9307 6.8665 C 94.529 6.8665 100.4558 8.3211 103.7111 11.2303 C 106.9831 14.0749 107.8243 18.568 106.2347 24.7096 C 103.7081 34.4717 98.1042 40.387 89.423 42.4558 L 89.3226 42.8437 C 93.6138 43.7488 96.5945 45.7206 98.2647 48.7591 C 99.9517 51.733 100.2012 55.5149 99.0132 60.105 C 97.34 66.5699 93.7158 71.5802 88.1408 75.1359 C 82.5825 78.627 75.5521 80.4372 67.0497 80.5664 Z M 119.412 80.9543 C 117.0846 80.9543 114.5477 80.8897 111.8013 80.7604 C 109.1362 80.5664 105.8821 80.2755 102.0389 79.8876 L 120.6118 8.1272 C 124.9144 7.7393 128.5047 7.4807 131.3828 7.3514 C 134.2775 7.1574 136.9209 7.0604 139.3129 7.0604 C 147.9759 7.0604 154.5754 8.2888 159.1115 10.7454 C 163.729 13.1375 166.4987 17.0487 167.4205 22.4793 C 168.3591 27.8451 167.6738 34.9888 165.3648 43.9104 C 163.039 52.8966 159.9773 60.105 156.1797 65.5355 C 152.3822 70.9661 147.5149 74.9097 141.5779 77.3663 C 135.6575 79.7583 128.2689 80.9543 119.412 80.9543 M 128.6221 67.475 C 132.1132 67.475 134.9958 66.8285 137.2699 65.5355 C 139.6254 64.1779 141.6345 61.7859 143.2971 58.3595 C 145.0243 54.9331 146.6995 50.0844 148.3225 43.8134 C 149.9121 37.6718 150.6894 32.9201 150.6544 29.5583 C 150.7008 26.1319 149.7683 23.7399 147.8569 22.3823 C 146.0103 21.0247 143.0505 20.3458 138.9776 20.3458 C 136.7149 20.3458 134.9598 20.5075 133.7125 20.8307 L 121.7655 66.9901 C 123.3962 67.1841 124.7204 67.3134 125.738 67.378 C 126.7557 67.4427 127.717 67.475 128.6221 67.475 Z M 199.7415 79.6937 L 194.9612 55.4503 L 191.761 55.4503 C 191.5671 55.4503 191.1145 55.4503 190.4034 55.4503 C 189.7569 55.4503 189.0781 55.4503 188.367 55.4503 C 187.7372 55.3856 187.3253 55.3533 187.1314 55.3533 L 180.8316 79.6937 L 164.1522 79.6937 L 182.5997 8.4181 C 185.5134 7.9009 188.547 7.5453 191.7003 7.3514 C 194.9351 7.0928 198.201 6.9635 201.4981 6.9635 C 212.8763 6.9635 220.5848 8.9029 224.6235 12.7819 C 228.6622 16.6608 229.5604 22.9318 227.3183 31.5948 C 224.6578 41.874 219.0209 48.7914 210.4073 52.3471 L 217.0028 79.6937 L 199.7415 79.6937 M 195.2931 42.5528 C 199.8832 42.5528 203.2518 41.777 205.3989 40.2254 C 207.5627 38.6092 209.1801 35.7323 210.2509 31.5948 C 211.3385 27.3926 211.1781 24.5157 209.7695 22.9641 C 208.4422 21.3479 205.3866 20.5398 200.6026 20.5398 C 200.15 20.5398 199.4305 20.5721 198.4441 20.6368 C 197.5222 20.7014 196.7214 20.7984 196.0414 20.9277 L 190.4946 42.3588 C 191.189 42.4235 191.9804 42.4881 192.8688 42.5528 C 193.8385 42.5528 194.6466 42.5528 195.2931 42.5528 Z M 222.8212 79.6937 L 241.3942 7.9332 L 285.5172 7.9332 L 281.9281 21.8004 L 254.4846 21.8004 L 250.6194 36.7344 L 275.0567 36.7344 L 271.4425 50.6986 L 247.0052 50.6986 L 243.0898 65.8265 L 271.4061 65.8265 L 267.817 79.6937 L 222.8212 79.6937 Z M 275.7688 79.6937 L 294.3418 7.9332 L 308.209 7.9332 L 321.5493 42.9407 L 323.3485 50.6016 L 324.2213 50.6016 L 335.2646 7.9332 L 350.0046 7.9332 L 331.4317 79.6937 L 317.5644 79.6937 L 304.1055 44.3953 L 302.4751 36.8313 L 301.5054 36.8313 L 290.4118 79.6937 L 275.7688 79.6937 Z M 360.4165 80.8574 C 357.1194 80.8574 353.7683 80.5664 350.3632 79.9846 C 347.0395 79.3381 343.6294 78.4007 340.133 77.1724 L 343.8693 63.1112 C 345.2368 63.8223 346.8713 64.5012 348.7728 65.1476 C 350.7556 65.7295 352.7958 66.2144 354.8935 66.6022 C 357.0726 66.9255 359.0672 67.0871 360.8774 67.0871 C 367.7948 67.0871 371.9396 64.4365 373.3116 59.1353 C 373.7801 57.3251 373.6311 55.9028 372.8644 54.8684 C 372.0977 53.8341 370.9253 52.9936 369.3471 52.3471 C 367.7856 51.636 365.9656 50.9248 363.8869 50.2137 C 361.9854 49.5672 360.1821 48.7914 358.4769 47.8863 C 356.7884 46.9166 355.3775 45.6236 354.2443 44.0074 C 353.1277 42.3265 352.4599 40.1608 352.2409 37.5102 C 352.0218 34.8596 352.431 31.5301 353.4684 27.5219 C 355.1249 21.1216 358.5551 16.1113 363.7589 12.491 C 368.9628 8.8706 375.3467 7.0604 382.9106 7.0604 C 388.4705 7.0604 394.0223 7.9655 399.5662 9.7757 L 395.9086 23.1581 C 394.4262 22.6409 392.7332 22.1883 390.8295 21.8004 C 388.9904 21.4125 387.1909 21.1216 385.4309 20.9277 C 383.6876 20.6691 382.1695 20.5398 380.8765 20.5398 C 374.9288 20.5398 371.3526 22.8671 370.1479 27.5219 C 369.6292 29.526 369.8011 31.1099 370.6636 32.2736 C 371.6074 33.3726 372.9727 34.3424 374.7593 35.1828 C 376.5626 35.9586 378.5348 36.8313 380.6758 37.8011 C 383.0587 38.8355 385.14 40.1608 386.9198 41.777 C 388.7809 43.3286 390.0473 45.4297 390.7189 48.0803 C 391.3905 50.7309 391.1658 54.222 390.0447 58.5534 C 388.2711 65.4062 384.7321 70.8368 379.4279 74.845 C 374.1236 78.8532 367.7865 80.8574 360.4165 80.8574 Z M 391.6523 79.6937 L 410.2253 7.9332 L 426.9047 7.9332 L 419.6261 36.0556 L 441.4452 36.0556 L 448.7238 7.9332 L 465.4033 7.9332 L 446.8303 79.6937 L 430.1508 79.6937 L 437.831 50.0198 L 416.0119 50.0198 L 408.3317 79.6937 L 391.6523 79.6937 Z M 457.3034 79.6937 L 475.8764 7.9332 L 492.5559 7.9332 L 473.9829 79.6937 L 457.3034 79.6937 Z" stroke-linecap="round" stroke-linejoin="round" stroke-width="6.060851152842849" stroke="#ffffff" fill="#ffffff"></path>
  </g>
  <path d=" M 26.1587 79.6937 L 32.7551 60.202 L 25.2882 60.202 L 18.6918 79.6937 L 7.6368 79.6937 L 14.2332 60.202 L 8.5117 60.202 L 11.0969 50.2137 L 17.6911 50.2137 L 21.9989 37.3162 L 14.435 37.3162 L 16.9951 27.4249 L 25.3348 27.4249 L 32.0282 7.9332 L 43.0832 7.9332 L 36.3898 27.4249 L 43.8567 27.4249 L 50.5501 7.9332 L 61.6051 7.9332 L 54.9117 27.4249 L 60.8271 27.4249 L 58.2671 37.3162 L 51.5759 37.3162 L 47.268 50.2137 L 54.929 50.2137 L 52.3438 60.202 L 43.8101 60.202 L 37.2137 79.6937 L 26.1587 79.6937 M 33.0539 37.3162 L 28.7461 50.2137 L 36.213 50.2137 L 40.5209 37.3162 L 33.0539 37.3162 Z M 67.0497 80.5664 C 62.7828 80.5664 58.4308 80.1462 53.9936 79.3058 L 57.2062 66.8932 L 57.5941 66.8932 C 60.0416 67.9276 63.3342 68.4447 67.4717 68.4447 C 72.0618 68.4447 75.519 67.7013 77.8433 66.2144 C 80.1844 64.6628 81.7983 62.1738 82.6851 58.7474 C 83.6054 55.1917 83.3206 52.6704 81.8306 51.1834 C 80.3406 49.6965 77.042 48.9531 71.9347 48.9531 L 68.7346 48.9531 L 71.7213 37.4132 L 74.8245 37.4132 C 77.863 37.4132 80.2573 37.1546 82.0074 36.6374 C 83.8221 36.1202 85.22 35.2151 86.2012 33.9221 C 87.199 32.5645 88.0075 30.6897 88.6266 28.2977 C 89.4632 25.0652 89.3138 22.7702 88.1782 21.4125 C 87.0427 20.0549 84.7617 19.3761 81.3353 19.3761 C 79.8484 19.3761 78.1664 19.5054 76.2893 19.764 C 74.4289 19.9579 72.2034 20.3135 69.6129 20.8307 L 69.128 20.8307 L 72.1467 8.4181 C 76.358 7.3837 80.9527 6.8665 85.9307 6.8665 C 94.529 6.8665 100.4558 8.3211 103.7111 11.2303 C 106.9831 14.0749 107.8243 18.568 106.2347 24.7096 C 103.7081 34.4717 98.1042 40.387 89.423 42.4558 L 89.3226 42.8437 C 93.6138 43.7488 96.5945 45.7206 98.2647 48.7591 C 99.9517 51.733 100.2012 55.5149 99.0132 60.105 C 97.34 66.5699 93.7158 71.5802 88.1408 75.1359 C 82.5825 78.627 75.5521 80.4372 67.0497 80.5664 Z M 119.412 80.9543 C 117.0846 80.9543 114.5477 80.8897 111.8013 80.7604 C 109.1362 80.5664 105.8821 80.2755 102.0389 79.8876 L 120.6118 8.1272 C 124.9144 7.7393 128.5047 7.4807 131.3828 7.3514 C 134.2775 7.1574 136.9209 7.0604 139.3129 7.0604 C 147.9759 7.0604 154.5754 8.2888 159.1115 10.7454 C 163.729 13.1375 166.4987 17.0487 167.4205 22.4793 C 168.3591 27.8451 167.6738 34.9888 165.3648 43.9104 C 163.039 52.8966 159.9773 60.105 156.1797 65.5355 C 152.3822 70.9661 147.5149 74.9097 141.5779 77.3663 C 135.6575 79.7583 128.2689 80.9543 119.412 80.9543 M 128.6221 67.475 C 132.1132 67.475 134.9958 66.8285 137.2699 65.5355 C 139.6254 64.1779 141.6345 61.7859 143.2971 58.3595 C 145.0243 54.9331 146.6995 50.0844 148.3225 43.8134 C 149.9121 37.6718 150.6894 32.9201 150.6544 29.5583 C 150.7008 26.1319 149.7683 23.7399 147.8569 22.3823 C 146.0103 21.0247 143.0505 20.3458 138.9776 20.3458 C 136.7149 20.3458 134.9598 20.5075 133.7125 20.8307 L 121.7655 66.9901 C 123.3962 67.1841 124.7204 67.3134 125.738 67.378 C 126.7557 67.4427 127.717 67.475 128.6221 67.475 Z M 199.7415 79.6937 L 194.9612 55.4503 L 191.761 55.4503 C 191.5671 55.4503 191.1145 55.4503 190.4034 55.4503 C 189.7569 55.4503 189.0781 55.4503 188.367 55.4503 C 187.7372 55.3856 187.3253 55.3533 187.1314 55.3533 L 180.8316 79.6937 L 164.1522 79.6937 L 182.5997 8.4181 C 185.5134 7.9009 188.547 7.5453 191.7003 7.3514 C 194.9351 7.0928 198.201 6.9635 201.4981 6.9635 C 212.8763 6.9635 220.5848 8.9029 224.6235 12.7819 C 228.6622 16.6608 229.5604 22.9318 227.3183 31.5948 C 224.6578 41.874 219.0209 48.7914 210.4073 52.3471 L 217.0028 79.6937 L 199.7415 79.6937 M 195.2931 42.5528 C 199.8832 42.5528 203.2518 41.777 205.3989 40.2254 C 207.5627 38.6092 209.1801 35.7323 210.2509 31.5948 C 211.3385 27.3926 211.1781 24.5157 209.7695 22.9641 C 208.4422 21.3479 205.3866 20.5398 200.6026 20.5398 C 200.15 20.5398 199.4305 20.5721 198.4441 20.6368 C 197.5222 20.7014 196.7214 20.7984 196.0414 20.9277 L 190.4946 42.3588 C 191.189 42.4235 191.9804 42.4881 192.8688 42.5528 C 193.8385 42.5528 194.6466 42.5528 195.2931 42.5528 Z M 222.8212 79.6937 L 241.3942 7.9332 L 285.5172 7.9332 L 281.9281 21.8004 L 254.4846 21.8004 L 250.6194 36.7344 L 275.0567 36.7344 L 271.4425 50.6986 L 247.0052 50.6986 L 243.0898 65.8265 L 271.4061 65.8265 L 267.817 79.6937 L 222.8212 79.6937 Z M 275.7688 79.6937 L 294.3418 7.9332 L 308.209 7.9332 L 321.5493 42.9407 L 323.3485 50.6016 L 324.2213 50.6016 L 335.2646 7.9332 L 350.0046 7.9332 L 331.4317 79.6937 L 317.5644 79.6937 L 304.1055 44.3953 L 302.4751 36.8313 L 301.5054 36.8313 L 290.4118 79.6937 L 275.7688 79.6937 Z M 360.4165 80.8574 C 357.1194 80.8574 353.7683 80.5664 350.3632 79.9846 C 347.0395 79.3381 343.6294 78.4007 340.133 77.1724 L 343.8693 63.1112 C 345.2368 63.8223 346.8713 64.5012 348.7728 65.1476 C 350.7556 65.7295 352.7958 66.2144 354.8935 66.6022 C 357.0726 66.9255 359.0672 67.0871 360.8774 67.0871 C 367.7948 67.0871 371.9396 64.4365 373.3116 59.1353 C 373.7801 57.3251 373.6311 55.9028 372.8644 54.8684 C 372.0977 53.8341 370.9253 52.9936 369.3471 52.3471 C 367.7856 51.636 365.9656 50.9248 363.8869 50.2137 C 361.9854 49.5672 360.1821 48.7914 358.4769 47.8863 C 356.7884 46.9166 355.3775 45.6236 354.2443 44.0074 C 353.1277 42.3265 352.4599 40.1608 352.2409 37.5102 C 352.0218 34.8596 352.431 31.5301 353.4684 27.5219 C 355.1249 21.1216 358.5551 16.1113 363.7589 12.491 C 368.9628 8.8706 375.3467 7.0604 382.9106 7.0604 C 388.4705 7.0604 394.0223 7.9655 399.5662 9.7757 L 395.9086 23.1581 C 394.4262 22.6409 392.7332 22.1883 390.8295 21.8004 C 388.9904 21.4125 387.1909 21.1216 385.4309 20.9277 C 383.6876 20.6691 382.1695 20.5398 380.8765 20.5398 C 374.9288 20.5398 371.3526 22.8671 370.1479 27.5219 C 369.6292 29.526 369.8011 31.1099 370.6636 32.2736 C 371.6074 33.3726 372.9727 34.3424 374.7593 35.1828 C 376.5626 35.9586 378.5348 36.8313 380.6758 37.8011 C 383.0587 38.8355 385.14 40.1608 386.9198 41.777 C 388.7809 43.3286 390.0473 45.4297 390.7189 48.0803 C 391.3905 50.7309 391.1658 54.222 390.0447 58.5534 C 388.2711 65.4062 384.7321 70.8368 379.4279 74.845 C 374.1236 78.8532 367.7865 80.8574 360.4165 80.8574 Z M 391.6523 79.6937 L 410.2253 7.9332 L 426.9047 7.9332 L 419.6261 36.0556 L 441.4452 36.0556 L 448.7238 7.9332 L 465.4033 7.9332 L 446.8303 79.6937 L 430.1508 79.6937 L 437.831 50.0198 L 416.0119 50.0198 L 408.3317 79.6937 L 391.6523 79.6937 Z M 457.3034 79.6937 L 475.8764 7.9332 L 492.5559 7.9332 L 473.9829 79.6937 L 457.3034 79.6937 Z" stroke-linecap="round" stroke-linejoin="round" stroke="#191919" stroke-width="6.060851152842849" fill="#191919"></path>
  <g mask="url(#mask-ele1702047698250_1788_2)">
    <rect width="484.9191" height="74.0878" x="7.6368" y="6.8665" fill="url(#linear-gradient-ele1702047698250_1788_2)"></rect>
  </g>
</svg>