<svg width="180.68656785344504" height="35.16007011059512" viewBox="-1.5954255764214245 -4.212725576421424 531.8079833984375 103.48531273685798"
  xmlns="http://www.w3.org/2000/svg"
  xmlns:xlink="http://www.w3.org/1999/xlink" style="position: absolute; display: block; left: -0.54206px; top: -1.43131px; transform: scale(1, 1); transform-origin: 0px 0px;">
  <defs>
    <filter id="shadow-04213712.7055966092502854.686230792007571069" x="-795.006378488406" y="-150.5417383132794" width="2127.23193359375" height="413.9412509474319" filterUnits="userSpaceOnUse">
      <feColorMatrix values="0 0 0 0 0   0 0 0 0 0.16470588235294117   0 0 0 0 0.5372549019607843  0 0 0 1 0" type="matrix" in="SourceAlpha" result="matrix" color-interpolation-filters="sRGB"></feColorMatrix>
      <feOffset dx="2.705596609250285" dy="4.686230792007571" in="matrix" result="offset"></feOffset>
      <feGaussianBlur stdDeviation="0" in="offset" result="blur"></feGaussianBlur>
      <feMerge>
        <feMergeNode in="blur"></feMergeNode>
        <feMergeNode in="SourceGraphic"></feMergeNode>
      </feMerge>
    </filter>
    <mask id="mask-ele1702094944181_8612_1">
      <path d=" M 43.2304 15.982 L 46.7693 2.3087 L 99.4259 2.3087 L 95.887 15.982 L 91.6202 15.982 L 73.5994 85.6091 L 55.6593 85.6091 L 59.9888 81.2453 L 76.8802 15.982 L 43.2304 15.982 M 43.9046 21.9944 L 31.3051 70.6751 L 59.3305 70.6751 L 71.93 21.9944 L 43.9046 21.9944 M 20.1907 41.68 L 34.3717 44.5892 L 15.1996 85.3182 L 1.435 81.9241 L 20.1907 41.68 M 18.063 38.286 L 21.903 23.449 L 38.3886 23.449 L 34.5485 38.286 L 18.063 38.286 M 23.3337 17.9215 L 27.1487 3.1815 L 43.6342 3.1815 L 39.8192 17.9215 L 23.3337 17.9215 M 51.1139 56.7109 L 46.7501 56.7109 L 52.1965 35.6677 L 56.5603 35.6677 L 51.1139 56.7109 Z M 103.8971 17.6306 L 106.9591 5.7998 L 135.7603 5.7998 L 137.4419 -0.6974 L 154.8971 -0.6974 L 153.2155 5.7998 L 182.0167 5.7998 L 178.9546 17.6306 L 150.1535 17.6306 L 148.8484 22.6732 L 175.4191 22.6732 L 159.1803 85.4151 L 140.8523 85.4151 L 145.1568 81.1483 L 157.3296 34.1161 L 116.9886 34.1161 L 103.7114 85.4151 L 88.6805 85.4151 L 104.9193 22.6732 L 131.3931 22.6732 L 132.6982 17.6306 L 103.8971 17.6306 M 114.2038 55.7412 L 116.8141 45.6559 L 120.79 45.6559 L 119.6046 37.1223 L 131.4354 37.1223 L 132.5238 45.6559 L 136.0149 45.6559 L 141.5206 37.1223 L 153.3514 37.1223 L 147.4577 45.6559 L 151.5306 45.6559 L 148.9204 55.7412 L 139.126 55.7412 L 137.9464 60.299 L 149.1953 60.299 L 146.4596 70.8691 L 135.2107 70.8691 L 132.1486 82.6999 L 117.0207 82.6999 L 120.0828 70.8691 L 108.9308 70.8691 L 111.6666 60.299 L 122.8185 60.299 L 123.9982 55.7412 L 114.2038 55.7412 Z M 231.6915 85.5121 L 217.0791 40.8073 L 183.4956 85.5121 L 172.2649 77.9482 L 230.9028 -0.9884 L 243.6702 5.5089 L 229.3696 24.4187 L 247.3795 76.9784 L 231.6915 85.5121 Z M 275.8473 13.0728 L 278.6583 2.2118 L 345.764 2.2118 L 342.953 13.0728 L 324.0432 13.0728 L 323.0141 17.0487 L 339.4996 17.0487 L 332.8987 42.5528 L 292.1698 42.5528 L 306.1351 45.1711 L 303.1518 48.0803 L 333.6015 48.0803 L 330.3889 60.4929 L 322.8249 60.4929 C 321.1737 62.6263 319.3297 64.6305 317.2929 66.5053 C 315.3207 68.3801 313.1797 70.1579 310.8698 71.8388 L 322.882 76.0087 L 315.1071 86.1909 L 296.69 79.7907 C 291.8878 81.8594 286.944 83.4757 281.8588 84.6393 C 276.7736 85.803 271.8295 86.5465 267.0264 86.8697 L 262.3454 76.1057 C 265.2234 75.9764 268.0942 75.7501 270.9578 75.4268 C 273.8381 75.039 276.6956 74.4894 279.5302 73.7783 L 265.3915 68.8326 L 273.4653 60.4929 L 263.574 60.4929 L 266.7867 48.0803 L 285.5995 48.0803 L 290.9091 42.5528 L 270.6416 42.5528 L 277.2426 17.0487 L 293.7281 17.0487 L 294.7571 13.0728 L 275.8473 13.0728 M 296.9969 66.9901 C 298.6534 66.0851 300.2057 65.083 301.6539 63.984 C 303.1667 62.8849 304.5992 61.7212 305.9515 60.4929 L 290.7266 60.4929 L 287.5961 63.5961 L 296.9969 66.9901 M 304.0187 26.7461 L 302.3873 33.0494 L 306.0723 33.0494 L 307.7037 26.7461 L 304.0187 26.7461 M 287.5332 26.7461 L 285.9018 33.0494 L 289.5868 33.0494 L 291.2182 26.7461 L 287.5332 26.7461 M 324.1892 26.7461 L 320.5042 26.7461 L 318.8728 33.0494 L 322.5578 33.0494 L 324.1892 26.7461 M 307.5576 13.0728 L 306.5286 17.0487 L 310.2136 17.0487 L 311.2426 13.0728 L 307.5576 13.0728 Z M 408.1922 -0.6974 L 401.7829 11.3273 L 422.5352 11.3273 L 403.5356 84.7363 L 344.9635 84.7363 L 363.9632 11.3273 L 383.2609 11.3273 L 389.6702 -0.6974 L 408.1922 -0.6974 M 371.4269 44.6862 L 369.6449 51.5713 L 396.0217 51.5713 L 397.8037 44.6862 L 371.4269 44.6862 M 402.8736 25.0975 L 376.4968 25.0975 L 374.7399 31.8857 L 401.1167 31.8857 L 402.8736 25.0975 M 364.6 71.063 L 390.9769 71.063 L 392.7087 64.3719 L 366.3318 64.3719 L 364.6 71.063 Z M 427.1239 40.8073 L 460.4895 -1.1823 L 472.4869 1.9208 L 461.133 16.5639 L 443.2879 85.5121 L 428.354 85.5121 L 438.7448 45.365 L 432.7861 53.0259 L 427.1239 40.8073 M 450.0761 85.5121 L 458.0825 54.5775 L 501.3328 54.5775 L 493.3263 85.5121 L 450.0761 85.5121 M 462.1393 26.1642 L 465.0759 14.8183 L 514.6294 14.8183 L 511.6928 26.1642 L 462.1393 26.1642 M 459.8771 51.7653 L 462.4874 41.68 L 503.7011 41.68 L 501.0909 51.7653 L 459.8771 51.7653 M 463.2403 38.7708 L 465.7251 29.1704 L 506.9389 29.1704 L 504.4541 38.7708 L 463.2403 38.7708 M 471.4316 11.6182 L 473.9917 1.7269 L 512.8781 1.7269 L 510.318 11.6182 L 471.4316 11.6182 M 482.8234 66.8932 L 470.3138 66.8932 L 468.8832 72.4207 L 481.3928 72.4207 L 482.8234 66.8932 Z" stroke-linecap="round" stroke-linejoin="round" fill="#ffffff"></path>
    </mask>
    <linearGradient id="linear-gradient-ele1702094944181_8612_1" x1="0" y1="0" x2="0%" y2="100%">
      <stop offset="0" stop-color="rgb(54, 112, 246)"></stop>
      <stop offset="1" stop-color="rgb(54, 112, 246)"></stop>
    </linearGradient>
  </defs>
  <rect width="531.8079833984375" height="103.48531273685798" x="0" y="0" opacity="0"></rect>
  <path d=" M 43.2304 15.982 L 46.7693 2.3087 L 99.4259 2.3087 L 95.887 15.982 L 91.6202 15.982 L 73.5994 85.6091 L 55.6593 85.6091 L 59.9888 81.2453 L 76.8802 15.982 L 43.2304 15.982 M 43.9046 21.9944 L 31.3051 70.6751 L 59.3305 70.6751 L 71.93 21.9944 L 43.9046 21.9944 M 20.1907 41.68 L 34.3717 44.5892 L 15.1996 85.3182 L 1.435 81.9241 L 20.1907 41.68 M 18.063 38.286 L 21.903 23.449 L 38.3886 23.449 L 34.5485 38.286 L 18.063 38.286 M 23.3337 17.9215 L 27.1487 3.1815 L 43.6342 3.1815 L 39.8192 17.9215 L 23.3337 17.9215 M 51.1139 56.7109 L 46.7501 56.7109 L 52.1965 35.6677 L 56.5603 35.6677 L 51.1139 56.7109 Z M 103.8971 17.6306 L 106.9591 5.7998 L 135.7603 5.7998 L 137.4419 -0.6974 L 154.8971 -0.6974 L 153.2155 5.7998 L 182.0167 5.7998 L 178.9546 17.6306 L 150.1535 17.6306 L 148.8484 22.6732 L 175.4191 22.6732 L 159.1803 85.4151 L 140.8523 85.4151 L 145.1568 81.1483 L 157.3296 34.1161 L 116.9886 34.1161 L 103.7114 85.4151 L 88.6805 85.4151 L 104.9193 22.6732 L 131.3931 22.6732 L 132.6982 17.6306 L 103.8971 17.6306 M 114.2038 55.7412 L 116.8141 45.6559 L 120.79 45.6559 L 119.6046 37.1223 L 131.4354 37.1223 L 132.5238 45.6559 L 136.0149 45.6559 L 141.5206 37.1223 L 153.3514 37.1223 L 147.4577 45.6559 L 151.5306 45.6559 L 148.9204 55.7412 L 139.126 55.7412 L 137.9464 60.299 L 149.1953 60.299 L 146.4596 70.8691 L 135.2107 70.8691 L 132.1486 82.6999 L 117.0207 82.6999 L 120.0828 70.8691 L 108.9308 70.8691 L 111.6666 60.299 L 122.8185 60.299 L 123.9982 55.7412 L 114.2038 55.7412 Z M 231.6915 85.5121 L 217.0791 40.8073 L 183.4956 85.5121 L 172.2649 77.9482 L 230.9028 -0.9884 L 243.6702 5.5089 L 229.3696 24.4187 L 247.3795 76.9784 L 231.6915 85.5121 Z M 275.8473 13.0728 L 278.6583 2.2118 L 345.764 2.2118 L 342.953 13.0728 L 324.0432 13.0728 L 323.0141 17.0487 L 339.4996 17.0487 L 332.8987 42.5528 L 292.1698 42.5528 L 306.1351 45.1711 L 303.1518 48.0803 L 333.6015 48.0803 L 330.3889 60.4929 L 322.8249 60.4929 C 321.1737 62.6263 319.3297 64.6305 317.2929 66.5053 C 315.3207 68.3801 313.1797 70.1579 310.8698 71.8388 L 322.882 76.0087 L 315.1071 86.1909 L 296.69 79.7907 C 291.8878 81.8594 286.944 83.4757 281.8588 84.6393 C 276.7736 85.803 271.8295 86.5465 267.0264 86.8697 L 262.3454 76.1057 C 265.2234 75.9764 268.0942 75.7501 270.9578 75.4268 C 273.8381 75.039 276.6956 74.4894 279.5302 73.7783 L 265.3915 68.8326 L 273.4653 60.4929 L 263.574 60.4929 L 266.7867 48.0803 L 285.5995 48.0803 L 290.9091 42.5528 L 270.6416 42.5528 L 277.2426 17.0487 L 293.7281 17.0487 L 294.7571 13.0728 L 275.8473 13.0728 M 296.9969 66.9901 C 298.6534 66.0851 300.2057 65.083 301.6539 63.984 C 303.1667 62.8849 304.5992 61.7212 305.9515 60.4929 L 290.7266 60.4929 L 287.5961 63.5961 L 296.9969 66.9901 M 304.0187 26.7461 L 302.3873 33.0494 L 306.0723 33.0494 L 307.7037 26.7461 L 304.0187 26.7461 M 287.5332 26.7461 L 285.9018 33.0494 L 289.5868 33.0494 L 291.2182 26.7461 L 287.5332 26.7461 M 324.1892 26.7461 L 320.5042 26.7461 L 318.8728 33.0494 L 322.5578 33.0494 L 324.1892 26.7461 M 307.5576 13.0728 L 306.5286 17.0487 L 310.2136 17.0487 L 311.2426 13.0728 L 307.5576 13.0728 Z M 408.1922 -0.6974 L 401.7829 11.3273 L 422.5352 11.3273 L 403.5356 84.7363 L 344.9635 84.7363 L 363.9632 11.3273 L 383.2609 11.3273 L 389.6702 -0.6974 L 408.1922 -0.6974 M 371.4269 44.6862 L 369.6449 51.5713 L 396.0217 51.5713 L 397.8037 44.6862 L 371.4269 44.6862 M 402.8736 25.0975 L 376.4968 25.0975 L 374.7399 31.8857 L 401.1167 31.8857 L 402.8736 25.0975 M 364.6 71.063 L 390.9769 71.063 L 392.7087 64.3719 L 366.3318 64.3719 L 364.6 71.063 Z M 427.1239 40.8073 L 460.4895 -1.1823 L 472.4869 1.9208 L 461.133 16.5639 L 443.2879 85.5121 L 428.354 85.5121 L 438.7448 45.365 L 432.7861 53.0259 L 427.1239 40.8073 M 450.0761 85.5121 L 458.0825 54.5775 L 501.3328 54.5775 L 493.3263 85.5121 L 450.0761 85.5121 M 462.1393 26.1642 L 465.0759 14.8183 L 514.6294 14.8183 L 511.6928 26.1642 L 462.1393 26.1642 M 459.8771 51.7653 L 462.4874 41.68 L 503.7011 41.68 L 501.0909 51.7653 L 459.8771 51.7653 M 463.2403 38.7708 L 465.7251 29.1704 L 506.9389 29.1704 L 504.4541 38.7708 L 463.2403 38.7708 M 471.4316 11.6182 L 473.9917 1.7269 L 512.8781 1.7269 L 510.318 11.6182 L 471.4316 11.6182 M 482.8234 66.8932 L 470.3138 66.8932 L 468.8832 72.4207 L 481.3928 72.4207 L 482.8234 66.8932 Z" stroke-linecap="round" stroke-linejoin="round" stroke="#002A89" stroke-width="6.060851152842849" fill="#002A89"></path>
  <g filter="url(#shadow-04213712.7055966092502854.686230792007571069)">
    <path d=" M 43.2304 15.982 L 46.7693 2.3087 L 99.4259 2.3087 L 95.887 15.982 L 91.6202 15.982 L 73.5994 85.6091 L 55.6593 85.6091 L 59.9888 81.2453 L 76.8802 15.982 L 43.2304 15.982 M 43.9046 21.9944 L 31.3051 70.6751 L 59.3305 70.6751 L 71.93 21.9944 L 43.9046 21.9944 M 20.1907 41.68 L 34.3717 44.5892 L 15.1996 85.3182 L 1.435 81.9241 L 20.1907 41.68 M 18.063 38.286 L 21.903 23.449 L 38.3886 23.449 L 34.5485 38.286 L 18.063 38.286 M 23.3337 17.9215 L 27.1487 3.1815 L 43.6342 3.1815 L 39.8192 17.9215 L 23.3337 17.9215 M 51.1139 56.7109 L 46.7501 56.7109 L 52.1965 35.6677 L 56.5603 35.6677 L 51.1139 56.7109 Z M 103.8971 17.6306 L 106.9591 5.7998 L 135.7603 5.7998 L 137.4419 -0.6974 L 154.8971 -0.6974 L 153.2155 5.7998 L 182.0167 5.7998 L 178.9546 17.6306 L 150.1535 17.6306 L 148.8484 22.6732 L 175.4191 22.6732 L 159.1803 85.4151 L 140.8523 85.4151 L 145.1568 81.1483 L 157.3296 34.1161 L 116.9886 34.1161 L 103.7114 85.4151 L 88.6805 85.4151 L 104.9193 22.6732 L 131.3931 22.6732 L 132.6982 17.6306 L 103.8971 17.6306 M 114.2038 55.7412 L 116.8141 45.6559 L 120.79 45.6559 L 119.6046 37.1223 L 131.4354 37.1223 L 132.5238 45.6559 L 136.0149 45.6559 L 141.5206 37.1223 L 153.3514 37.1223 L 147.4577 45.6559 L 151.5306 45.6559 L 148.9204 55.7412 L 139.126 55.7412 L 137.9464 60.299 L 149.1953 60.299 L 146.4596 70.8691 L 135.2107 70.8691 L 132.1486 82.6999 L 117.0207 82.6999 L 120.0828 70.8691 L 108.9308 70.8691 L 111.6666 60.299 L 122.8185 60.299 L 123.9982 55.7412 L 114.2038 55.7412 Z M 231.6915 85.5121 L 217.0791 40.8073 L 183.4956 85.5121 L 172.2649 77.9482 L 230.9028 -0.9884 L 243.6702 5.5089 L 229.3696 24.4187 L 247.3795 76.9784 L 231.6915 85.5121 Z M 275.8473 13.0728 L 278.6583 2.2118 L 345.764 2.2118 L 342.953 13.0728 L 324.0432 13.0728 L 323.0141 17.0487 L 339.4996 17.0487 L 332.8987 42.5528 L 292.1698 42.5528 L 306.1351 45.1711 L 303.1518 48.0803 L 333.6015 48.0803 L 330.3889 60.4929 L 322.8249 60.4929 C 321.1737 62.6263 319.3297 64.6305 317.2929 66.5053 C 315.3207 68.3801 313.1797 70.1579 310.8698 71.8388 L 322.882 76.0087 L 315.1071 86.1909 L 296.69 79.7907 C 291.8878 81.8594 286.944 83.4757 281.8588 84.6393 C 276.7736 85.803 271.8295 86.5465 267.0264 86.8697 L 262.3454 76.1057 C 265.2234 75.9764 268.0942 75.7501 270.9578 75.4268 C 273.8381 75.039 276.6956 74.4894 279.5302 73.7783 L 265.3915 68.8326 L 273.4653 60.4929 L 263.574 60.4929 L 266.7867 48.0803 L 285.5995 48.0803 L 290.9091 42.5528 L 270.6416 42.5528 L 277.2426 17.0487 L 293.7281 17.0487 L 294.7571 13.0728 L 275.8473 13.0728 M 296.9969 66.9901 C 298.6534 66.0851 300.2057 65.083 301.6539 63.984 C 303.1667 62.8849 304.5992 61.7212 305.9515 60.4929 L 290.7266 60.4929 L 287.5961 63.5961 L 296.9969 66.9901 M 304.0187 26.7461 L 302.3873 33.0494 L 306.0723 33.0494 L 307.7037 26.7461 L 304.0187 26.7461 M 287.5332 26.7461 L 285.9018 33.0494 L 289.5868 33.0494 L 291.2182 26.7461 L 287.5332 26.7461 M 324.1892 26.7461 L 320.5042 26.7461 L 318.8728 33.0494 L 322.5578 33.0494 L 324.1892 26.7461 M 307.5576 13.0728 L 306.5286 17.0487 L 310.2136 17.0487 L 311.2426 13.0728 L 307.5576 13.0728 Z M 408.1922 -0.6974 L 401.7829 11.3273 L 422.5352 11.3273 L 403.5356 84.7363 L 344.9635 84.7363 L 363.9632 11.3273 L 383.2609 11.3273 L 389.6702 -0.6974 L 408.1922 -0.6974 M 371.4269 44.6862 L 369.6449 51.5713 L 396.0217 51.5713 L 397.8037 44.6862 L 371.4269 44.6862 M 402.8736 25.0975 L 376.4968 25.0975 L 374.7399 31.8857 L 401.1167 31.8857 L 402.8736 25.0975 M 364.6 71.063 L 390.9769 71.063 L 392.7087 64.3719 L 366.3318 64.3719 L 364.6 71.063 Z M 427.1239 40.8073 L 460.4895 -1.1823 L 472.4869 1.9208 L 461.133 16.5639 L 443.2879 85.5121 L 428.354 85.5121 L 438.7448 45.365 L 432.7861 53.0259 L 427.1239 40.8073 M 450.0761 85.5121 L 458.0825 54.5775 L 501.3328 54.5775 L 493.3263 85.5121 L 450.0761 85.5121 M 462.1393 26.1642 L 465.0759 14.8183 L 514.6294 14.8183 L 511.6928 26.1642 L 462.1393 26.1642 M 459.8771 51.7653 L 462.4874 41.68 L 503.7011 41.68 L 501.0909 51.7653 L 459.8771 51.7653 M 463.2403 38.7708 L 465.7251 29.1704 L 506.9389 29.1704 L 504.4541 38.7708 L 463.2403 38.7708 M 471.4316 11.6182 L 473.9917 1.7269 L 512.8781 1.7269 L 510.318 11.6182 L 471.4316 11.6182 M 482.8234 66.8932 L 470.3138 66.8932 L 468.8832 72.4207 L 481.3928 72.4207 L 482.8234 66.8932 Z" stroke-linecap="round" stroke-linejoin="round" stroke-width="6.060851152842849" stroke="#ffffff" fill="#ffffff"></path>
  </g>
  <path d=" M 43.2304 15.982 L 46.7693 2.3087 L 99.4259 2.3087 L 95.887 15.982 L 91.6202 15.982 L 73.5994 85.6091 L 55.6593 85.6091 L 59.9888 81.2453 L 76.8802 15.982 L 43.2304 15.982 M 43.9046 21.9944 L 31.3051 70.6751 L 59.3305 70.6751 L 71.93 21.9944 L 43.9046 21.9944 M 20.1907 41.68 L 34.3717 44.5892 L 15.1996 85.3182 L 1.435 81.9241 L 20.1907 41.68 M 18.063 38.286 L 21.903 23.449 L 38.3886 23.449 L 34.5485 38.286 L 18.063 38.286 M 23.3337 17.9215 L 27.1487 3.1815 L 43.6342 3.1815 L 39.8192 17.9215 L 23.3337 17.9215 M 51.1139 56.7109 L 46.7501 56.7109 L 52.1965 35.6677 L 56.5603 35.6677 L 51.1139 56.7109 Z M 103.8971 17.6306 L 106.9591 5.7998 L 135.7603 5.7998 L 137.4419 -0.6974 L 154.8971 -0.6974 L 153.2155 5.7998 L 182.0167 5.7998 L 178.9546 17.6306 L 150.1535 17.6306 L 148.8484 22.6732 L 175.4191 22.6732 L 159.1803 85.4151 L 140.8523 85.4151 L 145.1568 81.1483 L 157.3296 34.1161 L 116.9886 34.1161 L 103.7114 85.4151 L 88.6805 85.4151 L 104.9193 22.6732 L 131.3931 22.6732 L 132.6982 17.6306 L 103.8971 17.6306 M 114.2038 55.7412 L 116.8141 45.6559 L 120.79 45.6559 L 119.6046 37.1223 L 131.4354 37.1223 L 132.5238 45.6559 L 136.0149 45.6559 L 141.5206 37.1223 L 153.3514 37.1223 L 147.4577 45.6559 L 151.5306 45.6559 L 148.9204 55.7412 L 139.126 55.7412 L 137.9464 60.299 L 149.1953 60.299 L 146.4596 70.8691 L 135.2107 70.8691 L 132.1486 82.6999 L 117.0207 82.6999 L 120.0828 70.8691 L 108.9308 70.8691 L 111.6666 60.299 L 122.8185 60.299 L 123.9982 55.7412 L 114.2038 55.7412 Z M 231.6915 85.5121 L 217.0791 40.8073 L 183.4956 85.5121 L 172.2649 77.9482 L 230.9028 -0.9884 L 243.6702 5.5089 L 229.3696 24.4187 L 247.3795 76.9784 L 231.6915 85.5121 Z M 275.8473 13.0728 L 278.6583 2.2118 L 345.764 2.2118 L 342.953 13.0728 L 324.0432 13.0728 L 323.0141 17.0487 L 339.4996 17.0487 L 332.8987 42.5528 L 292.1698 42.5528 L 306.1351 45.1711 L 303.1518 48.0803 L 333.6015 48.0803 L 330.3889 60.4929 L 322.8249 60.4929 C 321.1737 62.6263 319.3297 64.6305 317.2929 66.5053 C 315.3207 68.3801 313.1797 70.1579 310.8698 71.8388 L 322.882 76.0087 L 315.1071 86.1909 L 296.69 79.7907 C 291.8878 81.8594 286.944 83.4757 281.8588 84.6393 C 276.7736 85.803 271.8295 86.5465 267.0264 86.8697 L 262.3454 76.1057 C 265.2234 75.9764 268.0942 75.7501 270.9578 75.4268 C 273.8381 75.039 276.6956 74.4894 279.5302 73.7783 L 265.3915 68.8326 L 273.4653 60.4929 L 263.574 60.4929 L 266.7867 48.0803 L 285.5995 48.0803 L 290.9091 42.5528 L 270.6416 42.5528 L 277.2426 17.0487 L 293.7281 17.0487 L 294.7571 13.0728 L 275.8473 13.0728 M 296.9969 66.9901 C 298.6534 66.0851 300.2057 65.083 301.6539 63.984 C 303.1667 62.8849 304.5992 61.7212 305.9515 60.4929 L 290.7266 60.4929 L 287.5961 63.5961 L 296.9969 66.9901 M 304.0187 26.7461 L 302.3873 33.0494 L 306.0723 33.0494 L 307.7037 26.7461 L 304.0187 26.7461 M 287.5332 26.7461 L 285.9018 33.0494 L 289.5868 33.0494 L 291.2182 26.7461 L 287.5332 26.7461 M 324.1892 26.7461 L 320.5042 26.7461 L 318.8728 33.0494 L 322.5578 33.0494 L 324.1892 26.7461 M 307.5576 13.0728 L 306.5286 17.0487 L 310.2136 17.0487 L 311.2426 13.0728 L 307.5576 13.0728 Z M 408.1922 -0.6974 L 401.7829 11.3273 L 422.5352 11.3273 L 403.5356 84.7363 L 344.9635 84.7363 L 363.9632 11.3273 L 383.2609 11.3273 L 389.6702 -0.6974 L 408.1922 -0.6974 M 371.4269 44.6862 L 369.6449 51.5713 L 396.0217 51.5713 L 397.8037 44.6862 L 371.4269 44.6862 M 402.8736 25.0975 L 376.4968 25.0975 L 374.7399 31.8857 L 401.1167 31.8857 L 402.8736 25.0975 M 364.6 71.063 L 390.9769 71.063 L 392.7087 64.3719 L 366.3318 64.3719 L 364.6 71.063 Z M 427.1239 40.8073 L 460.4895 -1.1823 L 472.4869 1.9208 L 461.133 16.5639 L 443.2879 85.5121 L 428.354 85.5121 L 438.7448 45.365 L 432.7861 53.0259 L 427.1239 40.8073 M 450.0761 85.5121 L 458.0825 54.5775 L 501.3328 54.5775 L 493.3263 85.5121 L 450.0761 85.5121 M 462.1393 26.1642 L 465.0759 14.8183 L 514.6294 14.8183 L 511.6928 26.1642 L 462.1393 26.1642 M 459.8771 51.7653 L 462.4874 41.68 L 503.7011 41.68 L 501.0909 51.7653 L 459.8771 51.7653 M 463.2403 38.7708 L 465.7251 29.1704 L 506.9389 29.1704 L 504.4541 38.7708 L 463.2403 38.7708 M 471.4316 11.6182 L 473.9917 1.7269 L 512.8781 1.7269 L 510.318 11.6182 L 471.4316 11.6182 M 482.8234 66.8932 L 470.3138 66.8932 L 468.8832 72.4207 L 481.3928 72.4207 L 482.8234 66.8932 Z" stroke-linecap="round" stroke-linejoin="round" stroke="#002A89" stroke-width="6.060851152842849" fill="#002A89"></path>
  <g mask="url(#mask-ele1702094944181_8612_1)">
    <rect width="513.1944000000001" height="88.05199999999999" x="1.435" y="-1.1823" fill="url(#linear-gradient-ele1702094944181_8612_1)"></rect>
  </g>
</svg>