<svg width="180.68656785344504" height="35.061234206980664" viewBox="0 -4.600625576421424 531.8079833984375 103.19441273685798"
  xmlns="http://www.w3.org/2000/svg"
  xmlns:xlink="http://www.w3.org/1999/xlink" style="position: absolute; display: block; left: 0px; top: -1.5631px; transform: scale(1, 1); transform-origin: 0px 0px;">
  <defs>
    <filter id="shadow-07424312.7055966092502854.6862307920075710121" x="-795.006378488406" y="-150.1053883132794" width="2127.23193359375" height="412.77765094743194" filterUnits="userSpaceOnUse">
      <feColorMatrix values="0 0 0 0 0   0 0 0 0 0.2901960784313726   0 0 0 0 0.9529411764705882  0 0 0 1 0" type="matrix" in="SourceAlpha" result="matrix" color-interpolation-filters="sRGB"></feColorMatrix>
      <feOffset dx="2.705596609250285" dy="4.686230792007571" in="matrix" result="offset"></feOffset>
      <feGaussianBlur stdDeviation="0" in="offset" result="blur"></feGaussianBlur>
      <feMerge>
        <feMergeNode in="blur"></feMergeNode>
        <feMergeNode in="SourceGraphic"></feMergeNode>
      </feMerge>
    </filter>
    <mask id="mask-ele1702095729250_1452_ody">
      <path d=" M 8.4833 85.4151 L 22.4381 31.4978 L 20.0366 34.407 L 14.0311 25.3885 L 36.2048 -1.0853 L 47.1138 1.7269 L 43.5851 5.9937 L 61.1374 5.9937 L 50.9267 22.9641 L 58.3936 22.9641 L 42.2301 85.4151 L 28.5569 85.4151 L 31.9167 81.0513 L 34.5269 70.9661 L 23.6659 70.9661 L 19.9262 85.4151 L 8.4833 85.4151 M 48.0462 71.9358 L 51.1082 60.105 L 64.0057 60.105 L 65.5116 54.2866 L 61.0509 54.2866 L 59.2209 58.3595 L 49.8145 58.3595 L 59.6315 36.5404 L 68.941 36.5404 L 65.7261 43.7165 L 68.2474 43.7165 L 70.6067 34.601 L 83.7951 34.601 L 81.4358 43.7165 L 87.5451 43.7165 L 84.8094 54.2866 L 78.7001 54.2866 L 77.1941 60.105 L 84.5641 60.105 L 81.5021 71.9358 L 74.1321 71.9358 L 70.6434 85.4151 L 57.455 85.4151 L 60.9437 71.9358 L 48.0462 71.9358 M 60.7963 14.4304 L 63.7579 2.9876 L 97.0199 2.9876 L 89.3899 32.4675 L 74.6499 32.4675 L 77.7838 28.9765 L 81.5486 14.4304 L 76.7969 14.4304 L 70.2393 32.2736 L 58.2146 32.2736 L 64.6752 14.4304 L 60.7963 14.4304 M 41.5213 17.3396 L 34.1514 17.3396 L 29.4955 22.9641 L 37.4473 22.9641 L 41.5213 17.3396 M 27.8277 52.638 L 26.1461 59.1353 L 28.5704 59.1353 L 30.252 52.638 L 27.8277 52.638 M 32.245 35.5707 L 30.5885 41.971 L 33.0129 41.971 L 34.6694 35.5707 L 32.245 35.5707 M 36.1344 59.1353 L 38.4617 59.1353 L 40.1433 52.638 L 37.816 52.638 L 36.1344 59.1353 M 44.5607 35.5707 L 42.2333 35.5707 L 40.5768 41.971 L 42.9042 41.971 L 44.5607 35.5707 Z M 155.6194 24.6127 L 157.9285 15.6911 L 155.2132 15.6911 L 150.9647 24.6127 L 144.0795 24.6127 L 173.7033 41.2921 L 164.1007 52.5411 L 156.4307 48.0803 L 155.2259 52.735 L 109.4544 52.735 L 110.5085 48.6621 L 100.2601 53.4138 L 96.3834 42.1649 L 139.3198 22.7702 L 151.1152 -0.6974 L 163.1399 -0.6974 L 160.0037 5.7998 L 178.4287 5.7998 L 175.8686 15.6911 L 171.0199 15.6911 L 168.7108 24.6127 L 155.6194 24.6127 M 103.9429 56.42 L 96.4384 85.4151 L 151.3255 85.4151 L 158.8299 56.42 L 103.9429 56.42 M 104.4173 24.6127 L 117.1744 -0.6974 L 129.1991 -0.6974 L 126.0629 5.7998 L 143.0333 5.7998 L 140.4732 15.6911 L 137.0791 15.6911 L 134.7701 24.6127 L 121.5817 24.6127 L 123.8907 15.6911 L 121.2724 15.6911 L 116.9269 24.6127 L 104.4173 24.6127 M 139.1227 72.6146 L 115.2672 72.6146 L 116.3715 68.3478 L 140.227 68.3478 L 139.1227 72.6146 M 136.5316 36.5404 L 122.7534 42.9407 L 147.5787 42.9407 L 136.5316 36.5404 Z M 183.8411 38.092 L 187.4051 24.3218 L 193.7084 24.3218 L 199.5061 1.9208 L 214.9249 1.9208 L 209.1272 24.3218 L 214.8486 24.3218 L 221.3743 -0.8914 L 235.8233 -0.8914 L 229.2977 24.3218 L 235.31 24.3218 L 241.8357 -0.8914 L 256.4787 -0.8914 L 249.9531 24.3218 L 259.7474 24.3218 L 256.1834 38.092 L 246.3891 38.092 L 239.9638 62.9173 L 204.8594 62.9173 L 211.2846 38.092 L 205.5632 38.092 L 197.6571 68.6387 L 245.4651 68.6387 L 241.9011 82.4089 L 178.6743 82.4089 L 190.1444 38.092 L 183.8411 38.092 M 222.7218 49.7288 L 228.7342 49.7288 L 231.746 38.092 L 225.7337 38.092 L 222.7218 49.7288 Z M 276.3039 71.257 L 288.5018 24.1278 L 324.576 24.1278 L 312.3781 71.257 L 276.3039 71.257 M 306.1771 1.9208 L 348.4576 1.9208 L 327.0736 84.5424 L 307.9698 84.5424 L 312.4716 79.8876 L 329.2877 14.9153 L 302.8139 14.9153 L 306.1771 1.9208 M 254.6343 84.5424 L 270.597 22.8671 L 286.3068 22.8671 L 270.344 84.5424 L 254.6343 84.5424 M 286.8943 19.4731 L 278.5317 8.3211 L 290.8861 -1.5702 L 299.3457 9.5818 L 286.8943 19.4731 M 291.3222 58.9413 L 303.6378 58.9413 L 305.0433 53.5108 L 292.7277 53.5108 L 291.3222 58.9413 M 309.4607 36.4435 L 297.1451 36.4435 L 295.7646 41.777 L 308.0803 41.777 L 309.4607 36.4435 Z M 357.7592 16.5639 L 361.2228 3.1815 L 429.3952 3.1815 L 425.9316 16.5639 L 389.4695 16.5639 C 388.8025 18.8912 388.0625 21.2509 387.2494 23.6429 C 386.5178 25.9703 385.7047 28.3623 384.8103 30.819 L 416.6177 30.819 L 402.7883 84.2514 L 383.0057 84.2514 L 387.8703 79.6937 L 397.0062 44.3953 L 379.551 44.3953 C 376.4319 51.7006 372.9583 58.8767 369.1304 65.9234 C 365.3024 72.9702 361.1235 79.4997 356.5935 85.5121 L 342.9647 80.4695 C 346.1545 76.138 349.5307 70.8368 353.0932 64.5658 C 356.7371 58.2302 360.3076 51.0541 363.8047 43.0377 C 367.3186 34.9565 370.4753 26.1319 373.2749 16.5639 L 357.7592 16.5639 Z M 465.5404 66.6022 L 456.1385 60.5899 L 457.341 58.9413 L 454.547 59.6201 L 447.8457 85.5121 L 433.6875 85.5121 L 439.4853 63.1112 L 425.0306 66.5053 L 428.8957 51.5713 L 443.3505 48.1773 L 447.9184 30.5281 L 444.8153 30.5281 L 441.6266 40.2254 L 429.5049 40.2254 L 440.7891 5.9937 L 453.0077 5.9937 L 449.1984 17.3396 L 451.3319 17.3396 L 456.0002 -0.6974 L 470.1584 -0.6974 L 465.49 17.3396 L 470.5326 17.3396 L 468.8008 24.0308 L 486.6439 -0.6974 L 497.2117 2.3087 L 491.2496 10.3576 L 515.299 10.3576 L 495.8476 85.5121 L 478.1984 85.5121 L 482.941 81.0513 L 488.6886 58.8444 L 468.0344 86.1909 L 458.4603 80.4695 L 495.4903 32.5645 L 497.1719 26.0673 L 465.5404 66.6022 M 469.5117 39.6436 L 462.0024 33.4373 L 464.113 30.5281 L 462.0766 30.5281 L 458.4373 44.5892 L 464.2192 43.2316 L 461.5336 53.6078 L 484.4136 24.0308 L 481.1165 24.0308 L 469.5117 39.6436 Z" stroke-linecap="round" stroke-linejoin="round" fill="#ffffff"></path>
    </mask>
    <linearGradient id="linear-gradient-ele1702095729250_1452_ody" x1="0" y1="0" x2="0%" y2="100%">
      <stop offset="0" stop-color="rgb(255, 192, 5)"></stop>
      <stop offset="1" stop-color="rgb(255, 192, 5)"></stop>
    </linearGradient>
  </defs>
  <rect width="531.8079833984375" height="103.19441273685798" x="0" y="0" opacity="0"></rect>
  <path d=" M 8.4833 85.4151 L 22.4381 31.4978 L 20.0366 34.407 L 14.0311 25.3885 L 36.2048 -1.0853 L 47.1138 1.7269 L 43.5851 5.9937 L 61.1374 5.9937 L 50.9267 22.9641 L 58.3936 22.9641 L 42.2301 85.4151 L 28.5569 85.4151 L 31.9167 81.0513 L 34.5269 70.9661 L 23.6659 70.9661 L 19.9262 85.4151 L 8.4833 85.4151 M 48.0462 71.9358 L 51.1082 60.105 L 64.0057 60.105 L 65.5116 54.2866 L 61.0509 54.2866 L 59.2209 58.3595 L 49.8145 58.3595 L 59.6315 36.5404 L 68.941 36.5404 L 65.7261 43.7165 L 68.2474 43.7165 L 70.6067 34.601 L 83.7951 34.601 L 81.4358 43.7165 L 87.5451 43.7165 L 84.8094 54.2866 L 78.7001 54.2866 L 77.1941 60.105 L 84.5641 60.105 L 81.5021 71.9358 L 74.1321 71.9358 L 70.6434 85.4151 L 57.455 85.4151 L 60.9437 71.9358 L 48.0462 71.9358 M 60.7963 14.4304 L 63.7579 2.9876 L 97.0199 2.9876 L 89.3899 32.4675 L 74.6499 32.4675 L 77.7838 28.9765 L 81.5486 14.4304 L 76.7969 14.4304 L 70.2393 32.2736 L 58.2146 32.2736 L 64.6752 14.4304 L 60.7963 14.4304 M 41.5213 17.3396 L 34.1514 17.3396 L 29.4955 22.9641 L 37.4473 22.9641 L 41.5213 17.3396 M 27.8277 52.638 L 26.1461 59.1353 L 28.5704 59.1353 L 30.252 52.638 L 27.8277 52.638 M 32.245 35.5707 L 30.5885 41.971 L 33.0129 41.971 L 34.6694 35.5707 L 32.245 35.5707 M 36.1344 59.1353 L 38.4617 59.1353 L 40.1433 52.638 L 37.816 52.638 L 36.1344 59.1353 M 44.5607 35.5707 L 42.2333 35.5707 L 40.5768 41.971 L 42.9042 41.971 L 44.5607 35.5707 Z M 155.6194 24.6127 L 157.9285 15.6911 L 155.2132 15.6911 L 150.9647 24.6127 L 144.0795 24.6127 L 173.7033 41.2921 L 164.1007 52.5411 L 156.4307 48.0803 L 155.2259 52.735 L 109.4544 52.735 L 110.5085 48.6621 L 100.2601 53.4138 L 96.3834 42.1649 L 139.3198 22.7702 L 151.1152 -0.6974 L 163.1399 -0.6974 L 160.0037 5.7998 L 178.4287 5.7998 L 175.8686 15.6911 L 171.0199 15.6911 L 168.7108 24.6127 L 155.6194 24.6127 M 103.9429 56.42 L 96.4384 85.4151 L 151.3255 85.4151 L 158.8299 56.42 L 103.9429 56.42 M 104.4173 24.6127 L 117.1744 -0.6974 L 129.1991 -0.6974 L 126.0629 5.7998 L 143.0333 5.7998 L 140.4732 15.6911 L 137.0791 15.6911 L 134.7701 24.6127 L 121.5817 24.6127 L 123.8907 15.6911 L 121.2724 15.6911 L 116.9269 24.6127 L 104.4173 24.6127 M 139.1227 72.6146 L 115.2672 72.6146 L 116.3715 68.3478 L 140.227 68.3478 L 139.1227 72.6146 M 136.5316 36.5404 L 122.7534 42.9407 L 147.5787 42.9407 L 136.5316 36.5404 Z M 183.8411 38.092 L 187.4051 24.3218 L 193.7084 24.3218 L 199.5061 1.9208 L 214.9249 1.9208 L 209.1272 24.3218 L 214.8486 24.3218 L 221.3743 -0.8914 L 235.8233 -0.8914 L 229.2977 24.3218 L 235.31 24.3218 L 241.8357 -0.8914 L 256.4787 -0.8914 L 249.9531 24.3218 L 259.7474 24.3218 L 256.1834 38.092 L 246.3891 38.092 L 239.9638 62.9173 L 204.8594 62.9173 L 211.2846 38.092 L 205.5632 38.092 L 197.6571 68.6387 L 245.4651 68.6387 L 241.9011 82.4089 L 178.6743 82.4089 L 190.1444 38.092 L 183.8411 38.092 M 222.7218 49.7288 L 228.7342 49.7288 L 231.746 38.092 L 225.7337 38.092 L 222.7218 49.7288 Z M 276.3039 71.257 L 288.5018 24.1278 L 324.576 24.1278 L 312.3781 71.257 L 276.3039 71.257 M 306.1771 1.9208 L 348.4576 1.9208 L 327.0736 84.5424 L 307.9698 84.5424 L 312.4716 79.8876 L 329.2877 14.9153 L 302.8139 14.9153 L 306.1771 1.9208 M 254.6343 84.5424 L 270.597 22.8671 L 286.3068 22.8671 L 270.344 84.5424 L 254.6343 84.5424 M 286.8943 19.4731 L 278.5317 8.3211 L 290.8861 -1.5702 L 299.3457 9.5818 L 286.8943 19.4731 M 291.3222 58.9413 L 303.6378 58.9413 L 305.0433 53.5108 L 292.7277 53.5108 L 291.3222 58.9413 M 309.4607 36.4435 L 297.1451 36.4435 L 295.7646 41.777 L 308.0803 41.777 L 309.4607 36.4435 Z M 357.7592 16.5639 L 361.2228 3.1815 L 429.3952 3.1815 L 425.9316 16.5639 L 389.4695 16.5639 C 388.8025 18.8912 388.0625 21.2509 387.2494 23.6429 C 386.5178 25.9703 385.7047 28.3623 384.8103 30.819 L 416.6177 30.819 L 402.7883 84.2514 L 383.0057 84.2514 L 387.8703 79.6937 L 397.0062 44.3953 L 379.551 44.3953 C 376.4319 51.7006 372.9583 58.8767 369.1304 65.9234 C 365.3024 72.9702 361.1235 79.4997 356.5935 85.5121 L 342.9647 80.4695 C 346.1545 76.138 349.5307 70.8368 353.0932 64.5658 C 356.7371 58.2302 360.3076 51.0541 363.8047 43.0377 C 367.3186 34.9565 370.4753 26.1319 373.2749 16.5639 L 357.7592 16.5639 Z M 465.5404 66.6022 L 456.1385 60.5899 L 457.341 58.9413 L 454.547 59.6201 L 447.8457 85.5121 L 433.6875 85.5121 L 439.4853 63.1112 L 425.0306 66.5053 L 428.8957 51.5713 L 443.3505 48.1773 L 447.9184 30.5281 L 444.8153 30.5281 L 441.6266 40.2254 L 429.5049 40.2254 L 440.7891 5.9937 L 453.0077 5.9937 L 449.1984 17.3396 L 451.3319 17.3396 L 456.0002 -0.6974 L 470.1584 -0.6974 L 465.49 17.3396 L 470.5326 17.3396 L 468.8008 24.0308 L 486.6439 -0.6974 L 497.2117 2.3087 L 491.2496 10.3576 L 515.299 10.3576 L 495.8476 85.5121 L 478.1984 85.5121 L 482.941 81.0513 L 488.6886 58.8444 L 468.0344 86.1909 L 458.4603 80.4695 L 495.4903 32.5645 L 497.1719 26.0673 L 465.5404 66.6022 M 469.5117 39.6436 L 462.0024 33.4373 L 464.113 30.5281 L 462.0766 30.5281 L 458.4373 44.5892 L 464.2192 43.2316 L 461.5336 53.6078 L 484.4136 24.0308 L 481.1165 24.0308 L 469.5117 39.6436 Z" stroke-linecap="round" stroke-linejoin="round" stroke="#004AF3" stroke-width="6.060851152842849" fill="#004AF3"></path>
  <g filter="url(#shadow-07424312.7055966092502854.6862307920075710121)">
    <path d=" M 8.4833 85.4151 L 22.4381 31.4978 L 20.0366 34.407 L 14.0311 25.3885 L 36.2048 -1.0853 L 47.1138 1.7269 L 43.5851 5.9937 L 61.1374 5.9937 L 50.9267 22.9641 L 58.3936 22.9641 L 42.2301 85.4151 L 28.5569 85.4151 L 31.9167 81.0513 L 34.5269 70.9661 L 23.6659 70.9661 L 19.9262 85.4151 L 8.4833 85.4151 M 48.0462 71.9358 L 51.1082 60.105 L 64.0057 60.105 L 65.5116 54.2866 L 61.0509 54.2866 L 59.2209 58.3595 L 49.8145 58.3595 L 59.6315 36.5404 L 68.941 36.5404 L 65.7261 43.7165 L 68.2474 43.7165 L 70.6067 34.601 L 83.7951 34.601 L 81.4358 43.7165 L 87.5451 43.7165 L 84.8094 54.2866 L 78.7001 54.2866 L 77.1941 60.105 L 84.5641 60.105 L 81.5021 71.9358 L 74.1321 71.9358 L 70.6434 85.4151 L 57.455 85.4151 L 60.9437 71.9358 L 48.0462 71.9358 M 60.7963 14.4304 L 63.7579 2.9876 L 97.0199 2.9876 L 89.3899 32.4675 L 74.6499 32.4675 L 77.7838 28.9765 L 81.5486 14.4304 L 76.7969 14.4304 L 70.2393 32.2736 L 58.2146 32.2736 L 64.6752 14.4304 L 60.7963 14.4304 M 41.5213 17.3396 L 34.1514 17.3396 L 29.4955 22.9641 L 37.4473 22.9641 L 41.5213 17.3396 M 27.8277 52.638 L 26.1461 59.1353 L 28.5704 59.1353 L 30.252 52.638 L 27.8277 52.638 M 32.245 35.5707 L 30.5885 41.971 L 33.0129 41.971 L 34.6694 35.5707 L 32.245 35.5707 M 36.1344 59.1353 L 38.4617 59.1353 L 40.1433 52.638 L 37.816 52.638 L 36.1344 59.1353 M 44.5607 35.5707 L 42.2333 35.5707 L 40.5768 41.971 L 42.9042 41.971 L 44.5607 35.5707 Z M 155.6194 24.6127 L 157.9285 15.6911 L 155.2132 15.6911 L 150.9647 24.6127 L 144.0795 24.6127 L 173.7033 41.2921 L 164.1007 52.5411 L 156.4307 48.0803 L 155.2259 52.735 L 109.4544 52.735 L 110.5085 48.6621 L 100.2601 53.4138 L 96.3834 42.1649 L 139.3198 22.7702 L 151.1152 -0.6974 L 163.1399 -0.6974 L 160.0037 5.7998 L 178.4287 5.7998 L 175.8686 15.6911 L 171.0199 15.6911 L 168.7108 24.6127 L 155.6194 24.6127 M 103.9429 56.42 L 96.4384 85.4151 L 151.3255 85.4151 L 158.8299 56.42 L 103.9429 56.42 M 104.4173 24.6127 L 117.1744 -0.6974 L 129.1991 -0.6974 L 126.0629 5.7998 L 143.0333 5.7998 L 140.4732 15.6911 L 137.0791 15.6911 L 134.7701 24.6127 L 121.5817 24.6127 L 123.8907 15.6911 L 121.2724 15.6911 L 116.9269 24.6127 L 104.4173 24.6127 M 139.1227 72.6146 L 115.2672 72.6146 L 116.3715 68.3478 L 140.227 68.3478 L 139.1227 72.6146 M 136.5316 36.5404 L 122.7534 42.9407 L 147.5787 42.9407 L 136.5316 36.5404 Z M 183.8411 38.092 L 187.4051 24.3218 L 193.7084 24.3218 L 199.5061 1.9208 L 214.9249 1.9208 L 209.1272 24.3218 L 214.8486 24.3218 L 221.3743 -0.8914 L 235.8233 -0.8914 L 229.2977 24.3218 L 235.31 24.3218 L 241.8357 -0.8914 L 256.4787 -0.8914 L 249.9531 24.3218 L 259.7474 24.3218 L 256.1834 38.092 L 246.3891 38.092 L 239.9638 62.9173 L 204.8594 62.9173 L 211.2846 38.092 L 205.5632 38.092 L 197.6571 68.6387 L 245.4651 68.6387 L 241.9011 82.4089 L 178.6743 82.4089 L 190.1444 38.092 L 183.8411 38.092 M 222.7218 49.7288 L 228.7342 49.7288 L 231.746 38.092 L 225.7337 38.092 L 222.7218 49.7288 Z M 276.3039 71.257 L 288.5018 24.1278 L 324.576 24.1278 L 312.3781 71.257 L 276.3039 71.257 M 306.1771 1.9208 L 348.4576 1.9208 L 327.0736 84.5424 L 307.9698 84.5424 L 312.4716 79.8876 L 329.2877 14.9153 L 302.8139 14.9153 L 306.1771 1.9208 M 254.6343 84.5424 L 270.597 22.8671 L 286.3068 22.8671 L 270.344 84.5424 L 254.6343 84.5424 M 286.8943 19.4731 L 278.5317 8.3211 L 290.8861 -1.5702 L 299.3457 9.5818 L 286.8943 19.4731 M 291.3222 58.9413 L 303.6378 58.9413 L 305.0433 53.5108 L 292.7277 53.5108 L 291.3222 58.9413 M 309.4607 36.4435 L 297.1451 36.4435 L 295.7646 41.777 L 308.0803 41.777 L 309.4607 36.4435 Z M 357.7592 16.5639 L 361.2228 3.1815 L 429.3952 3.1815 L 425.9316 16.5639 L 389.4695 16.5639 C 388.8025 18.8912 388.0625 21.2509 387.2494 23.6429 C 386.5178 25.9703 385.7047 28.3623 384.8103 30.819 L 416.6177 30.819 L 402.7883 84.2514 L 383.0057 84.2514 L 387.8703 79.6937 L 397.0062 44.3953 L 379.551 44.3953 C 376.4319 51.7006 372.9583 58.8767 369.1304 65.9234 C 365.3024 72.9702 361.1235 79.4997 356.5935 85.5121 L 342.9647 80.4695 C 346.1545 76.138 349.5307 70.8368 353.0932 64.5658 C 356.7371 58.2302 360.3076 51.0541 363.8047 43.0377 C 367.3186 34.9565 370.4753 26.1319 373.2749 16.5639 L 357.7592 16.5639 Z M 465.5404 66.6022 L 456.1385 60.5899 L 457.341 58.9413 L 454.547 59.6201 L 447.8457 85.5121 L 433.6875 85.5121 L 439.4853 63.1112 L 425.0306 66.5053 L 428.8957 51.5713 L 443.3505 48.1773 L 447.9184 30.5281 L 444.8153 30.5281 L 441.6266 40.2254 L 429.5049 40.2254 L 440.7891 5.9937 L 453.0077 5.9937 L 449.1984 17.3396 L 451.3319 17.3396 L 456.0002 -0.6974 L 470.1584 -0.6974 L 465.49 17.3396 L 470.5326 17.3396 L 468.8008 24.0308 L 486.6439 -0.6974 L 497.2117 2.3087 L 491.2496 10.3576 L 515.299 10.3576 L 495.8476 85.5121 L 478.1984 85.5121 L 482.941 81.0513 L 488.6886 58.8444 L 468.0344 86.1909 L 458.4603 80.4695 L 495.4903 32.5645 L 497.1719 26.0673 L 465.5404 66.6022 M 469.5117 39.6436 L 462.0024 33.4373 L 464.113 30.5281 L 462.0766 30.5281 L 458.4373 44.5892 L 464.2192 43.2316 L 461.5336 53.6078 L 484.4136 24.0308 L 481.1165 24.0308 L 469.5117 39.6436 Z" stroke-linecap="round" stroke-linejoin="round" stroke-width="6.060851152842849" stroke="#ffffff" fill="#ffffff"></path>
  </g>
  <path d=" M 8.4833 85.4151 L 22.4381 31.4978 L 20.0366 34.407 L 14.0311 25.3885 L 36.2048 -1.0853 L 47.1138 1.7269 L 43.5851 5.9937 L 61.1374 5.9937 L 50.9267 22.9641 L 58.3936 22.9641 L 42.2301 85.4151 L 28.5569 85.4151 L 31.9167 81.0513 L 34.5269 70.9661 L 23.6659 70.9661 L 19.9262 85.4151 L 8.4833 85.4151 M 48.0462 71.9358 L 51.1082 60.105 L 64.0057 60.105 L 65.5116 54.2866 L 61.0509 54.2866 L 59.2209 58.3595 L 49.8145 58.3595 L 59.6315 36.5404 L 68.941 36.5404 L 65.7261 43.7165 L 68.2474 43.7165 L 70.6067 34.601 L 83.7951 34.601 L 81.4358 43.7165 L 87.5451 43.7165 L 84.8094 54.2866 L 78.7001 54.2866 L 77.1941 60.105 L 84.5641 60.105 L 81.5021 71.9358 L 74.1321 71.9358 L 70.6434 85.4151 L 57.455 85.4151 L 60.9437 71.9358 L 48.0462 71.9358 M 60.7963 14.4304 L 63.7579 2.9876 L 97.0199 2.9876 L 89.3899 32.4675 L 74.6499 32.4675 L 77.7838 28.9765 L 81.5486 14.4304 L 76.7969 14.4304 L 70.2393 32.2736 L 58.2146 32.2736 L 64.6752 14.4304 L 60.7963 14.4304 M 41.5213 17.3396 L 34.1514 17.3396 L 29.4955 22.9641 L 37.4473 22.9641 L 41.5213 17.3396 M 27.8277 52.638 L 26.1461 59.1353 L 28.5704 59.1353 L 30.252 52.638 L 27.8277 52.638 M 32.245 35.5707 L 30.5885 41.971 L 33.0129 41.971 L 34.6694 35.5707 L 32.245 35.5707 M 36.1344 59.1353 L 38.4617 59.1353 L 40.1433 52.638 L 37.816 52.638 L 36.1344 59.1353 M 44.5607 35.5707 L 42.2333 35.5707 L 40.5768 41.971 L 42.9042 41.971 L 44.5607 35.5707 Z M 155.6194 24.6127 L 157.9285 15.6911 L 155.2132 15.6911 L 150.9647 24.6127 L 144.0795 24.6127 L 173.7033 41.2921 L 164.1007 52.5411 L 156.4307 48.0803 L 155.2259 52.735 L 109.4544 52.735 L 110.5085 48.6621 L 100.2601 53.4138 L 96.3834 42.1649 L 139.3198 22.7702 L 151.1152 -0.6974 L 163.1399 -0.6974 L 160.0037 5.7998 L 178.4287 5.7998 L 175.8686 15.6911 L 171.0199 15.6911 L 168.7108 24.6127 L 155.6194 24.6127 M 103.9429 56.42 L 96.4384 85.4151 L 151.3255 85.4151 L 158.8299 56.42 L 103.9429 56.42 M 104.4173 24.6127 L 117.1744 -0.6974 L 129.1991 -0.6974 L 126.0629 5.7998 L 143.0333 5.7998 L 140.4732 15.6911 L 137.0791 15.6911 L 134.7701 24.6127 L 121.5817 24.6127 L 123.8907 15.6911 L 121.2724 15.6911 L 116.9269 24.6127 L 104.4173 24.6127 M 139.1227 72.6146 L 115.2672 72.6146 L 116.3715 68.3478 L 140.227 68.3478 L 139.1227 72.6146 M 136.5316 36.5404 L 122.7534 42.9407 L 147.5787 42.9407 L 136.5316 36.5404 Z M 183.8411 38.092 L 187.4051 24.3218 L 193.7084 24.3218 L 199.5061 1.9208 L 214.9249 1.9208 L 209.1272 24.3218 L 214.8486 24.3218 L 221.3743 -0.8914 L 235.8233 -0.8914 L 229.2977 24.3218 L 235.31 24.3218 L 241.8357 -0.8914 L 256.4787 -0.8914 L 249.9531 24.3218 L 259.7474 24.3218 L 256.1834 38.092 L 246.3891 38.092 L 239.9638 62.9173 L 204.8594 62.9173 L 211.2846 38.092 L 205.5632 38.092 L 197.6571 68.6387 L 245.4651 68.6387 L 241.9011 82.4089 L 178.6743 82.4089 L 190.1444 38.092 L 183.8411 38.092 M 222.7218 49.7288 L 228.7342 49.7288 L 231.746 38.092 L 225.7337 38.092 L 222.7218 49.7288 Z M 276.3039 71.257 L 288.5018 24.1278 L 324.576 24.1278 L 312.3781 71.257 L 276.3039 71.257 M 306.1771 1.9208 L 348.4576 1.9208 L 327.0736 84.5424 L 307.9698 84.5424 L 312.4716 79.8876 L 329.2877 14.9153 L 302.8139 14.9153 L 306.1771 1.9208 M 254.6343 84.5424 L 270.597 22.8671 L 286.3068 22.8671 L 270.344 84.5424 L 254.6343 84.5424 M 286.8943 19.4731 L 278.5317 8.3211 L 290.8861 -1.5702 L 299.3457 9.5818 L 286.8943 19.4731 M 291.3222 58.9413 L 303.6378 58.9413 L 305.0433 53.5108 L 292.7277 53.5108 L 291.3222 58.9413 M 309.4607 36.4435 L 297.1451 36.4435 L 295.7646 41.777 L 308.0803 41.777 L 309.4607 36.4435 Z M 357.7592 16.5639 L 361.2228 3.1815 L 429.3952 3.1815 L 425.9316 16.5639 L 389.4695 16.5639 C 388.8025 18.8912 388.0625 21.2509 387.2494 23.6429 C 386.5178 25.9703 385.7047 28.3623 384.8103 30.819 L 416.6177 30.819 L 402.7883 84.2514 L 383.0057 84.2514 L 387.8703 79.6937 L 397.0062 44.3953 L 379.551 44.3953 C 376.4319 51.7006 372.9583 58.8767 369.1304 65.9234 C 365.3024 72.9702 361.1235 79.4997 356.5935 85.5121 L 342.9647 80.4695 C 346.1545 76.138 349.5307 70.8368 353.0932 64.5658 C 356.7371 58.2302 360.3076 51.0541 363.8047 43.0377 C 367.3186 34.9565 370.4753 26.1319 373.2749 16.5639 L 357.7592 16.5639 Z M 465.5404 66.6022 L 456.1385 60.5899 L 457.341 58.9413 L 454.547 59.6201 L 447.8457 85.5121 L 433.6875 85.5121 L 439.4853 63.1112 L 425.0306 66.5053 L 428.8957 51.5713 L 443.3505 48.1773 L 447.9184 30.5281 L 444.8153 30.5281 L 441.6266 40.2254 L 429.5049 40.2254 L 440.7891 5.9937 L 453.0077 5.9937 L 449.1984 17.3396 L 451.3319 17.3396 L 456.0002 -0.6974 L 470.1584 -0.6974 L 465.49 17.3396 L 470.5326 17.3396 L 468.8008 24.0308 L 486.6439 -0.6974 L 497.2117 2.3087 L 491.2496 10.3576 L 515.299 10.3576 L 495.8476 85.5121 L 478.1984 85.5121 L 482.941 81.0513 L 488.6886 58.8444 L 468.0344 86.1909 L 458.4603 80.4695 L 495.4903 32.5645 L 497.1719 26.0673 L 465.5404 66.6022 M 469.5117 39.6436 L 462.0024 33.4373 L 464.113 30.5281 L 462.0766 30.5281 L 458.4373 44.5892 L 464.2192 43.2316 L 461.5336 53.6078 L 484.4136 24.0308 L 481.1165 24.0308 L 469.5117 39.6436 Z" stroke-linecap="round" stroke-linejoin="round" stroke="#004AF3" stroke-width="6.060851152842849" fill="#004AF3"></path>
  <g mask="url(#mask-ele1702095729250_1452_ody)">
    <rect width="506.8157" height="87.7611" x="8.4833" y="-1.5702" fill="url(#linear-gradient-ele1702095729250_1452_ody)"></rect>
  </g>
</svg>